<?xml version="1.0" encoding="UTF-8" standalone="no"?>
<svg
   version="1.2"
   width="1000"
   height="600"
   viewBox="0 0 26458.333 15875"
   preserveAspectRatio="xMidYMid"
   fill-rule="evenodd"
   stroke-width="28.222"
   stroke-linejoin="round"
   xml:space="preserve"
   id="svg627"
   sodipodi:docname="background_pause.svg"
   inkscape:version="1.2.2 (b0a8486, 2022-12-01)"
   inkscape:export-filename="background_pause1.png"
   inkscape:export-xdpi="96"
   inkscape:export-ydpi="96"
   xmlns:inkscape="http://www.inkscape.org/namespaces/inkscape"
   xmlns:sodipodi="http://sodipodi.sourceforge.net/DTD/sodipodi-0.dtd"
   xmlns="http://www.w3.org/2000/svg"
   xmlns:svg="http://www.w3.org/2000/svg"
   xmlns:ooo="http://xml.openoffice.org/svg/export"><sodipodi:namedview
   id="namedview629"
   pagecolor="#ffffff"
   bordercolor="#000000"
   borderopacity="0.25"
   inkscape:showpageshadow="2"
   inkscape:pageopacity="0.0"
   inkscape:pagecheckerboard="0"
   inkscape:deskcolor="#d1d1d1"
   inkscape:document-units="mm"
   showgrid="false"
   inkscape:zoom="0.63"
   inkscape:cx="415.87302"
   inkscape:cy="148.4127"
   inkscape:window-width="1440"
   inkscape:window-height="847"
   inkscape:window-x="0"
   inkscape:window-y="25"
   inkscape:window-maximized="0"
   inkscape:current-layer="svg627" />
 <defs
   class="ClipPathGroup"
   id="defs567">
  
  <clipPath
   id="presentation_clip_path_shrink"
   clipPathUnits="userSpaceOnUse">
   <rect
   x="10"
   y="6"
   width="9980"
   height="5988"
   id="rect564" />
  </clipPath>
 
  
 
   
  
    
   
     
    
      
     
       
      
        
        
        
       <clipPath
   clipPathUnits="userSpaceOnUse"
   id="clipPath1575"><g
     id="g1585"><g
       id="g1583"><g
         id="g1581"><g
           id="g1579"><rect
             x="-206.51006"
             y="-220.80728"
             width="26927.055"
             height="16350.341"
             id="rect1577"
             style="stroke-width:76.4487" /></g></g></g></g></clipPath><clipPath
   clipPathUnits="userSpaceOnUse"
   id="clipPath1587"><g
     id="g1597"><g
       id="g1595"><g
         id="g1593"><g
           id="g1591"><rect
             x="-206.51006"
             y="-220.80728"
             width="26927.055"
             height="16350.341"
             id="rect1589"
             style="stroke-width:76.4487" /></g></g></g></g></clipPath><clipPath
   clipPathUnits="userSpaceOnUse"
   id="clipPath1599"><g
     id="g1609"><g
       id="g1607"><g
         id="g1605"><g
           id="g1603"><rect
             x="-206.51006"
             y="-220.80728"
             width="26927.055"
             height="16350.341"
             id="rect1601"
             style="stroke-width:76.4487" /></g></g></g></g></clipPath></defs>
 <defs
   class="TextShapeIndex"
   id="defs571">
  <g
   ooo:slide="id1"
   ooo:id-list="id3"
   id="g569" />
 </defs>
 <defs
   class="EmbeddedBulletChars"
   id="defs603">
  <g
   id="bullet-char-template-57356"
   transform="matrix(4.8828125e-4,0,0,-4.8828125e-4,0,0)">
   <path
   d="M 580,1141 1163,571 580,0 -4,571 Z"
   id="path573" />
  </g>
  <g
   id="bullet-char-template-57354"
   transform="matrix(4.8828125e-4,0,0,-4.8828125e-4,0,0)">
   <path
   d="M 8,1128 H 1137 V 0 H 8 Z"
   id="path576" />
  </g>
  <g
   id="bullet-char-template-10146"
   transform="matrix(4.8828125e-4,0,0,-4.8828125e-4,0,0)">
   <path
   d="M 174,0 602,739 174,1481 1456,739 Z M 1358,739 309,1346 659,739 Z"
   id="path579" />
  </g>
  <g
   id="bullet-char-template-10132"
   transform="matrix(4.8828125e-4,0,0,-4.8828125e-4,0,0)">
   <path
   d="M 2015,739 1276,0 H 717 l 543,543 H 174 v 393 h 1086 l -543,545 h 557 z"
   id="path582" />
  </g>
  <g
   id="bullet-char-template-10007"
   transform="matrix(4.8828125e-4,0,0,-4.8828125e-4,0,0)">
   <path
   d="m 0,-2 c -7,16 -16,29 -25,39 l 381,530 c -94,256 -141,385 -141,387 0,25 13,38 40,38 9,0 21,-2 34,-5 21,4 42,12 65,25 l 27,-13 111,-251 280,301 64,-25 24,25 c 21,-10 41,-24 62,-43 C 886,937 835,863 770,784 769,783 710,716 594,584 L 774,223 c 0,-27 -21,-55 -63,-84 l 16,-20 C 717,90 699,76 672,76 641,76 570,178 457,381 L 164,-76 c -22,-34 -53,-51 -92,-51 -42,0 -63,17 -64,51 -7,9 -10,24 -10,44 0,9 1,19 2,30 z"
   id="path585" />
  </g>
  <g
   id="bullet-char-template-10004"
   transform="matrix(4.8828125e-4,0,0,-4.8828125e-4,0,0)">
   <path
   d="M 285,-33 C 182,-33 111,30 74,156 52,228 41,333 41,471 c 0,78 14,145 41,201 34,71 87,106 158,106 53,0 88,-31 106,-94 l 23,-176 c 8,-64 28,-97 59,-98 l 735,706 c 11,11 33,17 66,17 42,0 63,-15 63,-46 V 965 c 0,-36 -10,-64 -30,-84 L 442,47 C 390,-6 338,-33 285,-33 Z"
   id="path588" />
  </g>
  <g
   id="bullet-char-template-9679"
   transform="matrix(4.8828125e-4,0,0,-4.8828125e-4,0,0)">
   <path
   d="M 813,0 C 632,0 489,54 383,161 276,268 223,411 223,592 c 0,181 53,324 160,431 106,107 249,161 430,161 179,0 323,-54 432,-161 108,-107 162,-251 162,-431 0,-180 -54,-324 -162,-431 C 1136,54 992,0 813,0 Z"
   id="path591" />
  </g>
  <g
   id="bullet-char-template-8226"
   transform="matrix(4.8828125e-4,0,0,-4.8828125e-4,0,0)">
   <path
   d="m 346,457 c -73,0 -137,26 -191,78 -54,51 -81,114 -81,188 0,73 27,136 81,188 54,52 118,78 191,78 73,0 134,-26 185,-79 51,-51 77,-114 77,-187 0,-75 -25,-137 -76,-188 -50,-52 -112,-78 -186,-78 z"
   id="path594" />
  </g>
  <g
   id="bullet-char-template-8211"
   transform="matrix(4.8828125e-4,0,0,-4.8828125e-4,0,0)">
   <path
   d="M -4,459 H 1135 V 606 H -4 Z"
   id="path597" />
  </g>
  <g
   id="bullet-char-template-61548"
   transform="matrix(4.8828125e-4,0,0,-4.8828125e-4,0,0)">
   <path
   d="m 173,740 c 0,163 58,303 173,419 116,115 255,173 419,173 163,0 302,-58 418,-173 116,-116 174,-256 174,-419 0,-163 -58,-303 -174,-418 C 1067,206 928,148 765,148 601,148 462,206 346,322 231,437 173,577 173,740 Z"
   id="path600" />
  </g>
 </defs>
 <g
   id="g608">
  <g
   id="id2"
   class="Master_Slide">
   <g
   id="bg-id2"
   class="Background" />
   <g
   id="bo-id2"
   class="BackgroundObjects" />
  </g>
 </g>
 <rect
   class="BoundingBox"
   stroke="none"
   fill="none"
   x="122"
   y="127.99999"
   width="26275.42"
   height="15655.451"
   id="rect610"
   style="stroke-width:76.4487"
   clip-path="url(#clipPath1599)" /><path
   fill="#d4ea6b"
   fill-opacity="0.2"
   stroke="#ffffff"
   stroke-opacity="0.2"
   d="m 1492.587,226.10204 h 2.6928 c -223.4946,0 -444.2964,59.95124 -638.17123,171.67857 C 663.23378,512.233 501.67146,675.73641 388.57783,871.9405 278.17691,1068.1446 218.93739,1291.5992 218.93739,1517.779 v 12873.168 0 c 0,226.18 59.23952,449.635 169.64044,645.839 113.09363,196.204 274.65595,359.707 468.53074,474.16 193.87483,111.727 414.67663,171.678 638.17123,171.678 H 25021.447 v 0 c 223.494,0 444.296,-59.951 638.171,-171.678 193.875,-114.453 355.437,-277.956 468.531,-474.16 110.401,-196.204 169.64,-419.659 169.64,-645.839 v -12875.8931 2.7251 0 c 0,-226.1798 -59.239,-449.6344 -169.64,-645.8385 -113.094,-196.20409 -274.656,-359.7075 -468.531,-474.15989 -193.875,-111.72733 -414.677,-171.67857 -638.171,-171.67857 z"
   id="path612"
   style="stroke-width:76.4487"
   clip-path="url(#clipPath1587)" /><path
   fill="none"
   stroke="#468a1a"
   stroke-width="192.327"
   stroke-linejoin="round"
   d="m 1492.587,226.10204 h 2.6928 c -223.4946,0 -444.2964,59.95124 -638.17123,171.67857 C 663.23378,512.233 501.67146,675.73641 388.57783,871.9405 278.17691,1068.1446 218.93739,1291.5992 218.93739,1517.779 v 12873.168 0 c 0,226.18 59.23952,449.635 169.64044,645.839 113.09363,196.204 274.65595,359.707 468.53074,474.16 193.87483,111.727 414.67663,171.678 638.17123,171.678 H 25021.447 v 0 c 223.494,0 444.296,-59.951 638.171,-171.678 193.875,-114.453 355.437,-277.956 468.531,-474.16 110.401,-196.204 169.64,-419.659 169.64,-645.839 v -12875.8931 2.7251 0 c 0,-226.1798 -59.239,-449.6344 -169.64,-645.8385 -113.094,-196.20409 -274.656,-359.7075 -468.531,-474.15989 -193.875,-111.72733 -414.677,-171.67857 -638.171,-171.67857 z"
   id="path614"
   clip-path="url(#clipPath1575)" />
   
  
<rect
   style="fill:#468a1a;fill-opacity:1;fill-rule:evenodd;stroke:none;stroke-width:419.679"
   id="rect819"
   width="26151.068"
   height="204.44987"
   x="273.07272"
   y="2971.8547" /><rect
   style="fill:#468a1a;fill-opacity:1;fill-rule:evenodd;stroke:none;stroke-width:137.281"
   id="rect819-3"
   width="2797.3318"
   height="204.51144"
   x="-2604.9102"
   y="13174.663"
   transform="matrix(0.00859127,-0.99996309,0.99938292,0.03512507,0,0)" /></svg>
