<?xml version="1.0" encoding="UTF-8" standalone="no"?>
<svg
   version="1.2"
   width="1200"
   height="800"
   viewBox="0 0 31750 21166.667"
   preserveAspectRatio="xMidYMid"
   fill-rule="evenodd"
   stroke-width="28.222"
   stroke-linejoin="round"
   xml:space="preserve"
   id="svg1522"
   sodipodi:docname="Background_Menu.svg"
   inkscape:export-filename="Background_Menu.png"
   inkscape:export-xdpi="96"
   inkscape:export-ydpi="96"
   inkscape:version="1.2.2 (b0a8486, 2022-12-01)"
   xmlns:inkscape="http://www.inkscape.org/namespaces/inkscape"
   xmlns:sodipodi="http://sodipodi.sourceforge.net/DTD/sodipodi-0.dtd"
   xmlns="http://www.w3.org/2000/svg"
   xmlns:svg="http://www.w3.org/2000/svg"
   xmlns:ooo="http://xml.openoffice.org/svg/export"><sodipodi:namedview
   id="namedview1524"
   pagecolor="#ffffff"
   bordercolor="#000000"
   borderopacity="0.25"
   inkscape:showpageshadow="2"
   inkscape:pageopacity="0.0"
   inkscape:pagecheckerboard="0"
   inkscape:deskcolor="#d1d1d1"
   inkscape:document-units="mm"
   showgrid="false"
   inkscape:zoom="0.63"
   inkscape:cx="544.44444"
   inkscape:cy="443.65079"
   inkscape:window-width="1440"
   inkscape:window-height="847"
   inkscape:window-x="0"
   inkscape:window-y="25"
   inkscape:window-maximized="1"
   inkscape:current-layer="container-id1" />
 <defs
   class="ClipPathGroup"
   id="defs808">
  
  <clipPath
   id="presentation_clip_path_shrink"
   clipPathUnits="userSpaceOnUse">
   <rect
   x="19"
   y="12"
   width="18962"
   height="12675"
   id="rect805" />
  </clipPath>
 
     
    
      <defs
   class="SlideBackground"
   id="defs854">
       <g
   id="bg-id1"
   class="Background">
        <path
   fill="#9aef50"
   stroke="none"
   d="M 9490,12689 H -10 V -10 h 18999 v 12699 z"
   id="path851" />
       </g>
      </defs>
      
     
       
       
       
       
       
       
       
       
       
       
       
       
       
       
       
       
       
       
      <clipPath
   clipPathUnits="userSpaceOnUse"
   id="clipPath5065"><g
     id="g5073"
     transform="translate(-6.1040643e-5)"><g
       id="g5071"
       transform="translate(-6.1040643e-5)"><g
         id="g5069"
         transform="translate(-6.1040643e-5)"><rect
           x="0"
           y="0"
           width="19000"
           height="12700"
           id="rect5067" /></g></g></g></clipPath><clipPath
   clipPathUnits="userSpaceOnUse"
   id="clipPath5075"><g
     id="g5083"
     transform="translate(-6.1040643e-5)"><g
       id="g5081"
       transform="translate(-6.1040643e-5)"><g
         id="g5079"
         transform="translate(-6.1040643e-5)"><rect
           x="0"
           y="0"
           width="19000"
           height="12700"
           id="rect5077" /></g></g></g></clipPath><clipPath
   clipPathUnits="userSpaceOnUse"
   id="clipPath5085"><g
     id="g5093"
     transform="translate(-6.1040643e-5)"><g
       id="g5091"
       transform="translate(-6.1040643e-5)"><g
         id="g5089"
         transform="translate(-6.1040643e-5)"><rect
           x="0"
           y="0"
           width="19000"
           height="12700"
           id="rect5087" /></g></g></g></clipPath><clipPath
   clipPathUnits="userSpaceOnUse"
   id="clipPath5095"><g
     id="g5103"
     transform="translate(-6.1040643e-5)"><g
       id="g5101"
       transform="translate(-6.1040643e-5)"><g
         id="g5099"
         transform="translate(-6.1040643e-5)"><rect
           x="0"
           y="0"
           width="19000"
           height="12700"
           id="rect5097" /></g></g></g></clipPath><clipPath
   clipPathUnits="userSpaceOnUse"
   id="clipPath5105"><g
     id="g5113"
     transform="translate(-6.1040643e-5)"><g
       id="g5111"
       transform="translate(-6.1040643e-5)"><g
         id="g5109"
         transform="translate(-6.1040643e-5)"><rect
           x="0"
           y="0"
           width="19000"
           height="12700"
           id="rect5107" /></g></g></g></clipPath><clipPath
   clipPathUnits="userSpaceOnUse"
   id="clipPath5115"><g
     id="g5123"
     transform="translate(-6.1040643e-5)"><g
       id="g5121"
       transform="translate(-6.1040643e-5)"><g
         id="g5119"
         transform="translate(-6.1040643e-5)"><rect
           x="0"
           y="0"
           width="19000"
           height="12700"
           id="rect5117" /></g></g></g></clipPath><clipPath
   clipPathUnits="userSpaceOnUse"
   id="clipPath5125"><g
     id="g5133"
     transform="translate(-6.1040643e-5)"><g
       id="g5131"
       transform="translate(-6.1040643e-5)"><g
         id="g5129"
         transform="translate(-6.1040643e-5)"><rect
           x="0"
           y="0"
           width="19000"
           height="12700"
           id="rect5127" /></g></g></g></clipPath><clipPath
   clipPathUnits="userSpaceOnUse"
   id="clipPath5135"><g
     id="g5143"
     transform="translate(-6.1040643e-5)"><g
       id="g5141"
       transform="translate(-6.1040643e-5)"><g
         id="g5139"
         transform="translate(-6.1040643e-5)"><rect
           x="0"
           y="0"
           width="19000"
           height="12700"
           id="rect5137" /></g></g></g></clipPath><clipPath
   clipPathUnits="userSpaceOnUse"
   id="clipPath5145"><g
     id="g5153"
     transform="translate(-6.1040643e-5)"><g
       id="g5151"
       transform="translate(-6.1040643e-5)"><g
         id="g5149"
         transform="translate(-6.1040643e-5)"><rect
           x="0"
           y="0"
           width="19000"
           height="12700"
           id="rect5147" /></g></g></g></clipPath><clipPath
   clipPathUnits="userSpaceOnUse"
   id="clipPath5155"><g
     id="g5163"
     transform="translate(-6.1040643e-5)"><g
       id="g5161"
       transform="translate(-6.1040643e-5)"><g
         id="g5159"
         transform="translate(-6.1040643e-5)"><rect
           x="0"
           y="0"
           width="19000"
           height="12700"
           id="rect5157" /></g></g></g></clipPath><clipPath
   clipPathUnits="userSpaceOnUse"
   id="clipPath5165"><g
     id="g5173"
     transform="translate(-6.1040643e-5)"><g
       id="g5171"
       transform="translate(-6.1040643e-5)"><g
         id="g5169"
         transform="translate(-6.1040643e-5)"><rect
           x="0"
           y="0"
           width="19000"
           height="12700"
           id="rect5167" /></g></g></g></clipPath><clipPath
   clipPathUnits="userSpaceOnUse"
   id="clipPath5175"><g
     id="g5183"
     transform="translate(-6.1040643e-5)"><g
       id="g5181"
       transform="translate(-6.1040643e-5)"><g
         id="g5179"
         transform="translate(-6.1040643e-5)"><rect
           x="0"
           y="0"
           width="19000"
           height="12700"
           id="rect5177" /></g></g></g></clipPath><clipPath
   clipPathUnits="userSpaceOnUse"
   id="clipPath5185"><g
     id="g5193"
     transform="translate(-6.1040643e-5)"><g
       id="g5191"
       transform="translate(-6.1040643e-5)"><g
         id="g5189"
         transform="translate(-6.1040643e-5)"><rect
           x="0"
           y="0"
           width="19000"
           height="12700"
           id="rect5187" /></g></g></g></clipPath><clipPath
   clipPathUnits="userSpaceOnUse"
   id="clipPath5195"><g
     id="g5203"
     transform="translate(-6.1040643e-5)"><g
       id="g5201"
       transform="translate(-6.1040643e-5)"><g
         id="g5199"
         transform="translate(-6.1040643e-5)"><rect
           x="0"
           y="0"
           width="19000"
           height="12700"
           id="rect5197" /></g></g></g></clipPath><clipPath
   clipPathUnits="userSpaceOnUse"
   id="clipPath5205"><g
     id="g5213"
     transform="translate(-6.1040643e-5)"><g
       id="g5211"
       transform="translate(-6.1040643e-5)"><g
         id="g5209"
         transform="translate(-6.1040643e-5)"><rect
           x="0"
           y="0"
           width="19000"
           height="12700"
           id="rect5207" /></g></g></g></clipPath><clipPath
   clipPathUnits="userSpaceOnUse"
   id="clipPath5215"><g
     id="g5223"
     transform="translate(-6.1040643e-5)"><g
       id="g5221"
       transform="translate(-6.1040643e-5)"><g
         id="g5219"
         transform="translate(-6.1040643e-5)"><rect
           x="0"
           y="0"
           width="19000"
           height="12700"
           id="rect5217" /></g></g></g></clipPath><clipPath
   clipPathUnits="userSpaceOnUse"
   id="clipPath5225"><g
     id="g5233"
     transform="translate(-6.1040643e-5)"><g
       id="g5231"
       transform="translate(-6.1040643e-5)"><g
         id="g5229"
         transform="translate(-6.1040643e-5)"><rect
           x="0"
           y="0"
           width="19000"
           height="12700"
           id="rect5227" /></g></g></g></clipPath><clipPath
   clipPathUnits="userSpaceOnUse"
   id="clipPath5235"><g
     id="g5243"
     transform="translate(-6.1040643e-5)"><g
       id="g5241"
       transform="translate(-6.1040643e-5)"><g
         id="g5239"
         transform="translate(-6.1040643e-5)"><rect
           x="0"
           y="0"
           width="19000"
           height="12700"
           id="rect5237" /></g></g></g></clipPath></defs>
 <defs
   class="TextShapeIndex"
   id="defs812">
  <g
   ooo:slide="id1"
   ooo:id-list="id3 id4 id5 id6 id7 id8 id9 id10 id11 id12 id13 id14 id15 id16 id17 id18 id19 id20 id21 id22 id23 id24 id25 id26 id27 id28 id29 id30 id31 id32 id33 id34 id35 id36 id37 id38 id39 id40 id41 id42 id43 id44 id45 id46 id47 id48 id49 id50 id51 id52 id53 id54 id55 id56 id57 id58 id59 id60 id61 id62 id63 id64 id65 id66 id67 id68 id69 id70 id71 id72 id73 id74 id75 id76 id77 id78 id79 id80"
   id="g810" />
 </defs>
 <defs
   class="EmbeddedBulletChars"
   id="defs844">
  <g
   id="bullet-char-template-57356"
   transform="matrix(4.8828125e-4,0,0,-4.8828125e-4,0,0)">
   <path
   d="M 580,1141 1163,571 580,0 -4,571 Z"
   id="path814" />
  </g>
  <g
   id="bullet-char-template-57354"
   transform="matrix(4.8828125e-4,0,0,-4.8828125e-4,0,0)">
   <path
   d="M 8,1128 H 1137 V 0 H 8 Z"
   id="path817" />
  </g>
  <g
   id="bullet-char-template-10146"
   transform="matrix(4.8828125e-4,0,0,-4.8828125e-4,0,0)">
   <path
   d="M 174,0 602,739 174,1481 1456,739 Z M 1358,739 309,1346 659,739 Z"
   id="path820" />
  </g>
  <g
   id="bullet-char-template-10132"
   transform="matrix(4.8828125e-4,0,0,-4.8828125e-4,0,0)">
   <path
   d="M 2015,739 1276,0 H 717 l 543,543 H 174 v 393 h 1086 l -543,545 h 557 z"
   id="path823" />
  </g>
  <g
   id="bullet-char-template-10007"
   transform="matrix(4.8828125e-4,0,0,-4.8828125e-4,0,0)">
   <path
   d="m 0,-2 c -7,16 -16,29 -25,39 l 381,530 c -94,256 -141,385 -141,387 0,25 13,38 40,38 9,0 21,-2 34,-5 21,4 42,12 65,25 l 27,-13 111,-251 280,301 64,-25 24,25 c 21,-10 41,-24 62,-43 C 886,937 835,863 770,784 769,783 710,716 594,584 L 774,223 c 0,-27 -21,-55 -63,-84 l 16,-20 C 717,90 699,76 672,76 641,76 570,178 457,381 L 164,-76 c -22,-34 -53,-51 -92,-51 -42,0 -63,17 -64,51 -7,9 -10,24 -10,44 0,9 1,19 2,30 z"
   id="path826" />
  </g>
  <g
   id="bullet-char-template-10004"
   transform="matrix(4.8828125e-4,0,0,-4.8828125e-4,0,0)">
   <path
   d="M 285,-33 C 182,-33 111,30 74,156 52,228 41,333 41,471 c 0,78 14,145 41,201 34,71 87,106 158,106 53,0 88,-31 106,-94 l 23,-176 c 8,-64 28,-97 59,-98 l 735,706 c 11,11 33,17 66,17 42,0 63,-15 63,-46 V 965 c 0,-36 -10,-64 -30,-84 L 442,47 C 390,-6 338,-33 285,-33 Z"
   id="path829" />
  </g>
  <g
   id="bullet-char-template-9679"
   transform="matrix(4.8828125e-4,0,0,-4.8828125e-4,0,0)">
   <path
   d="M 813,0 C 632,0 489,54 383,161 276,268 223,411 223,592 c 0,181 53,324 160,431 106,107 249,161 430,161 179,0 323,-54 432,-161 108,-107 162,-251 162,-431 0,-180 -54,-324 -162,-431 C 1136,54 992,0 813,0 Z"
   id="path832" />
  </g>
  <g
   id="bullet-char-template-8226"
   transform="matrix(4.8828125e-4,0,0,-4.8828125e-4,0,0)">
   <path
   d="m 346,457 c -73,0 -137,26 -191,78 -54,51 -81,114 -81,188 0,73 27,136 81,188 54,52 118,78 191,78 73,0 134,-26 185,-79 51,-51 77,-114 77,-187 0,-75 -25,-137 -76,-188 -50,-52 -112,-78 -186,-78 z"
   id="path835" />
  </g>
  <g
   id="bullet-char-template-8211"
   transform="matrix(4.8828125e-4,0,0,-4.8828125e-4,0,0)">
   <path
   d="M -4,459 H 1135 V 606 H -4 Z"
   id="path838" />
  </g>
  <g
   id="bullet-char-template-61548"
   transform="matrix(4.8828125e-4,0,0,-4.8828125e-4,0,0)">
   <path
   d="m 173,740 c 0,163 58,303 173,419 116,115 255,173 419,173 163,0 302,-58 418,-173 116,-116 174,-256 174,-419 0,-163 -58,-303 -174,-418 C 1067,206 928,148 765,148 601,148 462,206 346,322 231,437 173,577 173,740 Z"
   id="path841" />
  </g>
 </defs>
 <rect
   style="fill:#59a659;fill-opacity:1;stroke-width:1233.21"
   id="rect3195"
   width="31750"
   height="21166.666"
   x="3.5527137e-15"
   y="-1.7763568e-15" /><g
   id="g849">
  <g
   id="id2"
   class="Master_Slide">
   <g
   id="bg-id2"
   class="Background" />
   <g
   id="bo-id2"
   class="BackgroundObjects" />
  </g>
 </g>
 <g
   class="SlideGroup"
   id="g1520"
   transform="matrix(1.9679069,0,0,1.8900609,-2820.1156,-2505.5214)">
  <g
   id="g1518">
   <g
   id="container-id1">
    <g
   class="com.sun.star.drawing.ClosedBezierShape"
   id="g867"
   clip-path="url(#clipPath5235)"
   transform="matrix(1.0942629,0,0,1.0942629,-630.68584,-1116.6388)">
        <g
   id="id3">
         <rect
   class="BoundingBox"
   stroke="none"
   fill="none"
   x="3032"
   y="6116"
   width="12452"
   height="5730"
   id="rect856" />
         <path
   fill="#b4c7dc"
   stroke="none"
   d="m 4633,6136 h 1 4995 c 30,0 58,4 86,12 27,7 54,17 80,33 25,14 49,32 68,52 20,20 38,43 52,68 16,26 26,53 34,80 7,27 11,55 11,85 v 1 c 0,29 -4,58 -11,86 -8,27 -18,54 -34,79 -14,26 -32,49 -52,68 -18,19 -40,36 -63,50 h 4082 c 28,0 58,4 84,12 29,8 56,18 80,32 26,15 49,33 69,52 19,21 37,44 53,70 14,24 24,51 32,79 8,27 11,55 11,85 0,29 -3,59 -11,86 -8,28 -18,55 -32,79 -16,26 -34,49 -53,70 -18,16 -38,33 -59,46 h 1039 c 29,0 58,4 86,11 27,8 54,18 79,34 26,14 49,32 68,52 21,19 39,42 53,68 15,26 26,53 33,80 8,28 12,56 12,86 0,29 -4,57 -12,85 -7,27 -18,54 -33,80 -14,26 -32,49 -53,68 -19,20 -42,38 -68,53 -25,15 -52,25 -79,33 -28,8 -57,11 -86,11 -3,0 -5,0 -8,-1 h -464 c 23,14 45,31 65,50 20,21 38,44 53,69 14,25 24,52 32,80 8,27 12,55 12,85 v 1 c 0,28 -4,58 -12,84 -8,29 -18,56 -32,80 -15,26 -33,49 -53,69 -20,19 -43,37 -69,53 -24,14 -51,24 -79,32 -27,8 -57,11 -85,11 h -1 -1812 c 19,13 37,27 52,44 21,19 39,42 53,68 15,26 26,53 33,79 8,27 12,56 12,85 v 1 c 0,30 -4,58 -12,86 -7,27 -18,54 -33,80 -14,25 -32,49 -53,68 -15,16 -32,29 -50,42 h 2487 c 29,0 58,4 86,12 27,7 54,18 79,33 26,14 49,32 68,53 21,19 39,42 53,68 15,25 26,52 33,79 8,27 12,55 12,85 v 1 c 0,29 -4,58 -12,86 -7,27 -18,54 -33,79 -14,26 -32,49 -53,68 -19,21 -42,39 -68,53 -25,15 -52,26 -79,33 -28,8 -57,12 -86,12 -3,0 -5,0 -8,-1 h -1708 c 21,14 41,29 58,47 20,19 38,42 52,68 16,26 26,53 34,79 7,27 11,56 11,85 v 1 c 0,30 -4,58 -11,86 -8,27 -18,54 -34,80 -14,25 -32,49 -52,68 -19,20 -43,38 -68,52 -26,16 -53,26 -80,34 -28,7 -56,11 -86,11 -2,0 -5,0 -7,-1 h -1883 c 24,14 46,31 66,50 19,20 37,44 52,69 14,25 24,52 32,80 8,27 12,55 12,84 v 2 c 0,28 -4,57 -12,84 -8,29 -18,55 -32,80 -15,25 -33,49 -52,69 -21,19 -43,36 -66,50 h 2905 c 28,0 57,4 84,12 29,7 56,18 80,32 26,15 49,33 69,52 19,21 37,44 53,69 14,25 24,52 32,80 7,27 11,55 11,85 v 1 c 0,28 -4,58 -11,85 -8,28 -18,55 -32,79 -16,26 -34,49 -53,69 -20,20 -43,38 -69,53 -24,14 -51,24 -80,32 -27,8 -56,11 -84,11 h -2 -6610 c -30,0 -59,-3 -86,-11 -28,-8 -55,-18 -80,-32 -25,-15 -48,-33 -69,-53 -19,-20 -37,-43 -53,-69 -14,-24 -24,-51 -32,-79 -7,-27 -11,-57 -11,-85 v -1 c 0,-30 4,-58 11,-85 8,-28 18,-55 32,-80 16,-25 34,-48 53,-69 21,-19 42,-36 65,-50 H 4429 c -29,0 -59,-4 -86,-11 -28,-8 -55,-18 -79,-32 -26,-16 -49,-34 -69,-53 -20,-20 -38,-44 -53,-69 -14,-25 -24,-51 -32,-80 -8,-27 -12,-56 -12,-84 v -2 c 0,-29 4,-57 12,-84 8,-28 18,-55 32,-80 15,-25 33,-49 53,-69 20,-19 43,-37 69,-53 13,-7 27,-14 42,-20 -14,-5 -28,-12 -42,-21 -26,-14 -49,-32 -68,-52 -21,-19 -39,-43 -53,-68 -15,-26 -25,-53 -33,-80 -8,-28 -12,-56 -12,-86 v -1 c 0,-29 4,-58 12,-85 8,-26 18,-53 33,-79 14,-26 32,-49 53,-68 17,-18 36,-33 56,-46 h -869 c -30,0 -58,-4 -86,-12 -27,-7 -54,-18 -80,-33 -25,-14 -48,-32 -68,-53 -20,-19 -38,-42 -52,-68 -16,-25 -26,-52 -33,-79 -8,-28 -12,-57 -12,-86 v -1 c 0,-30 4,-58 12,-85 7,-27 17,-54 33,-79 14,-26 32,-49 52,-68 20,-21 43,-39 68,-53 26,-15 53,-26 80,-33 28,-8 56,-12 86,-12 h 154 c -18,-13 -35,-26 -50,-42 -21,-19 -39,-43 -53,-68 -15,-26 -25,-53 -33,-80 -8,-28 -12,-56 -12,-86 v -1 c 0,-29 4,-58 12,-85 8,-26 18,-53 33,-79 14,-26 32,-49 53,-68 19,-21 42,-38 68,-53 25,-15 52,-25 79,-33 28,-8 57,-11 86,-11 h 360 c -19,-13 -37,-27 -53,-43 -20,-20 -38,-43 -53,-69 -14,-24 -24,-51 -32,-80 -8,-26 -12,-56 -12,-84 v -1 c 0,-30 4,-58 12,-85 8,-28 18,-55 32,-80 15,-25 33,-48 53,-69 19,-18 41,-34 64,-49 h -371 c -29,0 -58,-3 -86,-11 -27,-8 -54,-18 -79,-33 -26,-15 -49,-33 -68,-53 -21,-19 -39,-42 -53,-68 -15,-26 -25,-53 -33,-80 -8,-28 -12,-56 -12,-85 v -2 c 0,-29 4,-57 12,-84 8,-27 18,-54 33,-80 14,-26 32,-49 53,-68 19,-20 42,-38 68,-52 25,-16 52,-26 79,-34 27,-7 55,-11 85,-11 h 1 1513 c -20,-13 -41,-30 -59,-46 -19,-21 -37,-44 -52,-70 -14,-24 -25,-51 -32,-79 -8,-27 -12,-57 -12,-86 0,-30 4,-58 12,-85 7,-28 18,-55 32,-79 15,-26 33,-49 52,-70 20,-18 41,-34 64,-48 h -604 c -29,0 -57,-4 -85,-12 -27,-8 -54,-18 -80,-33 -26,-14 -49,-32 -68,-53 -20,-19 -38,-42 -52,-68 -16,-25 -26,-52 -34,-79 -8,-28 -11,-57 -11,-86 v -1 c 0,-30 3,-58 11,-85 8,-27 18,-54 34,-80 14,-25 32,-48 52,-68 19,-20 42,-38 68,-52 26,-16 53,-26 80,-33 26,-8 55,-12 84,-12 z m -68,5028 h 2 975 c 30,0 59,4 86,12 29,8 55,18 80,32 25,15 49,33 69,52 19,21 37,44 53,70 14,24 24,51 32,79 7,27 11,57 11,85 0,29 -4,59 -11,86 -8,28 -18,55 -32,79 -16,26 -34,49 -53,70 -20,19 -44,37 -69,52 -25,14 -51,24 -80,32 -27,8 -56,12 -86,12 h -975 c -30,0 -59,-4 -86,-12 -29,-8 -56,-18 -80,-32 -26,-15 -49,-33 -69,-52 -19,-21 -37,-44 -53,-70 -14,-24 -24,-51 -32,-79 -8,-27 -11,-57 -11,-86 0,-30 3,-58 11,-85 8,-28 18,-55 32,-79 16,-26 34,-49 53,-70 20,-19 43,-37 69,-52 24,-14 51,-24 80,-32 27,-8 55,-12 84,-12 z m 1758,0 h 335 c 28,0 58,4 85,12 28,8 55,18 79,32 26,15 49,33 69,52 20,21 38,44 53,70 14,24 24,51 32,79 8,27 12,55 12,85 0,29 -4,59 -12,86 -8,28 -18,55 -32,79 -15,26 -33,49 -53,70 -20,19 -43,37 -69,52 -24,14 -51,24 -79,32 -27,8 -57,12 -85,12 h -1 -334 c -28,0 -57,-4 -84,-12 -28,-8 -55,-18 -80,-32 -25,-15 -48,-33 -69,-52 -19,-21 -37,-44 -53,-70 -14,-24 -24,-51 -32,-79 -7,-27 -11,-57 -11,-86 0,-30 4,-58 11,-85 8,-28 18,-55 32,-79 16,-26 34,-49 53,-70 21,-19 44,-37 69,-52 25,-14 52,-24 80,-32 27,-8 55,-12 84,-12 z"
   id="path858" />
         <path
   fill="none"
   stroke="#706e0c"
   stroke-width="40"
   stroke-linejoin="round"
   d="m 4633,6136 h 1 4995 c 30,0 58,4 86,12 27,7 54,17 80,33 25,14 49,32 68,52 20,20 38,43 52,68 16,26 26,53 34,80 7,27 11,55 11,85 v 1 c 0,29 -4,58 -11,86 -8,27 -18,54 -34,79 -14,26 -32,49 -52,68 -18,19 -40,36 -63,50 h 4082 c 28,0 58,4 84,12 29,8 56,18 80,32 26,15 49,33 69,52 19,21 37,44 53,70 14,24 24,51 32,79 8,27 11,55 11,85 0,29 -3,59 -11,86 -8,28 -18,55 -32,79 -16,26 -34,49 -53,70 -18,16 -38,33 -59,46 h 1039 c 29,0 58,4 86,11 27,8 54,18 79,34 26,14 49,32 68,52 21,19 39,42 53,68 15,26 26,53 33,80 8,28 12,56 12,86 0,29 -4,57 -12,85 -7,27 -18,54 -33,80 -14,26 -32,49 -53,68 -19,20 -42,38 -68,53 -25,15 -52,25 -79,33 -28,8 -57,11 -86,11 -3,0 -5,0 -8,-1 h -464 c 23,14 45,31 65,50 20,21 38,44 53,69 14,25 24,52 32,80 8,27 12,55 12,85 v 1 c 0,28 -4,58 -12,84 -8,29 -18,56 -32,80 -15,26 -33,49 -53,69 -20,19 -43,37 -69,53 -24,14 -51,24 -79,32 -27,8 -57,11 -85,11 h -1 -1812 c 19,13 37,27 52,44 21,19 39,42 53,68 15,26 26,53 33,79 8,27 12,56 12,85 v 1 c 0,30 -4,58 -12,86 -7,27 -18,54 -33,80 -14,25 -32,49 -53,68 -15,16 -32,29 -50,42 h 2487 c 29,0 58,4 86,12 27,7 54,18 79,33 26,14 49,32 68,53 21,19 39,42 53,68 15,25 26,52 33,79 8,27 12,55 12,85 v 1 c 0,29 -4,58 -12,86 -7,27 -18,54 -33,79 -14,26 -32,49 -53,68 -19,21 -42,39 -68,53 -25,15 -52,26 -79,33 -28,8 -57,12 -86,12 -3,0 -5,0 -8,-1 h -1708 c 21,14 41,29 58,47 20,19 38,42 52,68 16,26 26,53 34,79 7,27 11,56 11,85 v 1 c 0,30 -4,58 -11,86 -8,27 -18,54 -34,80 -14,25 -32,49 -52,68 -19,20 -43,38 -68,52 -26,16 -53,26 -80,34 -28,7 -56,11 -86,11 -2,0 -5,0 -7,-1 h -1883 c 24,14 46,31 66,50 19,20 37,44 52,69 14,25 24,52 32,80 8,27 12,55 12,84 v 2 c 0,28 -4,57 -12,84 -8,29 -18,55 -32,80 -15,25 -33,49 -52,69 -21,19 -43,36 -66,50 h 2905 c 28,0 57,4 84,12 29,7 56,18 80,32 26,15 49,33 69,52 19,21 37,44 53,69 14,25 24,52 32,80 7,27 11,55 11,85 v 1 c 0,28 -4,58 -11,85 -8,28 -18,55 -32,79 -16,26 -34,49 -53,69 -20,20 -43,38 -69,53 -24,14 -51,24 -80,32 -27,8 -56,11 -84,11 h -2 -6610 c -30,0 -59,-3 -86,-11 -28,-8 -55,-18 -80,-32 -25,-15 -48,-33 -69,-53 -19,-20 -37,-43 -53,-69 -14,-24 -24,-51 -32,-79 -7,-27 -11,-57 -11,-85 v -1 c 0,-30 4,-58 11,-85 8,-28 18,-55 32,-80 16,-25 34,-48 53,-69 21,-19 42,-36 65,-50 H 4429 c -29,0 -59,-4 -86,-11 -28,-8 -55,-18 -79,-32 -26,-16 -49,-34 -69,-53 -20,-20 -38,-44 -53,-69 -14,-25 -24,-51 -32,-80 -8,-27 -12,-56 -12,-84 v -2 c 0,-29 4,-57 12,-84 8,-28 18,-55 32,-80 15,-25 33,-49 53,-69 20,-19 43,-37 69,-53 13,-7 27,-14 42,-20 -14,-5 -28,-12 -42,-21 -26,-14 -49,-32 -68,-52 -21,-19 -39,-43 -53,-68 -15,-26 -25,-53 -33,-80 -8,-28 -12,-56 -12,-86 v -1 c 0,-29 4,-58 12,-85 8,-26 18,-53 33,-79 14,-26 32,-49 53,-68 17,-18 36,-33 56,-46 h -869 c -30,0 -58,-4 -86,-12 -27,-7 -54,-18 -80,-33 -25,-14 -48,-32 -68,-53 -20,-19 -38,-42 -52,-68 -16,-25 -26,-52 -33,-79 -8,-28 -12,-57 -12,-86 v -1 c 0,-30 4,-58 12,-85 7,-27 17,-54 33,-79 14,-26 32,-49 52,-68 20,-21 43,-39 68,-53 26,-15 53,-26 80,-33 28,-8 56,-12 86,-12 h 154 c -18,-13 -35,-26 -50,-42 -21,-19 -39,-43 -53,-68 -15,-26 -25,-53 -33,-80 -8,-28 -12,-56 -12,-86 v -1 c 0,-29 4,-58 12,-85 8,-26 18,-53 33,-79 14,-26 32,-49 53,-68 19,-21 42,-38 68,-53 25,-15 52,-25 79,-33 28,-8 57,-11 86,-11 h 360 c -19,-13 -37,-27 -53,-43 -20,-20 -38,-43 -53,-69 -14,-24 -24,-51 -32,-80 -8,-26 -12,-56 -12,-84 v -1 c 0,-30 4,-58 12,-85 8,-28 18,-55 32,-80 15,-25 33,-48 53,-69 19,-18 41,-34 64,-49 h -371 c -29,0 -58,-3 -86,-11 -27,-8 -54,-18 -79,-33 -26,-15 -49,-33 -68,-53 -21,-19 -39,-42 -53,-68 -15,-26 -25,-53 -33,-80 -8,-28 -12,-56 -12,-85 v -2 c 0,-29 4,-57 12,-84 8,-27 18,-54 33,-80 14,-26 32,-49 53,-68 19,-20 42,-38 68,-52 25,-16 52,-26 79,-34 27,-7 55,-11 85,-11 h 1 1513 c -20,-13 -41,-30 -59,-46 -19,-21 -37,-44 -52,-70 -14,-24 -25,-51 -32,-79 -8,-27 -12,-57 -12,-86 0,-30 4,-58 12,-85 7,-28 18,-55 32,-79 15,-26 33,-49 52,-70 20,-18 41,-34 64,-48 h -604 c -29,0 -57,-4 -85,-12 -27,-8 -54,-18 -80,-33 -26,-14 -49,-32 -68,-53 -20,-19 -38,-42 -52,-68 -16,-25 -26,-52 -34,-79 -8,-28 -11,-57 -11,-86 v -1 c 0,-30 3,-58 11,-85 8,-27 18,-54 34,-80 14,-25 32,-48 52,-68 19,-20 42,-38 68,-52 26,-16 53,-26 80,-33 26,-8 55,-12 84,-12 z"
   id="path860" />
         <path
   fill="none"
   stroke="#706e0c"
   stroke-width="40"
   stroke-linejoin="round"
   d="m 4565,11164 h 2 975 c 30,0 59,4 86,12 29,8 55,18 80,32 25,15 49,33 69,52 19,21 37,44 53,70 14,24 24,51 32,79 7,27 11,57 11,85 0,29 -4,59 -11,86 -8,28 -18,55 -32,79 -16,26 -34,49 -53,70 -20,19 -44,37 -69,52 -25,14 -51,24 -80,32 -27,8 -56,12 -86,12 h -975 c -30,0 -59,-4 -86,-12 -29,-8 -56,-18 -80,-32 -26,-15 -49,-33 -69,-52 -19,-21 -37,-44 -53,-70 -14,-24 -24,-51 -32,-79 -8,-27 -11,-57 -11,-86 0,-30 3,-58 11,-85 8,-28 18,-55 32,-79 16,-26 34,-49 53,-70 20,-19 43,-37 69,-52 24,-14 51,-24 80,-32 27,-8 55,-12 84,-12 z"
   id="path862" />
         <path
   fill="none"
   stroke="#706e0c"
   stroke-width="40"
   stroke-linejoin="round"
   d="m 6323,11164 h 335 c 28,0 58,4 85,12 28,8 55,18 79,32 26,15 49,33 69,52 20,21 38,44 53,70 14,24 24,51 32,79 8,27 12,55 12,85 0,29 -4,59 -12,86 -8,28 -18,55 -32,79 -15,26 -33,49 -53,70 -20,19 -43,37 -69,52 -24,14 -51,24 -79,32 -27,8 -57,12 -85,12 h -1 -334 c -28,0 -57,-4 -84,-12 -28,-8 -55,-18 -80,-32 -25,-15 -48,-33 -69,-52 -19,-21 -37,-44 -53,-70 -14,-24 -24,-51 -32,-79 -7,-27 -11,-57 -11,-86 0,-30 4,-58 11,-85 8,-28 18,-55 32,-79 16,-26 34,-49 53,-70 21,-19 44,-37 69,-52 25,-14 52,-24 80,-32 27,-8 55,-12 84,-12 z"
   id="path864" />
        </g>
       </g><g
   class="Group"
   id="g987"
   clip-path="url(#clipPath5225)"
   transform="translate(-1543.1978,-172.57002)">
        <g
   class="com.sun.star.drawing.ClosedBezierShape"
   id="g876">
         <g
   id="id4">
          <rect
   class="BoundingBox"
   stroke="none"
   fill="none"
   x="6251"
   y="7299"
   width="415"
   height="692"
   id="rect869" />
          <path
   fill="#468a1a"
   stroke="none"
   d="m 6644,7970 c -61,-223 -137,-464 -373,-651 86,218 110,433 133,651 81,0 161,0 240,0 z"
   id="path871" />
          <path
   fill="none"
   stroke="#302709"
   stroke-width="40"
   stroke-linejoin="round"
   d="m 6644,7970 c -61,-223 -137,-464 -373,-651 86,218 110,433 133,651 z"
   id="path873" />
         </g>
        </g>
        <g
   class="com.sun.star.drawing.ClosedBezierShape"
   id="g885">
         <g
   id="id5">
          <rect
   class="BoundingBox"
   stroke="none"
   fill="none"
   x="6517"
   y="7549"
   width="454"
   height="442"
   id="rect878" />
          <path
   fill="#468a1a"
   stroke="none"
   d="m 6538,7970 c 68,-137 151,-286 412,-401 -95,133 -121,267 -147,401 -88,0 -177,0 -265,0 z"
   id="path880" />
          <path
   fill="none"
   stroke="#302709"
   stroke-width="40"
   stroke-linejoin="round"
   d="m 6538,7970 c 68,-137 151,-286 412,-401 -95,133 -121,267 -147,401 z"
   id="path882" />
         </g>
        </g>
        <g
   class="com.sun.star.drawing.PolyPolygonShape"
   id="g892">
         <g
   id="id6">
          <rect
   class="BoundingBox"
   stroke="none"
   fill="none"
   x="6434"
   y="6325"
   width="236"
   height="1688"
   id="rect887" />
          <path
   fill="#468a1a"
   stroke="none"
   d="m 6669,8008 -21,2 -20,1 -194,-1681 21,-2 20,-3 z"
   id="path889" />
         </g>
        </g>
        <g
   class="com.sun.star.drawing.ClosedBezierShape"
   id="g899">
         <g
   id="id7">
          <rect
   class="BoundingBox"
   stroke="none"
   fill="none"
   x="5999"
   y="6707"
   width="670"
   height="1313"
   id="rect894" />
          <path
   fill="#468a1a"
   stroke="none"
   d="m 6649,8010 -18,8 C 6452,7593 6249,7161 5999,6728 l 18,-11 18,-10 c 251,436 454,869 633,1294 z"
   id="path896" />
         </g>
        </g>
        <g
   class="com.sun.star.drawing.ClosedBezierShape"
   id="g906">
         <g
   id="id8">
          <rect
   class="BoundingBox"
   stroke="none"
   fill="none"
   x="6630"
   y="6331"
   width="247"
   height="1682"
   id="rect901" />
          <path
   fill="#468a1a"
   stroke="none"
   d="m 6651,8011 -21,-3 c 58,-574 104,-1109 204,-1677 l 20,4 21,4 c -100,567 -148,1100 -204,1673 z"
   id="path903" />
         </g>
        </g>
        <g
   class="com.sun.star.drawing.PolyPolygonShape"
   id="g913">
         <g
   id="id9">
          <rect
   class="BoundingBox"
   stroke="none"
   fill="none"
   x="6779"
   y="7222"
   width="424"
   height="815"
   id="rect908" />
          <path
   fill="#468a1a"
   stroke="none"
   d="m 6816,8036 -19,-9 -18,-9 386,-796 18,9 19,9 z"
   id="path910" />
         </g>
        </g>
        <g
   class="com.sun.star.drawing.CustomShape"
   id="g922">
         <g
   id="id10">
          <rect
   class="BoundingBox"
   stroke="none"
   fill="none"
   x="6158"
   y="5150"
   width="460"
   height="1256"
   id="rect915" />
          <path
   fill="#28471f"
   stroke="none"
   d="m 6328,5171 v 0 c -29,3 -57,13 -80,30 -24,17 -43,40 -55,66 -12,27 -17,56 -14,85 l 86,883 v 0 c 3,29 13,57 30,80 17,24 40,43 66,55 27,12 56,17 85,14 v 0 0 c 29,-3 57,-13 81,-30 23,-17 42,-40 54,-66 12,-27 17,-56 14,-85 l -86,-883 v 0 0 c -3,-29 -13,-57 -30,-80 -17,-24 -40,-43 -66,-55 -27,-12 -56,-17 -85,-14 z"
   id="path917" />
          <path
   fill="none"
   stroke="#302709"
   stroke-width="40"
   stroke-linejoin="round"
   d="m 6328,5171 v 0 c -29,3 -57,13 -80,30 -24,17 -43,40 -55,66 -12,27 -17,56 -14,85 l 86,883 v 0 c 3,29 13,57 30,80 17,24 40,43 66,55 27,12 56,17 85,14 v 0 0 c 29,-3 57,-13 81,-30 23,-17 42,-40 54,-66 12,-27 17,-56 14,-85 l -86,-883 v 0 0 c -3,-29 -13,-57 -30,-80 -17,-24 -40,-43 -66,-55 -27,-12 -56,-17 -85,-14 z"
   id="path919" />
         </g>
        </g>
        <g
   class="com.sun.star.drawing.CustomShape"
   id="g931">
         <g
   id="id11">
          <rect
   class="BoundingBox"
   stroke="none"
   fill="none"
   x="5426"
   y="5848"
   width="733"
   height="1017"
   id="rect924" />
          <path
   fill="#28471f"
   stroke="none"
   d="m 5522,5889 v 0 c -23,14 -42,33 -55,56 -13,23 -20,49 -20,76 0,27 7,53 20,76 l 387,670 v 0 c 13,23 33,43 56,56 23,13 49,20 76,20 26,0 53,-7 76,-20 v 0 0 c 23,-14 42,-33 55,-56 13,-23 20,-49 20,-76 0,-27 -7,-53 -20,-76 l -387,-670 v 0 0 c -13,-23 -33,-43 -56,-56 -23,-13 -49,-20 -76,-20 -26,0 -53,7 -76,20 z"
   id="path926" />
          <path
   fill="none"
   stroke="#302709"
   stroke-width="40"
   stroke-linejoin="round"
   d="m 5522,5889 v 0 c -23,14 -42,33 -55,56 -13,23 -20,49 -20,76 0,27 7,53 20,76 l 387,670 v 0 c 13,23 33,43 56,56 23,13 49,20 76,20 26,0 53,-7 76,-20 v 0 0 c 23,-14 42,-33 55,-56 13,-23 20,-49 20,-76 0,-27 -7,-53 -20,-76 l -387,-670 v 0 0 c -13,-23 -33,-43 -56,-56 -23,-13 -49,-20 -76,-20 -26,0 -53,7 -76,20 z"
   id="path928" />
         </g>
        </g>
        <g
   class="com.sun.star.drawing.CustomShape"
   id="g940">
         <g
   id="id12">
          <rect
   class="BoundingBox"
   stroke="none"
   fill="none"
   x="6685"
   y="5383"
   width="510"
   height="1103"
   id="rect933" />
          <path
   fill="#28471f"
   stroke="none"
   d="m 7052,5407 v 0 c -26,-5 -53,-4 -78,4 -26,8 -49,23 -67,43 -18,20 -30,44 -36,71 l -162,755 v 0 c -5,27 -4,54 4,79 9,26 23,48 43,66 20,18 44,31 71,36 h -1 1 c 26,6 53,4 78,-4 26,-8 49,-23 67,-43 18,-20 30,-44 36,-70 l 162,-757 v 1 0 c 5,-26 4,-54 -4,-79 -9,-25 -23,-48 -43,-66 -20,-18 -44,-30 -71,-36 z"
   id="path935" />
          <path
   fill="none"
   stroke="#302709"
   stroke-width="40"
   stroke-linejoin="round"
   d="m 7052,5407 v 0 c -26,-5 -53,-4 -78,4 -26,8 -49,23 -67,43 -18,20 -30,44 -36,71 l -162,755 v 0 c -5,27 -4,54 4,79 9,26 23,48 43,66 20,18 44,31 71,36 h -1 1 c 26,6 53,4 78,-4 26,-8 49,-23 67,-43 18,-20 30,-44 36,-70 l 162,-757 v 1 0 c 5,-26 4,-54 -4,-79 -9,-25 -23,-48 -43,-66 -20,-18 -44,-30 -71,-36 z"
   id="path937" />
         </g>
        </g>
        <g
   class="com.sun.star.drawing.CustomShape"
   id="g949">
         <g
   id="id13">
          <rect
   class="BoundingBox"
   stroke="none"
   fill="none"
   x="7053"
   y="6690"
   width="459"
   height="664"
   id="rect942" />
          <path
   fill="#28471f"
   stroke="none"
   d="m 7414,6721 v 0 c -20,-9 -42,-13 -64,-10 -23,2 -44,10 -62,24 -18,13 -32,30 -41,51 l -163,369 v 0 c -9,20 -12,42 -10,64 3,23 11,44 24,62 13,18 31,32 51,41 v 0 0 c 21,9 43,12 65,10 22,-2 43,-11 61,-24 18,-13 33,-31 42,-51 l 162,-369 v 0 0 c 9,-20 13,-42 10,-65 -2,-22 -10,-43 -23,-61 -13,-18 -31,-32 -52,-41 z"
   id="path944" />
          <path
   fill="none"
   stroke="#302709"
   stroke-width="40"
   stroke-linejoin="round"
   d="m 7414,6721 v 0 c -20,-9 -42,-13 -64,-10 -23,2 -44,10 -62,24 -18,13 -32,30 -41,51 l -163,369 v 0 c -9,20 -12,42 -10,64 3,23 11,44 24,62 13,18 31,32 51,41 v 0 0 c 21,9 43,12 65,10 22,-2 43,-11 61,-24 18,-13 33,-31 42,-51 l 162,-369 v 0 0 c 9,-20 13,-42 10,-65 -2,-22 -10,-43 -23,-61 -13,-18 -31,-32 -52,-41 z"
   id="path946" />
         </g>
        </g>
        <g
   class="com.sun.star.drawing.ClosedBezierShape"
   id="g958">
         <g
   id="id14">
          <rect
   class="BoundingBox"
   stroke="none"
   fill="none"
   x="5747"
   y="6927"
   width="732"
   height="1066"
   id="rect951" />
          <path
   fill="#468a1a"
   stroke="none"
   d="m 6298,7970 c -139,-405 -313,-678 -531,-1023 291,310 516,603 691,1020 -52,-2 -106,7 -160,3 z"
   id="path953" />
          <path
   fill="none"
   stroke="#302709"
   stroke-width="40"
   stroke-linejoin="round"
   d="m 6298,7970 c -139,-405 -313,-678 -531,-1023 291,310 516,603 691,1020 -52,-2 -106,7 -160,3 z"
   id="path955" />
         </g>
        </g>
        <g
   class="com.sun.star.drawing.ClosedBezierShape"
   id="g967">
         <g
   id="id15">
          <rect
   class="BoundingBox"
   stroke="none"
   fill="none"
   x="6535"
   y="6695"
   width="386"
   height="1295"
   id="rect960" />
          <path
   fill="#468a1a"
   stroke="none"
   d="m 6555,7969 c 56,-429 126,-894 345,-1254 -81,418 -101,835 -124,1254 -74,0 -148,0 -221,0 z"
   id="path962" />
          <path
   fill="none"
   stroke="#302709"
   stroke-width="40"
   stroke-linejoin="round"
   d="m 6555,7969 c 56,-429 126,-894 345,-1254 -81,418 -101,835 -124,1254 z"
   id="path964" />
         </g>
        </g>
        <g
   class="com.sun.star.drawing.ClosedBezierShape"
   id="g976">
         <g
   id="id16">
          <rect
   class="BoundingBox"
   stroke="none"
   fill="none"
   x="6854"
   y="7696"
   width="295"
   height="297"
   id="rect969" />
          <path
   fill="#468a1a"
   stroke="none"
   d="m 6874,7972 c 42,-88 92,-183 254,-256 -59,86 -74,172 -91,256 -55,0 -108,0 -163,0 z"
   id="path971" />
          <path
   fill="none"
   stroke="#302709"
   stroke-width="40"
   stroke-linejoin="round"
   d="m 6874,7972 c 42,-88 92,-183 254,-256 -59,86 -74,172 -91,256 z"
   id="path973" />
         </g>
        </g>
        <g
   class="com.sun.star.drawing.CustomShape"
   id="g985">
         <g
   id="id17">
          <rect
   class="BoundingBox"
   stroke="none"
   fill="none"
   x="6075"
   y="7945"
   width="1185"
   height="216"
   id="rect978" />
          <path
   fill="#acb20c"
   stroke="none"
   d="m 7239,8052 v 1 c 0,-16 -4,-31 -12,-44 -7,-14 -18,-25 -32,-32 -13,-8 -28,-12 -44,-12 h -968 v 0 c -16,0 -31,4 -44,12 -14,7 -25,18 -32,32 -8,13 -12,28 -12,44 v -1 1 c 0,15 4,30 12,43 7,14 18,25 32,32 13,8 28,12 44,12 h 969 -1 v 0 c 16,0 31,-4 44,-12 14,-7 25,-18 32,-32 8,-13 12,-28 12,-43 z"
   id="path980" />
          <path
   fill="none"
   stroke="#706e0c"
   stroke-width="40"
   stroke-linejoin="round"
   d="m 7239,8052 v 1 c 0,-16 -4,-31 -12,-44 -7,-14 -18,-25 -32,-32 -13,-8 -28,-12 -44,-12 h -968 v 0 c -16,0 -31,4 -44,12 -14,7 -25,18 -32,32 -8,13 -12,28 -12,44 v -1 1 c 0,15 4,30 12,43 7,14 18,25 32,32 13,8 28,12 44,12 h 969 -1 v 0 c 16,0 31,-4 44,-12 14,-7 25,-18 32,-32 8,-13 12,-28 12,-43 z"
   id="path982" />
         </g>
        </g>
       </g><g
   class="com.sun.star.drawing.ClosedBezierShape"
   id="g996"
   clip-path="url(#clipPath5215)">
        <g
   id="id18">
         <rect
   class="BoundingBox"
   stroke="none"
   fill="none"
   x="5335"
   y="9337"
   width="1641"
   height="908"
   id="rect989" />
         <path
   fill="#468a1a"
   stroke="none"
   d="m 6169,9671 805,-91 c -68,-186 -805,-324 -1179,-186 -216,81 -511,304 -451,530 60,231 406,297 646,315 277,21 633,-48 847,-225 89,-76 156,-226 128,-334 z"
   id="path991" />
         <path
   fill="none"
   stroke="#395511"
   d="m 6169,9671 805,-91 c -68,-186 -805,-324 -1179,-186 -216,81 -511,304 -451,530 60,231 406,297 646,315 277,21 633,-48 847,-225 89,-76 156,-226 128,-334 z"
   id="path993" />
        </g>
       </g><g
   class="com.sun.star.drawing.ClosedBezierShape"
   id="g1005"
   clip-path="url(#clipPath5205)"
   transform="translate(-1856.1904,-2110.6478)">
        <g
   id="id19">
         <rect
   class="BoundingBox"
   stroke="none"
   fill="none"
   x="8427"
   y="9646"
   width="1125"
   height="671"
   id="rect998" />
         <path
   fill="#468a1a"
   stroke="none"
   d="m 8428,10007 c -9,-109 223,-247 373,-295 215,-66 512,-120 669,39 98,103 111,328 11,433 -217,233 -914,97 -953,40 l 403,-265 z"
   id="path1000" />
         <path
   fill="none"
   stroke="#395511"
   d="m 8428,10007 c -9,-109 223,-247 373,-295 215,-66 512,-120 669,39 98,103 111,328 11,433 -217,233 -914,97 -953,40 l 403,-265 z"
   id="path1002" />
        </g>
       </g><g
   class="Group"
   id="g1141"
   clip-path="url(#clipPath5195)"
   transform="translate(1344.9629,89.126017)">
        <g
   class="com.sun.star.drawing.ClosedBezierShape"
   id="g1014">
         <g
   id="id20">
          <rect
   class="BoundingBox"
   stroke="none"
   fill="none"
   x="11621"
   y="9175"
   width="414"
   height="692"
   id="rect1007" />
          <path
   fill="#468a1a"
   stroke="none"
   d="m 11641,9846 c 62,-223 137,-464 373,-651 -84,218 -109,433 -133,651 -81,0 -159,0 -240,0 z"
   id="path1009" />
          <path
   fill="none"
   stroke="#302709"
   stroke-width="40"
   stroke-linejoin="round"
   d="m 11641,9846 c 62,-223 137,-464 373,-651 -84,218 -109,433 -133,651 z"
   id="path1011" />
         </g>
        </g>
        <g
   class="com.sun.star.drawing.ClosedBezierShape"
   id="g1023">
         <g
   id="id21">
          <rect
   class="BoundingBox"
   stroke="none"
   fill="none"
   x="10793"
   y="9425"
   width="453"
   height="442"
   id="rect1016" />
          <path
   fill="#468a1a"
   stroke="none"
   d="m 11225,9846 c -70,-137 -152,-286 -412,-401 95,133 121,267 146,401 89,0 176,0 266,0 z"
   id="path1018" />
          <path
   fill="none"
   stroke="#302709"
   stroke-width="40"
   stroke-linejoin="round"
   d="m 11225,9846 c -70,-137 -152,-286 -412,-401 95,133 121,267 146,401 z"
   id="path1020" />
         </g>
        </g>
        <g
   class="com.sun.star.drawing.PolyPolygonShape"
   id="g1030">
         <g
   id="id22">
          <rect
   class="BoundingBox"
   stroke="none"
   fill="none"
   x="10946"
   y="8210"
   width="382"
   height="1669"
   id="rect1025" />
          <path
   fill="#468a1a"
   stroke="none"
   d="m 11327,9870 -21,4 -20,3 -339,-1658 21,-4 19,-4 z"
   id="path1027" />
         </g>
        </g>
        <g
   class="com.sun.star.drawing.ClosedBezierShape"
   id="g1037">
         <g
   id="id23">
          <rect
   class="BoundingBox"
   stroke="none"
   fill="none"
   x="10740"
   y="8583"
   width="670"
   height="1313"
   id="rect1032" />
          <path
   fill="#468a1a"
   stroke="none"
   d="m 11390,9886 -18,8 c -179,-425 -382,-857 -632,-1290 l 18,-11 18,-10 c 251,436 454,869 633,1294 z"
   id="path1034" />
         </g>
        </g>
        <g
   class="com.sun.star.drawing.ClosedBezierShape"
   id="g1044">
         <g
   id="id24">
          <rect
   class="BoundingBox"
   stroke="none"
   fill="none"
   x="11371"
   y="8207"
   width="247"
   height="1683"
   id="rect1039" />
          <path
   fill="#468a1a"
   stroke="none"
   d="m 11392,9887 -21,-3 c 58,-574 104,-1109 204,-1677 l 20,4 21,4 c -100,567 -148,1100 -204,1673 z"
   id="path1041" />
         </g>
        </g>
        <g
   class="com.sun.star.drawing.PolyPolygonShape"
   id="g1051">
         <g
   id="id25">
          <rect
   class="BoundingBox"
   stroke="none"
   fill="none"
   x="11520"
   y="9099"
   width="424"
   height="815"
   id="rect1046" />
          <path
   fill="#468a1a"
   stroke="none"
   d="m 11557,9913 -19,-9 -18,-9 386,-796 18,9 19,9 z"
   id="path1048" />
         </g>
        </g>
        <g
   class="com.sun.star.drawing.CustomShape"
   id="g1060">
         <g
   id="id26">
          <rect
   class="BoundingBox"
   stroke="none"
   fill="none"
   x="10550"
   y="7113"
   width="578"
   height="1239"
   id="rect1053" />
          <path
   fill="#28471f"
   stroke="none"
   d="m 10698,7138 v 0 c -28,7 -54,21 -75,41 -21,19 -37,45 -45,72 -9,28 -10,58 -3,86 l 205,866 v 0 c 6,28 20,54 40,76 20,21 45,36 73,45 28,8 58,9 86,3 h -1 1 c 28,-7 54,-21 75,-41 22,-20 37,-45 45,-73 9,-27 10,-57 3,-85 l -205,-867 v 1 0 c -6,-29 -20,-55 -40,-76 -20,-21 -45,-37 -73,-45 -28,-8 -57,-9 -86,-3 z"
   id="path1055" />
          <path
   fill="none"
   stroke="#302709"
   stroke-width="40"
   stroke-linejoin="round"
   d="m 10698,7138 v 0 c -28,7 -54,21 -75,41 -21,19 -37,45 -45,72 -9,28 -10,58 -3,86 l 205,866 v 0 c 6,28 20,54 40,76 20,21 45,36 73,45 28,8 58,9 86,3 h -1 1 c 28,-7 54,-21 75,-41 22,-20 37,-45 45,-73 9,-27 10,-57 3,-85 l -205,-867 v 1 0 c -6,-29 -20,-55 -40,-76 -20,-21 -45,-37 -73,-45 -28,-8 -57,-9 -86,-3 z"
   id="path1057" />
         </g>
        </g>
        <g
   class="com.sun.star.drawing.CustomShape"
   id="g1069">
         <g
   id="id27">
          <rect
   class="BoundingBox"
   stroke="none"
   fill="none"
   x="10168"
   y="7725"
   width="733"
   height="1017"
   id="rect1062" />
          <path
   fill="#28471f"
   stroke="none"
   d="m 10263,7766 h 1 c -23,13 -42,32 -56,55 -13,23 -20,50 -20,76 0,27 7,53 20,76 l 388,671 v 1 c 14,23 33,42 56,55 23,14 49,21 76,21 26,0 52,-7 76,-21 l -1,1 1,-1 c 23,-13 42,-32 55,-55 13,-23 20,-49 20,-76 0,-26 -7,-52 -20,-75 l -388,-673 v 1 0 c -13,-23 -33,-43 -56,-56 -23,-13 -49,-20 -75,-20 -27,0 -53,7 -76,20 z"
   id="path1064" />
          <path
   fill="none"
   stroke="#302709"
   stroke-width="40"
   stroke-linejoin="round"
   d="m 10263,7766 h 1 c -23,13 -42,32 -56,55 -13,23 -20,50 -20,76 0,27 7,53 20,76 l 388,671 v 1 c 14,23 33,42 56,55 23,14 49,21 76,21 26,0 52,-7 76,-21 l -1,1 1,-1 c 23,-13 42,-32 55,-55 13,-23 20,-49 20,-76 0,-26 -7,-52 -20,-75 l -388,-673 v 1 0 c -13,-23 -33,-43 -56,-56 -23,-13 -49,-20 -75,-20 -27,0 -53,7 -76,20 z"
   id="path1066" />
         </g>
        </g>
        <g
   class="com.sun.star.drawing.CustomShape"
   id="g1078">
         <g
   id="id28">
          <rect
   class="BoundingBox"
   stroke="none"
   fill="none"
   x="11426"
   y="7259"
   width="510"
   height="1103"
   id="rect1071" />
          <path
   fill="#28471f"
   stroke="none"
   d="m 11793,7283 v 0 c -26,-5 -53,-4 -78,4 -26,8 -49,23 -67,43 -18,20 -30,44 -36,71 l -162,755 v 0 c -5,27 -4,54 4,79 9,26 23,48 43,66 20,18 44,31 71,36 h -1 1 c 26,6 53,4 78,-4 26,-8 49,-23 67,-43 18,-20 30,-44 36,-70 l 162,-757 v 1 0 c 5,-26 4,-54 -4,-79 -9,-25 -23,-48 -43,-66 -20,-18 -44,-30 -71,-36 z"
   id="path1073" />
          <path
   fill="none"
   stroke="#302709"
   stroke-width="40"
   stroke-linejoin="round"
   d="m 11793,7283 v 0 c -26,-5 -53,-4 -78,4 -26,8 -49,23 -67,43 -18,20 -30,44 -36,71 l -162,755 v 0 c -5,27 -4,54 4,79 9,26 23,48 43,66 20,18 44,31 71,36 h -1 1 c 26,6 53,4 78,-4 26,-8 49,-23 67,-43 18,-20 30,-44 36,-70 l 162,-757 v 1 0 c 5,-26 4,-54 -4,-79 -9,-25 -23,-48 -43,-66 -20,-18 -44,-30 -71,-36 z"
   id="path1075" />
         </g>
        </g>
        <g
   class="com.sun.star.drawing.CustomShape"
   id="g1087">
         <g
   id="id29">
          <rect
   class="BoundingBox"
   stroke="none"
   fill="none"
   x="11794"
   y="8566"
   width="459"
   height="664"
   id="rect1080" />
          <path
   fill="#28471f"
   stroke="none"
   d="m 12155,8597 v 0 c -20,-9 -42,-13 -64,-10 -23,2 -44,10 -62,24 -18,13 -32,30 -41,51 l -163,369 v 0 c -9,20 -12,42 -10,64 3,23 11,44 24,62 13,18 31,32 51,41 v 0 0 c 21,9 43,12 65,10 22,-2 43,-11 61,-24 18,-13 33,-31 42,-51 l 162,-369 v 0 0 c 9,-20 13,-42 10,-65 -2,-22 -10,-43 -23,-61 -13,-18 -31,-32 -52,-41 z"
   id="path1082" />
          <path
   fill="none"
   stroke="#302709"
   stroke-width="40"
   stroke-linejoin="round"
   d="m 12155,8597 v 0 c -20,-9 -42,-13 -64,-10 -23,2 -44,10 -62,24 -18,13 -32,30 -41,51 l -163,369 v 0 c -9,20 -12,42 -10,64 3,23 11,44 24,62 13,18 31,32 51,41 v 0 0 c 21,9 43,12 65,10 22,-2 43,-11 61,-24 18,-13 33,-31 42,-51 l 162,-369 v 0 0 c 9,-20 13,-42 10,-65 -2,-22 -10,-43 -23,-61 -13,-18 -31,-32 -52,-41 z"
   id="path1084" />
         </g>
        </g>
        <g
   class="com.sun.star.drawing.ClosedBezierShape"
   id="g1096">
         <g
   id="id30">
          <rect
   class="BoundingBox"
   stroke="none"
   fill="none"
   x="11595"
   y="9572"
   width="295"
   height="297"
   id="rect1089" />
          <path
   fill="#468a1a"
   stroke="none"
   d="m 11615,9848 c 42,-88 92,-183 254,-256 -59,86 -74,172 -91,256 -55,0 -108,0 -163,0 z"
   id="path1091" />
          <path
   fill="none"
   stroke="#302709"
   stroke-width="40"
   stroke-linejoin="round"
   d="m 11615,9848 c 42,-88 92,-183 254,-256 -59,86 -74,172 -91,256 z"
   id="path1093" />
         </g>
        </g>
        <g
   class="com.sun.star.drawing.PolyPolygonShape"
   id="g1103">
         <g
   id="id31">
          <rect
   class="BoundingBox"
   stroke="none"
   fill="none"
   x="10853"
   y="9068"
   width="424"
   height="815"
   id="rect1098" />
          <path
   fill="#468a1a"
   stroke="none"
   d="m 11239,9882 19,-9 18,-9 -386,-796 -18,9 -19,9 z"
   id="path1100" />
         </g>
        </g>
        <g
   class="com.sun.star.drawing.CustomShape"
   id="g1112">
         <g
   id="id32">
          <rect
   class="BoundingBox"
   stroke="none"
   fill="none"
   x="10416"
   y="8556"
   width="532"
   height="622"
   id="rect1105" />
          <path
   fill="#28471f"
   stroke="none"
   d="m 10488,8601 v 0 c 18,-13 39,-21 61,-24 22,-2 44,1 64,10 21,9 38,23 51,41 l 238,328 v 0 c 13,18 21,39 24,61 2,22 -2,44 -11,64 -9,21 -23,38 -41,51 v 0 0 c -17,13 -38,21 -60,24 -22,2 -45,-2 -65,-11 -20,-9 -37,-23 -50,-41 l -239,-327 v 0 0 c -13,-18 -21,-39 -23,-61 -2,-22 1,-44 10,-65 9,-20 23,-37 41,-50 z"
   id="path1107" />
          <path
   fill="none"
   stroke="#302709"
   stroke-width="40"
   stroke-linejoin="round"
   d="m 10488,8601 v 0 c 18,-13 39,-21 61,-24 22,-2 44,1 64,10 21,9 38,23 51,41 l 238,328 v 0 c 13,18 21,39 24,61 2,22 -2,44 -11,64 -9,21 -23,38 -41,51 v 0 0 c -17,13 -38,21 -60,24 -22,2 -45,-2 -65,-11 -20,-9 -37,-23 -50,-41 l -239,-327 v 0 0 c -13,-18 -21,-39 -23,-61 -2,-22 1,-44 10,-65 9,-20 23,-37 41,-50 z"
   id="path1109" />
         </g>
        </g>
        <g
   class="com.sun.star.drawing.ClosedBezierShape"
   id="g1121">
         <g
   id="id33">
          <rect
   class="BoundingBox"
   stroke="none"
   fill="none"
   x="10996"
   y="8571"
   width="386"
   height="1295"
   id="rect1114" />
          <path
   fill="#468a1a"
   stroke="none"
   d="m 11361,9845 c -56,-429 -126,-894 -345,-1254 81,418 101,835 123,1254 74,0 148,0 222,0 z"
   id="path1116" />
          <path
   fill="none"
   stroke="#302709"
   stroke-width="40"
   stroke-linejoin="round"
   d="m 11361,9845 c -56,-429 -126,-894 -345,-1254 81,418 101,835 123,1254 z"
   id="path1118" />
         </g>
        </g>
        <g
   class="com.sun.star.drawing.ClosedBezierShape"
   id="g1130">
         <g
   id="id34">
          <rect
   class="BoundingBox"
   stroke="none"
   fill="none"
   x="11311"
   y="8803"
   width="732"
   height="1066"
   id="rect1123" />
          <path
   fill="#468a1a"
   stroke="none"
   d="m 11490,9846 c 140,-405 314,-678 532,-1023 -292,310 -517,603 -691,1020 51,-2 106,7 159,3 z"
   id="path1125" />
          <path
   fill="none"
   stroke="#302709"
   stroke-width="40"
   stroke-linejoin="round"
   d="m 11490,9846 c 140,-405 314,-678 532,-1023 -292,310 -517,603 -691,1020 51,-2 106,7 159,3 z"
   id="path1127" />
         </g>
        </g>
        <g
   class="com.sun.star.drawing.CustomShape"
   id="g1139">
         <g
   id="id35">
          <rect
   class="BoundingBox"
   stroke="none"
   fill="none"
   x="10816"
   y="9820"
   width="1185"
   height="217"
   id="rect1132" />
          <path
   fill="#acb20c"
   stroke="none"
   d="m 11980,9927 v 1 c 0,-15 -4,-31 -12,-44 -8,-13 -19,-24 -32,-32 -13,-8 -29,-12 -44,-12 h -968 v 0 c -15,0 -31,4 -44,12 -13,8 -24,19 -32,32 -8,13 -12,29 -12,44 v -1 1 c 0,15 4,31 12,44 8,13 19,24 32,32 13,8 29,12 44,12 l 969,-1 -1,1 v 0 c 15,0 31,-4 44,-12 13,-8 24,-19 32,-32 8,-13 12,-29 12,-44 z"
   id="path1134" />
          <path
   fill="none"
   stroke="#706e0c"
   stroke-width="40"
   stroke-linejoin="round"
   d="m 11980,9927 v 1 c 0,-15 -4,-31 -12,-44 -8,-13 -19,-24 -32,-32 -13,-8 -29,-12 -44,-12 h -968 v 0 c -15,0 -31,4 -44,12 -13,8 -24,19 -32,32 -8,13 -12,29 -12,44 v -1 1 c 0,15 4,31 12,44 8,13 19,24 32,32 13,8 29,12 44,12 l 969,-1 -1,1 v 0 c 15,0 31,-4 44,-12 13,-8 24,-19 32,-32 8,-13 12,-29 12,-44 z"
   id="path1136" />
         </g>
        </g>
       </g><g
   class="com.sun.star.drawing.ClosedBezierShape"
   id="g1150"
   clip-path="url(#clipPath5185)">
        <g
   id="id36">
         <rect
   class="BoundingBox"
   stroke="none"
   fill="none"
   x="14157"
   y="10216"
   width="659"
   height="516"
   id="rect1143" />
         <path
   fill="#999999"
   stroke="none"
   d="m 14794,10376 c -1,-42 -49,-76 -87,-95 -96,-47 -220,-59 -322,-27 -82,26 -177,82 -200,166 -25,89 19,211 96,261 81,53 203,27 287,-18 108,-56 231,-165 226,-287 z"
   id="path1145" />
         <path
   fill="none"
   stroke="#666666"
   stroke-width="40"
   stroke-linejoin="round"
   d="m 14794,10376 c -1,-42 -49,-76 -87,-95 -96,-47 -220,-59 -322,-27 -82,26 -177,82 -200,166 -25,89 19,211 96,261 81,53 203,27 287,-18 108,-56 231,-165 226,-287 z"
   id="path1147" />
        </g>
       </g><g
   class="com.sun.star.drawing.ClosedBezierShape"
   id="g1159"
   clip-path="url(#clipPath5175)"
   transform="translate(533.52822,-311.08149)">
        <g
   id="id37">
         <rect
   class="BoundingBox"
   stroke="none"
   fill="none"
   x="14709"
   y="5144"
   width="812"
   height="1853"
   id="rect1152" />
         <path
   fill="#5eb91e"
   stroke="none"
   d="m 14896,6991 c 190,0 353,-6 543,-6 -22,-293 5,-586 75,-904 -92,102 -186,203 -278,304 -33,-199 4,-413 72,-631 -84,52 -162,125 -218,207 -49,-259 -59,-531 -12,-812 -240,244 -217,695 -199,1114 -68,-51 -83,-34 -165,-48 124,237 171,487 182,776 z"
   id="path1154" />
         <path
   fill="none"
   stroke="#468a1a"
   stroke-width="10"
   stroke-linejoin="round"
   d="m 14896,6991 c 190,0 353,-6 543,-6 -22,-293 5,-586 75,-904 -92,102 -186,203 -278,304 -33,-199 4,-413 72,-631 -84,52 -162,125 -218,207 -49,-259 -59,-531 -12,-812 -240,244 -217,695 -199,1114 -68,-51 -83,-34 -165,-48 124,237 171,487 182,776 z"
   id="path1156" />
        </g>
       </g><g
   class="com.sun.star.drawing.OpenBezierShape"
   id="g1166"
   clip-path="url(#clipPath5165)"
   transform="translate(533.52822,-311.08149)">
        <g
   id="id38">
         <rect
   class="BoundingBox"
   stroke="none"
   fill="none"
   x="15213"
   y="6060"
   width="305"
   height="612"
   id="rect1161" />
         <path
   fill="none"
   stroke="#395511"
   stroke-width="10"
   stroke-linejoin="round"
   d="m 15219,6666 c 22,-245 152,-401 293,-601 -48,194 -69,371 -85,539"
   id="path1163" />
        </g>
       </g><g
   class="com.sun.star.drawing.OpenBezierShape"
   id="g1173"
   clip-path="url(#clipPath5155)"
   transform="translate(533.52822,-311.08149)">
        <g
   id="id39">
         <rect
   class="BoundingBox"
   stroke="none"
   fill="none"
   x="15009"
   y="5743"
   width="305"
   height="877"
   id="rect1168" />
         <path
   fill="none"
   stroke="#395511"
   stroke-width="10"
   stroke-linejoin="round"
   d="m 15015,6613 c -9,-379 104,-631 293,-865 -73,219 -95,407 -74,647"
   id="path1170" />
        </g>
       </g><g
   class="com.sun.star.drawing.OpenBezierShape"
   id="g1180"
   clip-path="url(#clipPath5145)"
   transform="translate(533.52822,-311.08149)">
        <g
   id="id40">
         <rect
   class="BoundingBox"
   stroke="none"
   fill="none"
   x="14697"
   y="6206"
   width="253"
   height="675"
   id="rect1175" />
         <path
   fill="none"
   stroke="#395511"
   stroke-width="10"
   stroke-linejoin="round"
   d="m 14944,6462 c -33,-188 -53,-203 -241,-251 114,204 151,413 182,664"
   id="path1177" />
        </g>
       </g><g
   class="com.sun.star.drawing.OpenBezierShape"
   id="g1187"
   clip-path="url(#clipPath5135)"
   transform="translate(533.52822,-311.08149)">
        <g
   id="id41">
         <rect
   class="BoundingBox"
   stroke="none"
   fill="none"
   x="14864"
   y="5137"
   width="221"
   height="910"
   id="rect1182" />
         <path
   fill="none"
   stroke="#395511"
   stroke-width="10"
   stroke-linejoin="round"
   d="m 15052,5711 c -6,-182 -21,-381 27,-569 -205,256 -209,568 -210,898"
   id="path1184" />
        </g>
       </g><g
   class="com.sun.star.drawing.ClosedBezierShape"
   id="g1196"
   clip-path="url(#clipPath5125)"
   transform="translate(1298.9623,-168.37829)">
        <g
   id="id42">
         <rect
   class="BoundingBox"
   stroke="none"
   fill="none"
   x="12393"
   y="7385"
   width="1103"
   height="684"
   id="rect1189" />
         <path
   fill="#468a1a"
   stroke="none"
   d="m 12394,7616 c 15,-109 262,-210 416,-224 225,-18 527,-6 646,183 73,123 37,345 -83,425 -263,181 -946,-46 -978,-201 l 511,-105 z"
   id="path1191" />
         <path
   fill="none"
   stroke="#395511"
   d="m 12394,7616 c 15,-109 262,-210 416,-224 225,-18 527,-6 646,183 73,123 37,345 -83,425 -263,181 -946,-46 -978,-201 l 511,-105 z"
   id="path1193" />
        </g>
       </g><g
   class="Group"
   id="g1235"
   clip-path="url(#clipPath5115)"
   transform="translate(469.50484,177.76085)">
        <g
   class="com.sun.star.drawing.ClosedBezierShape"
   id="g1205">
         <g
   id="id43">
          <rect
   class="BoundingBox"
   stroke="none"
   fill="none"
   x="12743"
   y="10087"
   width="811"
   height="1854"
   id="rect1198" />
          <path
   fill="#5eb91e"
   stroke="none"
   d="m 12930,11934 c 190,0 353,-6 543,-6 -22,-293 5,-586 75,-904 -92,102 -186,203 -278,304 -33,-199 4,-413 72,-631 -84,52 -162,125 -218,207 -49,-259 -59,-531 -12,-812 -240,244 -217,695 -199,1114 -68,-51 -83,-34 -165,-48 124,237 171,487 182,776 z"
   id="path1200" />
          <path
   fill="none"
   stroke="#468a1a"
   stroke-width="10"
   stroke-linejoin="round"
   d="m 12930,11934 c 190,0 353,-6 543,-6 -22,-293 5,-586 75,-904 -92,102 -186,203 -278,304 -33,-199 4,-413 72,-631 -84,52 -162,125 -218,207 -49,-259 -59,-531 -12,-812 -240,244 -217,695 -199,1114 -68,-51 -83,-34 -165,-48 124,237 171,487 182,776 z"
   id="path1202" />
         </g>
        </g>
        <g
   class="com.sun.star.drawing.OpenBezierShape"
   id="g1212">
         <g
   id="id44">
          <rect
   class="BoundingBox"
   stroke="none"
   fill="none"
   x="13242"
   y="10999"
   width="315"
   height="622"
   id="rect1207" />
          <path
   fill="none"
   stroke="#468a1a"
   stroke-width="20"
   stroke-linejoin="round"
   d="m 13253,11609 c 22,-245 152,-401 293,-600 -48,194 -69,370 -85,539"
   id="path1209" />
         </g>
        </g>
        <g
   class="com.sun.star.drawing.OpenBezierShape"
   id="g1219">
         <g
   id="id45">
          <rect
   class="BoundingBox"
   stroke="none"
   fill="none"
   x="13038"
   y="10681"
   width="315"
   height="887"
   id="rect1214" />
          <path
   fill="none"
   stroke="#468a1a"
   stroke-width="20"
   stroke-linejoin="round"
   d="m 13049,11557 c -10,-379 104,-631 293,-865 -73,219 -95,406 -74,646"
   id="path1216" />
         </g>
        </g>
        <g
   class="com.sun.star.drawing.OpenBezierShape"
   id="g1226">
         <g
   id="id46">
          <rect
   class="BoundingBox"
   stroke="none"
   fill="none"
   x="12735"
   y="11144"
   width="269"
   height="689"
   id="rect1221" />
          <path
   fill="none"
   stroke="#468a1a"
   stroke-width="20"
   stroke-linejoin="round"
   d="m 12993,11373 c -45,-184 -72,-185 -247,-218 115,201 159,400 179,666"
   id="path1223" />
         </g>
        </g>
        <g
   class="com.sun.star.drawing.OpenBezierShape"
   id="g1233">
         <g
   id="id47">
          <rect
   class="BoundingBox"
   stroke="none"
   fill="none"
   x="12893"
   y="10075"
   width="231"
   height="920"
   id="rect1228" />
          <path
   fill="none"
   stroke="#468a1a"
   stroke-width="20"
   stroke-linejoin="round"
   d="m 13086,10655 c -6,-183 -21,-381 27,-569 -205,254 -209,567 -210,898"
   id="path1230" />
         </g>
        </g>
       </g><g
   class="Group"
   id="g1274"
   clip-path="url(#clipPath5105)"
   transform="translate(-64.023387,-244.42117)">
        <g
   class="com.sun.star.drawing.ClosedBezierShape"
   id="g1244">
         <g
   id="id48">
          <rect
   class="BoundingBox"
   stroke="none"
   fill="none"
   x="2865"
   y="5181"
   width="779"
   height="1830"
   id="rect1237" />
          <path
   fill="#5eb91e"
   stroke="none"
   d="m 3089,6994 c -47,-245 -74,-541 -219,-790 90,14 145,35 212,97 2,-380 16,-720 225,-1114 -42,332 -42,587 0,862 41,-37 41,-87 122,-113 -26,213 -40,337 26,531 50,-64 73,-131 149,-193 -27,235 -21,478 34,731 -176,-3 -373,-7 -549,-11 z"
   id="path1239" />
          <path
   fill="none"
   stroke="#468a1a"
   stroke-width="10"
   stroke-linejoin="round"
   d="m 3089,6994 c -47,-245 -74,-541 -219,-790 90,14 145,35 212,97 2,-380 16,-720 225,-1114 -42,332 -42,587 0,862 41,-37 41,-87 122,-113 -26,213 -40,337 26,531 50,-64 73,-131 149,-193 -27,235 -21,478 34,731 -176,-3 -373,-7 -549,-11 z"
   id="path1241" />
         </g>
        </g>
        <g
   class="com.sun.star.drawing.OpenBezierShape"
   id="g1251">
         <g
   id="id49">
          <rect
   class="BoundingBox"
   stroke="none"
   fill="none"
   x="2859"
   y="6189"
   width="373"
   height="606"
   id="rect1246" />
          <path
   fill="none"
   stroke="#468a1a"
   stroke-width="20"
   stroke-linejoin="round"
   d="m 3220,6600 c -62,-266 -162,-336 -350,-401 93,201 150,370 181,585"
   id="path1248" />
         </g>
        </g>
        <g
   class="com.sun.star.drawing.OpenBezierShape"
   id="g1258">
         <g
   id="id50">
          <rect
   class="BoundingBox"
   stroke="none"
   fill="none"
   x="3232"
   y="5924"
   width="216"
   height="578"
   id="rect1253" />
          <path
   fill="none"
   stroke="#468a1a"
   stroke-width="20"
   stroke-linejoin="round"
   d="m 3398,6490 c -3,-194 -7,-373 38,-555 -113,46 -178,218 -193,402"
   id="path1255" />
         </g>
        </g>
        <g
   class="com.sun.star.drawing.OpenBezierShape"
   id="g1265">
         <g
   id="id51">
          <rect
   class="BoundingBox"
   stroke="none"
   fill="none"
   x="3396"
   y="6256"
   width="214"
   height="516"
   id="rect1260" />
          <path
   fill="none"
   stroke="#468a1a"
   stroke-width="20"
   stroke-linejoin="round"
   d="m 3406,6661 c 16,-165 102,-276 193,-395 -23,171 -6,330 -8,495"
   id="path1262" />
         </g>
        </g>
        <g
   class="com.sun.star.drawing.OpenBezierShape"
   id="g1272">
         <g
   id="id52">
          <rect
   class="BoundingBox"
   stroke="none"
   fill="none"
   x="3125"
   y="5175"
   width="199"
   height="728"
   id="rect1267" />
          <path
   fill="none"
   stroke="#468a1a"
   stroke-width="20"
   stroke-linejoin="round"
   d="m 3135,5635 c 49,-158 91,-313 177,-450 -35,237 -50,464 -20,707"
   id="path1269" />
         </g>
        </g>
       </g><g
   class="Group"
   id="g1320"
   clip-path="url(#clipPath5095)"
   transform="translate(-320.11693,-44.440213)">
        <g
   class="com.sun.star.drawing.ClosedBezierShape"
   id="g1283">
         <g
   id="id53">
          <rect
   class="BoundingBox"
   stroke="none"
   fill="none"
   x="2705"
   y="8947"
   width="1568"
   height="2918"
   id="rect1276" />
          <path
   fill="#5eb91e"
   stroke="none"
   d="m 2727,11858 c 159,-634 55,-1263 -17,-1949 239,388 369,714 453,1218 34,-732 14,-1439 -105,-2175 180,404 257,812 356,1271 5,-355 32,-757 113,-1097 17,312 31,583 96,861 142,-362 357,-680 644,-966 -225,674 -509,1394 -548,2080 108,-174 205,-319 417,-434 -156,371 -267,787 -295,1191 -372,0 -742,0 -1114,0 z"
   id="path1278" />
          <path
   fill="none"
   stroke="#468a1a"
   stroke-width="10"
   stroke-linejoin="round"
   d="m 2727,11858 c 159,-634 55,-1263 -17,-1949 239,388 369,714 453,1218 34,-732 14,-1439 -105,-2175 180,404 257,812 356,1271 5,-355 32,-757 113,-1097 17,312 31,583 96,861 142,-362 357,-680 644,-966 -225,674 -509,1394 -548,2080 108,-174 205,-319 417,-434 -156,371 -267,787 -295,1191 z"
   id="path1280" />
         </g>
        </g>
        <g
   class="com.sun.star.drawing.OpenBezierShape"
   id="g1290">
         <g
   id="id54">
          <rect
   class="BoundingBox"
   stroke="none"
   fill="none"
   x="2697"
   y="9893"
   width="422"
   height="971"
   id="rect1285" />
          <path
   fill="none"
   stroke="#468a1a"
   stroke-width="20"
   stroke-linejoin="round"
   d="m 2781,10571 c -20,-206 -36,-462 -74,-668 183,296 296,555 400,950"
   id="path1287" />
         </g>
        </g>
        <g
   class="com.sun.star.drawing.OpenBezierShape"
   id="g1297">
         <g
   id="id55">
          <rect
   class="BoundingBox"
   stroke="none"
   fill="none"
   x="3057"
   y="8976"
   width="353"
   height="2319"
   id="rect1292" />
          <path
   fill="none"
   stroke="#468a1a"
   stroke-width="20"
   stroke-linejoin="round"
   d="m 3175,10421 c 0,-470 -35,-953 -108,-1435 300,668 365,1497 317,2298"
   id="path1294" />
         </g>
        </g>
        <g
   class="com.sun.star.drawing.OpenBezierShape"
   id="g1304">
         <g
   id="id56">
          <rect
   class="BoundingBox"
   stroke="none"
   fill="none"
   x="3604"
   y="10658"
   width="545"
   height="644"
   id="rect1299" />
          <path
   fill="none"
   stroke="#468a1a"
   stroke-width="20"
   stroke-linejoin="round"
   d="m 3614,11291 c 111,-233 279,-494 523,-623 -66,163 -126,316 -175,484"
   id="path1301" />
         </g>
        </g>
        <g
   class="com.sun.star.drawing.OpenBezierShape"
   id="g1311">
         <g
   id="id57">
          <rect
   class="BoundingBox"
   stroke="none"
   fill="none"
   x="3504"
   y="9014"
   width="775"
   height="1426"
   id="rect1306" />
          <path
   fill="none"
   stroke="#468a1a"
   stroke-width="20"
   stroke-linejoin="round"
   d="m 3515,10428 c 47,-521 422,-1106 752,-1404 -123,329 -228,655 -327,995"
   id="path1308" />
         </g>
        </g>
        <g
   class="com.sun.star.drawing.OpenBezierShape"
   id="g1318">
         <g
   id="id58">
          <rect
   class="BoundingBox"
   stroke="none"
   fill="none"
   x="3436"
   y="9107"
   width="154"
   height="657"
   id="rect1313" />
          <path
   fill="none"
   stroke="#468a1a"
   stroke-width="20"
   stroke-linejoin="round"
   d="m 3447,9624 c 10,-176 39,-335 76,-507 13,214 30,425 55,636"
   id="path1315" />
         </g>
        </g>
       </g><g
   class="Group"
   id="g1359"
   clip-path="url(#clipPath5085)">
        <g
   class="com.sun.star.drawing.ClosedBezierShape"
   id="g1329">
         <g
   id="id59">
          <rect
   class="BoundingBox"
   stroke="none"
   fill="none"
   x="14671"
   y="7945"
   width="1629"
   height="2291"
   id="rect1322" />
          <path
   fill="#5eb91e"
   stroke="none"
   d="m 15041,10212 c -32,-476 -184,-863 -365,-1287 174,71 319,168 453,287 54,-313 -8,-617 -61,-922 149,242 198,568 252,896 70,-529 278,-896 583,-1236 -124,403 -173,804 -147,1236 133,-175 300,-273 538,-358 -197,466 -301,951 -347,1402 -302,-6 -604,-11 -906,-18 z"
   id="path1324" />
          <path
   fill="none"
   stroke="#468a1a"
   stroke-width="10"
   stroke-linejoin="round"
   d="m 15041,10212 c -32,-476 -184,-863 -365,-1287 174,71 319,168 453,287 54,-313 -8,-617 -61,-922 149,242 198,568 252,896 70,-529 278,-896 583,-1236 -124,403 -173,804 -147,1236 133,-175 300,-273 538,-358 -197,466 -301,951 -347,1402 -302,-6 -604,-11 -906,-18 z"
   id="path1326" />
         </g>
        </g>
        <g
   class="com.sun.star.drawing.OpenBezierShape"
   id="g1336">
         <g
   id="id60">
          <rect
   class="BoundingBox"
   stroke="none"
   fill="none"
   x="14664"
   y="8910"
   width="361"
   height="818"
   id="rect1331" />
          <path
   fill="none"
   stroke="#468a1a"
   stroke-width="20"
   stroke-linejoin="round"
   d="m 14960,9717 c -64,-275 -178,-541 -286,-796 128,56 235,113 340,199"
   id="path1333" />
         </g>
        </g>
        <g
   class="com.sun.star.drawing.OpenBezierShape"
   id="g1343">
         <g
   id="id61">
          <rect
   class="BoundingBox"
   stroke="none"
   fill="none"
   x="15055"
   y="8279"
   width="242"
   height="735"
   id="rect1338" />
          <path
   fill="none"
   stroke="#468a1a"
   stroke-width="20"
   stroke-linejoin="round"
   d="m 15145,8761 c -28,-157 -44,-306 -80,-472 123,183 182,449 220,713"
   id="path1340" />
         </g>
        </g>
        <g
   class="com.sun.star.drawing.OpenBezierShape"
   id="g1350">
         <g
   id="id62">
          <rect
   class="BoundingBox"
   stroke="none"
   fill="none"
   x="15474"
   y="7925"
   width="446"
   height="1098"
   id="rect1345" />
          <path
   fill="none"
   stroke="#468a1a"
   stroke-width="20"
   stroke-linejoin="round"
   d="m 15485,8584 c 106,-240 255,-457 423,-648 -99,339 -161,663 -160,1076"
   id="path1347" />
         </g>
        </g>
        <g
   class="com.sun.star.drawing.OpenBezierShape"
   id="g1357">
         <g
   id="id63">
          <rect
   class="BoundingBox"
   stroke="none"
   fill="none"
   x="15521"
   y="8817"
   width="782"
   height="981"
   id="rect1352" />
          <path
   fill="none"
   stroke="#468a1a"
   stroke-width="20"
   stroke-linejoin="round"
   d="m 16016,9731 c 69,-315 162,-605 276,-903 -369,141 -679,337 -761,958"
   id="path1354" />
         </g>
        </g>
       </g><g
   class="Group"
   id="g1391"
   clip-path="url(#clipPath5075)"
   transform="translate(1045.7153,-288.86139)">
        <g
   class="com.sun.star.drawing.ClosedBezierShape"
   id="g1368">
         <g
   id="id64">
          <rect
   class="BoundingBox"
   stroke="none"
   fill="none"
   x="11182"
   y="5200"
   width="717"
   height="1169"
   id="rect1361" />
          <path
   fill="#5eb91e"
   stroke="none"
   d="m 11309,6354 c -21,-215 -30,-478 -122,-669 101,55 160,146 227,278 59,-272 132,-539 313,-758 -59,286 -95,545 -69,827 73,-165 96,-323 234,-444 -75,275 -75,515 -70,775 -171,-3 -343,-6 -513,-9 z"
   id="path1363" />
          <path
   fill="none"
   stroke="#468a1a"
   stroke-width="10"
   stroke-linejoin="round"
   d="m 11309,6354 c -21,-215 -30,-478 -122,-669 101,55 160,146 227,278 59,-272 132,-539 313,-758 -59,286 -95,545 -69,827 73,-165 96,-323 234,-444 -75,275 -75,515 -70,775 -171,-3 -343,-6 -513,-9 z"
   id="path1365" />
         </g>
        </g>
        <g
   class="com.sun.star.drawing.OpenBezierShape"
   id="g1375">
         <g
   id="id65">
          <rect
   class="BoundingBox"
   stroke="none"
   fill="none"
   x="11477"
   y="5192"
   width="268"
   height="508"
   id="rect1370" />
          <path
   fill="none"
   stroke="#468a1a"
   stroke-width="20"
   stroke-linejoin="round"
   d="m 11657,5657 c 16,-150 37,-303 77,-454 -116,141 -190,288 -246,486"
   id="path1372" />
         </g>
        </g>
        <g
   class="com.sun.star.drawing.OpenBezierShape"
   id="g1382">
         <g
   id="id66">
          <rect
   class="BoundingBox"
   stroke="none"
   fill="none"
   x="11176"
   y="5672"
   width="293"
   height="568"
   id="rect1377" />
          <path
   fill="none"
   stroke="#468a1a"
   stroke-width="20"
   stroke-linejoin="round"
   d="m 11303,6228 c -18,-209 -54,-383 -117,-546 139,86 254,251 271,531"
   id="path1379" />
         </g>
        </g>
        <g
   class="com.sun.star.drawing.OpenBezierShape"
   id="g1389">
         <g
   id="id67">
          <rect
   class="BoundingBox"
   stroke="none"
   fill="none"
   x="11688"
   y="5572"
   width="220"
   height="691"
   id="rect1384" />
          <path
   fill="none"
   stroke="#468a1a"
   stroke-width="20"
   stroke-linejoin="round"
   d="m 11698,5929 c 46,-146 108,-252 198,-347 -59,202 -70,405 -78,669"
   id="path1386" />
         </g>
        </g>
       </g><g
   class="Group"
   id="g1510"
   clip-path="url(#clipPath5065)">
        <g
   class="com.sun.star.drawing.CustomShape"
   id="g1400">
         <g
   id="id68">
          <rect
   class="BoundingBox"
   stroke="none"
   fill="none"
   x="5049"
   y="9013"
   width="871"
   height="872"
   id="rect1393" />
          <path
   fill="#5eb91e"
   stroke="none"
   d="m 5639,9294 c 68,68 127,142 173,214 45,73 74,141 85,199 11,57 2,102 -25,129 -27,27 -72,36 -129,26 -58,-11 -126,-40 -199,-86 -72,-45 -146,-105 -214,-173 -68,-68 -128,-142 -173,-214 -45,-73 -75,-141 -85,-199 -11,-57 -2,-102 25,-129 27,-27 72,-36 129,-25 57,10 126,40 198,85 73,45 147,105 215,173 z"
   id="path1395" />
          <path
   fill="none"
   stroke="#395511"
   stroke-width="35"
   stroke-linejoin="round"
   d="m 5639,9294 c 68,68 127,142 173,214 45,73 74,141 85,199 11,57 2,102 -25,129 -27,27 -72,36 -129,26 -58,-11 -126,-40 -199,-86 -72,-45 -146,-105 -214,-173 -68,-68 -128,-142 -173,-214 -45,-73 -75,-141 -85,-199 -11,-57 -2,-102 25,-129 27,-27 72,-36 129,-25 57,10 126,40 198,85 73,45 147,105 215,173 z"
   id="path1397" />
         </g>
        </g>
        <g
   class="com.sun.star.drawing.CustomShape"
   id="g1409">
         <g
   id="id69">
          <rect
   class="BoundingBox"
   stroke="none"
   fill="none"
   x="5474"
   y="9808"
   width="443"
   height="141"
   id="rect1402" />
          <path
   fill="#5eb91e"
   stroke="none"
   d="m 5544,9826 v 0 c -9,0 -18,2 -26,7 -8,5 -14,11 -19,19 -5,8 -7,17 -7,26 v 0 0 c 0,9 2,18 7,26 5,8 11,14 19,19 8,5 17,7 26,7 h 302 v 0 c 9,0 18,-2 26,-7 8,-5 14,-11 19,-19 5,-8 7,-17 7,-26 v 0 0 0 c 0,-9 -2,-18 -7,-26 -5,-8 -11,-14 -19,-19 -8,-5 -17,-7 -26,-7 z"
   id="path1404" />
          <path
   fill="none"
   stroke="#395511"
   stroke-width="35"
   stroke-linejoin="round"
   d="m 5544,9826 v 0 c -9,0 -18,2 -26,7 -8,5 -14,11 -19,19 -5,8 -7,17 -7,26 v 0 0 c 0,9 2,18 7,26 5,8 11,14 19,19 8,5 17,7 26,7 h 302 v 0 c 9,0 18,-2 26,-7 8,-5 14,-11 19,-19 5,-8 7,-17 7,-26 v 0 0 0 c 0,-9 -2,-18 -7,-26 -5,-8 -11,-14 -19,-19 -8,-5 -17,-7 -26,-7 z"
   id="path1406" />
         </g>
        </g>
        <g
   class="com.sun.star.drawing.CustomShape"
   id="g1418">
         <g
   id="id70">
          <rect
   class="BoundingBox"
   stroke="none"
   fill="none"
   x="6453"
   y="9012"
   width="872"
   height="872"
   id="rect1411" />
          <path
   fill="#5eb91e"
   stroke="none"
   d="m 6734,9293 c -68,68 -128,142 -173,215 -45,72 -75,140 -85,198 -11,57 -2,102 25,129 27,27 72,36 129,25 58,-10 126,-39 199,-85 72,-45 146,-105 214,-173 68,-68 128,-142 173,-214 46,-73 75,-141 85,-199 11,-57 2,-102 -25,-129 -27,-27 -72,-36 -129,-25 -58,10 -126,40 -198,85 -73,45 -147,105 -215,173 z"
   id="path1413" />
          <path
   fill="none"
   stroke="#395511"
   stroke-width="35"
   stroke-linejoin="round"
   d="m 6734,9293 c -68,68 -128,142 -173,215 -45,72 -75,140 -85,198 -11,57 -2,102 25,129 27,27 72,36 129,25 58,-10 126,-39 199,-85 72,-45 146,-105 214,-173 68,-68 128,-142 173,-214 46,-73 75,-141 85,-199 11,-57 2,-102 -25,-129 -27,-27 -72,-36 -129,-25 -58,10 -126,40 -198,85 -73,45 -147,105 -215,173 z"
   id="path1415" />
         </g>
        </g>
        <g
   class="com.sun.star.drawing.CustomShape"
   id="g1427">
         <g
   id="id71">
          <rect
   class="BoundingBox"
   stroke="none"
   fill="none"
   x="6456"
   y="9836"
   width="482"
   height="112"
   id="rect1420" />
          <path
   fill="#5eb91e"
   stroke="none"
   d="m 6882,9854 v 0 c 6,0 13,2 18,5 6,3 11,8 14,14 3,5 5,12 5,19 v -1 1 c 0,6 -2,13 -5,18 -3,6 -8,11 -14,14 -5,3 -12,5 -18,5 h -370 v 0 c -7,0 -14,-2 -19,-5 -6,-3 -11,-8 -14,-14 -3,-5 -5,-12 -5,-18 v -1 1 0 c 0,-7 2,-14 5,-19 3,-6 8,-11 14,-14 5,-3 12,-5 19,-5 z"
   id="path1422" />
          <path
   fill="none"
   stroke="#395511"
   stroke-width="35"
   stroke-linejoin="round"
   d="m 6882,9854 v 0 c 6,0 13,2 18,5 6,3 11,8 14,14 3,5 5,12 5,19 v -1 1 c 0,6 -2,13 -5,18 -3,6 -8,11 -14,14 -5,3 -12,5 -18,5 h -370 v 0 c -7,0 -14,-2 -19,-5 -6,-3 -11,-8 -14,-14 -3,-5 -5,-12 -5,-18 v -1 1 0 c 0,-7 2,-14 5,-19 3,-6 8,-11 14,-14 5,-3 12,-5 19,-5 z"
   id="path1424" />
         </g>
        </g>
        <g
   class="com.sun.star.drawing.ClosedBezierShape"
   id="g1436">
         <g
   id="id72">
          <rect
   class="BoundingBox"
   stroke="none"
   fill="none"
   x="5471"
   y="8402"
   width="1437"
   height="1547"
   id="rect1429" />
          <path
   fill="#5eb91e"
   stroke="none"
   d="m 5623,8629 c 4,-130 73,-203 215,-208 117,9 204,78 204,204 h 22 v -2 h 272 c 0,-125 87,-194 204,-203 142,4 212,78 216,208 4,138 159,475 129,661 -38,229 -216,639 -315,639 h -256 v 2 h -506 c -99,0 -277,-411 -315,-640 -31,-186 125,-523 130,-661 z"
   id="path1431" />
          <path
   fill="none"
   stroke="#395511"
   stroke-width="35"
   stroke-linejoin="round"
   d="m 5623,8629 c 4,-130 73,-203 215,-208 117,9 204,78 204,204 h 22 v -2 h 272 c 0,-125 87,-194 204,-203 142,4 212,78 216,208 4,138 159,475 129,661 -38,229 -216,639 -315,639 h -256 v 2 h -506 c -99,0 -277,-411 -315,-640 -31,-186 125,-523 130,-661 z"
   id="path1433" />
         </g>
        </g>
        <g
   class="com.sun.star.drawing.CustomShape"
   id="g1445">
         <g
   id="id73">
          <rect
   class="BoundingBox"
   stroke="none"
   fill="none"
   x="6390"
   y="8514"
   width="317"
   height="316"
   id="rect1438" />
          <path
   fill="#ffffff"
   stroke="none"
   d="m 6408,8672 c 0,24 6,48 19,69 12,21 30,39 51,51 21,13 45,19 70,19 25,0 49,-6 70,-19 21,-12 39,-30 51,-51 13,-21 19,-45 19,-69 0,-25 -6,-49 -19,-70 -12,-21 -30,-39 -51,-51 -21,-13 -45,-19 -70,-19 -25,0 -49,6 -70,19 -21,12 -39,30 -51,51 -13,21 -19,45 -19,70 z"
   id="path1440" />
          <path
   fill="none"
   stroke="#395511"
   stroke-width="35"
   stroke-linejoin="round"
   d="m 6408,8672 c 0,24 6,48 19,69 12,21 30,39 51,51 21,13 45,19 70,19 25,0 49,-6 70,-19 21,-12 39,-30 51,-51 13,-21 19,-45 19,-69 0,-25 -6,-49 -19,-70 -12,-21 -30,-39 -51,-51 -21,-13 -45,-19 -70,-19 -25,0 -49,6 -70,19 -21,12 -39,30 -51,51 -13,21 -19,45 -19,70 z"
   id="path1442" />
         </g>
        </g>
        <g
   class="com.sun.star.drawing.CustomShape"
   id="g1454">
         <g
   id="id74"
   transform="matrix(0.79363937,0,0,0.78415439,1350.5272,1871.8132)">
          <rect
   class="BoundingBox"
   stroke="none"
   fill="none"
   x="6435"
   y="8563"
   width="219"
   height="218"
   id="rect1447" />
          <path
   fill="#000000"
   stroke="none"
   d="m 6453,8672 c 0,15 4,31 12,45 8,14 20,25 34,33 13,8 29,12 45,12 16,0 32,-4 46,-12 13,-8 25,-19 33,-33 8,-14 12,-30 12,-45 0,-16 -4,-32 -12,-46 -8,-14 -20,-25 -33,-33 -14,-8 -30,-12 -46,-12 -16,0 -32,4 -45,12 -14,8 -26,19 -34,33 -8,14 -12,30 -12,46 z"
   id="path1449" />
          <path
   fill="none"
   stroke="#000000"
   stroke-width="35"
   stroke-linejoin="round"
   d="m 6453,8672 c 0,15 4,31 12,45 8,14 20,25 34,33 13,8 29,12 45,12 16,0 32,-4 46,-12 13,-8 25,-19 33,-33 8,-14 12,-30 12,-45 0,-16 -4,-32 -12,-46 -8,-14 -20,-25 -33,-33 -14,-8 -30,-12 -46,-12 -16,0 -32,4 -45,12 -14,8 -26,19 -34,33 -8,14 -12,30 -12,46 z"
   id="path1451" />
         </g>
        </g>
        <g
   class="com.sun.star.drawing.CustomShape"
   id="g1463">
         <g
   id="id75">
          <rect
   class="BoundingBox"
   stroke="none"
   fill="none"
   x="5669"
   y="8515"
   width="316"
   height="316"
   id="rect1456" />
          <path
   fill="#ffffff"
   stroke="none"
   d="m 5966,8673 c 0,24 -6,48 -19,69 -12,21 -30,39 -51,51 -21,13 -45,19 -69,19 -25,0 -49,-6 -70,-19 -21,-12 -39,-30 -51,-51 -13,-21 -19,-45 -19,-69 0,-25 6,-49 19,-70 12,-21 30,-39 51,-51 21,-13 45,-19 70,-19 24,0 48,6 69,19 21,12 39,30 51,51 13,21 19,45 19,70 z"
   id="path1458" />
          <path
   fill="none"
   stroke="#395511"
   stroke-width="35"
   stroke-linejoin="round"
   d="m 5966,8673 c 0,24 -6,48 -19,69 -12,21 -30,39 -51,51 -21,13 -45,19 -69,19 -25,0 -49,-6 -70,-19 -21,-12 -39,-30 -51,-51 -13,-21 -19,-45 -19,-69 0,-25 6,-49 19,-70 12,-21 30,-39 51,-51 21,-13 45,-19 70,-19 24,0 48,6 69,19 21,12 39,30 51,51 13,21 19,45 19,70 z"
   id="path1460" />
         </g>
        </g>
        <g
   class="com.sun.star.drawing.CustomShape"
   id="g1472"
   transform="matrix(0.75924593,0,0,0.78513998,1402.7536,1863.3735)">
         <g
   id="id76">
          <rect
   class="BoundingBox"
   stroke="none"
   fill="none"
   x="5717"
   y="8563"
   width="219"
   height="219"
   id="rect1465" />
          <path
   fill="#000000"
   stroke="none"
   d="m 5917,8672 c 0,16 -4,32 -12,46 -8,13 -20,25 -33,33 -14,8 -30,12 -46,12 -16,0 -32,-4 -45,-12 -14,-8 -26,-20 -34,-33 -8,-14 -12,-30 -12,-46 0,-16 4,-32 12,-45 8,-14 20,-26 34,-34 13,-8 29,-12 45,-12 16,0 32,4 46,12 13,8 25,20 33,34 8,13 12,29 12,45 z"
   id="path1467" />
          <path
   fill="none"
   stroke="#000000"
   stroke-width="35"
   stroke-linejoin="round"
   d="m 5917,8672 c 0,16 -4,32 -12,46 -8,13 -20,25 -33,33 -14,8 -30,12 -46,12 -16,0 -32,-4 -45,-12 -14,-8 -26,-20 -34,-33 -8,-14 -12,-30 -12,-46 0,-16 4,-32 12,-45 8,-14 20,-26 34,-34 13,-8 29,-12 45,-12 16,0 32,4 46,12 13,8 25,20 33,34 8,13 12,29 12,45 z"
   id="path1469" />
         </g>
        </g>
        <g
   class="com.sun.star.drawing.ClosedBezierShape"
   id="g1481">
         <g
   id="id77">
          <rect
   class="BoundingBox"
   stroke="none"
   fill="none"
   x="5700"
   y="8963"
   width="979"
   height="282"
   id="rect1474" />
          <path
   fill="#000000"
   stroke="none"
   d="m 6618,9069 c -22,24 -49,47 -80,66 -31,19 -66,36 -103,49 -75,28 -160,42 -246,42 -87,0 -171,-14 -246,-42 -38,-13 -72,-30 -103,-49 -31,-19 -58,-42 -80,-66 -17,-19 -31,-38 -42,-59 l 21,-29 c 11,23 26,46 45,66 20,23 44,43 73,61 29,18 61,34 97,46 71,27 152,40 235,40 83,0 164,-13 235,-40 36,-12 68,-28 97,-46 29,-18 53,-38 73,-61 19,-20 34,-43 44,-65 l 22,29 c -11,20 -25,39 -42,58 z"
   id="path1476" />
          <path
   fill="none"
   stroke="#000000"
   stroke-width="35"
   stroke-linejoin="round"
   d="m 6618,9069 c -22,24 -49,47 -80,66 -31,19 -66,36 -103,49 -75,28 -160,42 -246,42 -87,0 -171,-14 -246,-42 -38,-13 -72,-30 -103,-49 -31,-19 -58,-42 -80,-66 -17,-19 -31,-38 -42,-59 l 21,-29 c 11,23 26,46 45,66 20,23 44,43 73,61 29,18 61,34 97,46 71,27 152,40 235,40 83,0 164,-13 235,-40 36,-12 68,-28 97,-46 29,-18 53,-38 73,-61 19,-20 34,-43 44,-65 l 22,29 c -11,20 -25,39 -42,58 z"
   id="path1478" />
         </g>
        </g>
        <g
   class="com.sun.star.drawing.ClosedBezierShape"
   id="g1490">
         <g
   id="id78">
          <rect
   class="BoundingBox"
   stroke="none"
   fill="none"
   x="5881"
   y="9366"
   width="618"
   height="583"
   id="rect1483" />
          <path
   fill="#bbe33d"
   stroke="none"
   d="m 6190,9384 c 50,0 101,14 145,39 44,25 81,62 106,106 26,45 39,95 39,146 v 165 c 0,30 -5,60 -14,89 h -151 v 1 h -401 c -10,-29 -15,-60 -15,-90 v -165 c 0,-51 14,-101 39,-146 25,-44 62,-81 106,-106 45,-25 95,-39 146,-39 z"
   id="path1485" />
          <path
   fill="none"
   stroke="#395511"
   stroke-width="35"
   stroke-linejoin="round"
   d="m 6190,9384 c 50,0 101,14 145,39 44,25 81,62 106,106 26,45 39,95 39,146 v 165 c 0,30 -5,60 -14,89 h -151 v 1 h -401 c -10,-29 -15,-60 -15,-90 v -165 c 0,-51 14,-101 39,-146 25,-44 62,-81 106,-106 45,-25 95,-39 146,-39 z"
   id="path1487" />
         </g>
        </g>
        <g
   class="com.sun.star.drawing.ClosedBezierShape"
   id="g1499">
         <g
   id="id79">
          <rect
   class="BoundingBox"
   stroke="none"
   fill="none"
   x="5612"
   y="9750"
   width="549"
   height="199"
   id="rect1492" />
          <path
   fill="#5eb91e"
   stroke="none"
   d="m 5630,9930 c 0,0 0,-1 0,-2 0,-28 12,-56 35,-80 22,-24 54,-44 93,-59 39,-13 83,-21 129,-21 44,0 89,8 127,21 40,15 72,35 94,59 22,24 34,52 34,80 0,1 0,2 0,2 z"
   id="path1494" />
          <path
   fill="none"
   stroke="#395511"
   stroke-width="35"
   stroke-linejoin="round"
   d="m 5630,9930 v -2 c 0,-28 12,-56 35,-80 22,-24 54,-44 93,-59 39,-13 83,-21 129,-21 44,0 89,8 127,21 40,15 72,35 94,59 22,24 34,52 34,80 v 2 z"
   id="path1496" />
         </g>
        </g>
        <g
   class="com.sun.star.drawing.ClosedBezierShape"
   id="g1508">
         <g
   id="id80">
          <rect
   class="BoundingBox"
   stroke="none"
   fill="none"
   x="6248"
   y="9750"
   width="549"
   height="199"
   id="rect1501" />
          <path
   fill="#5eb91e"
   stroke="none"
   d="m 6266,9930 c 0,0 0,-1 0,-2 0,-28 12,-56 35,-80 22,-24 54,-44 93,-59 39,-13 83,-21 129,-21 44,0 89,8 127,21 40,15 72,35 94,59 22,24 34,52 34,80 0,1 0,2 0,2 z"
   id="path1503" />
          <path
   fill="none"
   stroke="#395511"
   stroke-width="35"
   stroke-linejoin="round"
   d="m 6266,9930 v -2 c 0,-28 12,-56 35,-80 22,-24 54,-44 93,-59 39,-13 83,-21 129,-21 44,0 89,8 127,21 40,15 72,35 94,59 22,24 34,52 34,80 v 2 z"
   id="path1505" />
         </g>
        </g>
       </g>
   
  
   </g>
  </g>
 </g>
</svg>
