<?xml version="1.0" encoding="UTF-8"?>
<!DOCTYPE svg PUBLIC "-//W3C//DTD SVG 1.1//EN" "http://www.w3.org/Graphics/SVG/1.1/DTD/svg11.dtd">
<svg version="1.2" width="190mm" height="127mm" viewBox="0 0 19000 12700" preserveAspectRatio="xMidYMid" fill-rule="evenodd" stroke-width="28.222" stroke-linejoin="round" xmlns="http://www.w3.org/2000/svg" xmlns:ooo="http://xml.openoffice.org/svg/export" xmlns:xlink="http://www.w3.org/1999/xlink" xmlns:presentation="http://sun.com/xmlns/staroffice/presentation" xmlns:smil="http://www.w3.org/2001/SMIL20/" xmlns:anim="urn:oasis:names:tc:opendocument:xmlns:animation:1.0" xml:space="preserve">
 <defs class="ClipPathGroup">
  <clipPath id="presentation_clip_path" clipPathUnits="userSpaceOnUse">
   <rect x="0" y="0" width="19000" height="12700"/>
  </clipPath>
  <clipPath id="presentation_clip_path_shrink" clipPathUnits="userSpaceOnUse">
   <rect x="19" y="12" width="18962" height="12675"/>
  </clipPath>
 </defs>
 <defs class="TextShapeIndex">
  <g ooo:slide="id1" ooo:id-list="id3 id4 id5 id6 id7 id8 id9 id10 id11 id12 id13 id14 id15 id16 id17 id18 id19 id20 id21 id22 id23 id24 id25 id26 id27 id28 id29 id30 id31 id32 id33 id34 id35 id36 id37 id38 id39 id40 id41 id42 id43 id44 id45 id46 id47 id48 id49 id50 id51 id52 id53 id54 id55 id56 id57 id58 id59 id60 id61 id62 id63 id64 id65 id66 id67 id68 id69 id70 id71 id72 id73 id74 id75 id76 id77 id78 id79 id80"/>
 </defs>
 <defs class="EmbeddedBulletChars">
  <g id="bullet-char-template-57356" transform="scale(0.00048828125,-0.00048828125)">
   <path d="M 580,1141 L 1163,571 580,0 -4,571 580,1141 Z"/>
  </g>
  <g id="bullet-char-template-57354" transform="scale(0.00048828125,-0.00048828125)">
   <path d="M 8,1128 L 1137,1128 1137,0 8,0 8,1128 Z"/>
  </g>
  <g id="bullet-char-template-10146" transform="scale(0.00048828125,-0.00048828125)">
   <path d="M 174,0 L 602,739 174,1481 1456,739 174,0 Z M 1358,739 L 309,1346 659,739 1358,739 Z"/>
  </g>
  <g id="bullet-char-template-10132" transform="scale(0.00048828125,-0.00048828125)">
   <path d="M 2015,739 L 1276,0 717,0 1260,543 174,543 174,936 1260,936 717,1481 1274,1481 2015,739 Z"/>
  </g>
  <g id="bullet-char-template-10007" transform="scale(0.00048828125,-0.00048828125)">
   <path d="M 0,-2 C -7,14 -16,27 -25,37 L 356,567 C 262,823 215,952 215,954 215,979 228,992 255,992 264,992 276,990 289,987 310,991 331,999 354,1012 L 381,999 492,748 772,1049 836,1024 860,1049 C 881,1039 901,1025 922,1006 886,937 835,863 770,784 769,783 710,716 594,584 L 774,223 C 774,196 753,168 711,139 L 727,119 C 717,90 699,76 672,76 641,76 570,178 457,381 L 164,-76 C 142,-110 111,-127 72,-127 30,-127 9,-110 8,-76 1,-67 -2,-52 -2,-32 -2,-23 -1,-13 0,-2 Z"/>
  </g>
  <g id="bullet-char-template-10004" transform="scale(0.00048828125,-0.00048828125)">
   <path d="M 285,-33 C 182,-33 111,30 74,156 52,228 41,333 41,471 41,549 55,616 82,672 116,743 169,778 240,778 293,778 328,747 346,684 L 369,508 C 377,444 397,411 428,410 L 1163,1116 C 1174,1127 1196,1133 1229,1133 1271,1133 1292,1118 1292,1087 L 1292,965 C 1292,929 1282,901 1262,881 L 442,47 C 390,-6 338,-33 285,-33 Z"/>
  </g>
  <g id="bullet-char-template-9679" transform="scale(0.00048828125,-0.00048828125)">
   <path d="M 813,0 C 632,0 489,54 383,161 276,268 223,411 223,592 223,773 276,916 383,1023 489,1130 632,1184 813,1184 992,1184 1136,1130 1245,1023 1353,916 1407,772 1407,592 1407,412 1353,268 1245,161 1136,54 992,0 813,0 Z"/>
  </g>
  <g id="bullet-char-template-8226" transform="scale(0.00048828125,-0.00048828125)">
   <path d="M 346,457 C 273,457 209,483 155,535 101,586 74,649 74,723 74,796 101,859 155,911 209,963 273,989 346,989 419,989 480,963 531,910 582,859 608,796 608,723 608,648 583,586 532,535 482,483 420,457 346,457 Z"/>
  </g>
  <g id="bullet-char-template-8211" transform="scale(0.00048828125,-0.00048828125)">
   <path d="M -4,459 L 1135,459 1135,606 -4,606 -4,459 Z"/>
  </g>
  <g id="bullet-char-template-61548" transform="scale(0.00048828125,-0.00048828125)">
   <path d="M 173,740 C 173,903 231,1043 346,1159 462,1274 601,1332 765,1332 928,1332 1067,1274 1183,1159 1299,1043 1357,903 1357,740 1357,577 1299,437 1183,322 1067,206 928,148 765,148 601,148 462,206 346,322 231,437 173,577 173,740 Z"/>
  </g>
 </defs>
 <g>
  <g id="id2" class="Master_Slide">
   <g id="bg-id2" class="Background"/>
   <g id="bo-id2" class="BackgroundObjects"/>
  </g>
 </g>
 <g class="SlideGroup">
  <g>
   <g id="container-id1">
    <g id="id1" class="Slide" clip-path="url(#presentation_clip_path)">
     <g class="Page">
      <defs class="SlideBackground">
       <g id="bg-id1" class="Background">
        <path fill="rgb(154,239,80)" stroke="none" d="M 9490,12689 L -10,12689 -10,-10 18989,-10 18989,12689 9490,12689 Z"/>
       </g>
      </defs>
      <g class="Group">
       <g class="com.sun.star.drawing.ClosedBezierShape">
        <g id="id3">
         <rect class="BoundingBox" stroke="none" fill="none" x="3032" y="6116" width="12452" height="5730"/>
         <path fill="rgb(180,199,220)" stroke="none" d="M 4633,6136 L 4634,6136 9629,6136 C 9659,6136 9687,6140 9715,6148 9742,6155 9769,6165 9795,6181 9820,6195 9844,6213 9863,6233 9883,6253 9901,6276 9915,6301 9931,6327 9941,6354 9949,6381 9956,6408 9960,6436 9960,6466 L 9960,6467 C 9960,6496 9956,6525 9949,6553 9941,6580 9931,6607 9915,6632 9901,6658 9883,6681 9863,6700 9845,6719 9823,6736 9800,6750 L 13882,6750 C 13910,6750 13940,6754 13966,6762 13995,6770 14022,6780 14046,6794 14072,6809 14095,6827 14115,6846 14134,6867 14152,6890 14168,6916 14182,6940 14192,6967 14200,6995 14208,7022 14211,7050 14211,7080 14211,7109 14208,7139 14200,7166 14192,7194 14182,7221 14168,7245 14152,7271 14134,7294 14115,7315 14097,7331 14077,7348 14056,7361 L 15095,7361 C 15124,7361 15153,7365 15181,7372 15208,7380 15235,7390 15260,7406 15286,7420 15309,7438 15328,7458 15349,7477 15367,7500 15381,7526 15396,7552 15407,7579 15414,7606 15422,7634 15426,7662 15426,7692 15426,7721 15422,7749 15414,7777 15407,7804 15396,7831 15381,7857 15367,7883 15349,7906 15328,7925 15309,7945 15286,7963 15260,7978 15235,7993 15208,8003 15181,8011 15153,8019 15124,8022 15095,8022 15092,8022 15090,8022 15087,8021 L 14623,8021 C 14646,8035 14668,8052 14688,8071 14708,8092 14726,8115 14741,8140 14755,8165 14765,8192 14773,8220 14781,8247 14785,8275 14785,8305 L 14785,8306 C 14785,8334 14781,8364 14773,8390 14765,8419 14755,8446 14741,8470 14726,8496 14708,8519 14688,8539 14668,8558 14645,8576 14619,8592 14595,8606 14568,8616 14540,8624 14513,8632 14483,8635 14455,8635 L 14454,8635 12642,8635 C 12661,8648 12679,8662 12694,8679 12715,8698 12733,8721 12747,8747 12762,8773 12773,8800 12780,8826 12788,8853 12792,8882 12792,8911 L 12792,8912 C 12792,8942 12788,8970 12780,8998 12773,9025 12762,9052 12747,9078 12733,9103 12715,9127 12694,9146 12679,9162 12662,9175 12644,9188 L 15131,9188 C 15160,9188 15189,9192 15217,9200 15244,9207 15271,9218 15296,9233 15322,9247 15345,9265 15364,9286 15385,9305 15403,9328 15417,9354 15432,9379 15443,9406 15450,9433 15458,9460 15462,9488 15462,9518 L 15462,9519 C 15462,9548 15458,9577 15450,9605 15443,9632 15432,9659 15417,9684 15403,9710 15385,9733 15364,9752 15345,9773 15322,9791 15296,9805 15271,9820 15244,9831 15217,9838 15189,9846 15160,9850 15131,9850 15128,9850 15126,9850 15123,9849 L 13415,9849 C 13436,9863 13456,9878 13473,9896 13493,9915 13511,9938 13525,9964 13541,9990 13551,10017 13559,10043 13566,10070 13570,10099 13570,10128 L 13570,10129 C 13570,10159 13566,10187 13559,10215 13551,10242 13541,10269 13525,10295 13511,10320 13493,10344 13473,10363 13454,10383 13430,10401 13405,10415 13379,10431 13352,10441 13325,10449 13297,10456 13269,10460 13239,10460 13237,10460 13234,10460 13232,10459 L 11349,10459 C 11373,10473 11395,10490 11415,10509 11434,10529 11452,10553 11467,10578 11481,10603 11491,10630 11499,10658 11507,10685 11511,10713 11511,10742 L 11511,10744 C 11511,10772 11507,10801 11499,10828 11491,10857 11481,10883 11467,10908 11452,10933 11434,10957 11415,10977 11394,10996 11372,11013 11349,11027 L 14254,11027 C 14282,11027 14311,11031 14338,11039 14367,11046 14394,11057 14418,11071 14444,11086 14467,11104 14487,11123 14506,11144 14524,11167 14540,11192 14554,11217 14564,11244 14572,11272 14579,11299 14583,11327 14583,11357 L 14583,11358 C 14583,11386 14579,11416 14572,11443 14564,11471 14554,11498 14540,11522 14524,11548 14506,11571 14487,11591 14467,11611 14444,11629 14418,11644 14394,11658 14367,11668 14338,11676 14311,11684 14282,11687 14254,11687 L 14252,11687 7642,11687 C 7612,11687 7583,11684 7556,11676 7528,11668 7501,11658 7476,11644 7451,11629 7428,11611 7407,11591 7388,11571 7370,11548 7354,11522 7340,11498 7330,11471 7322,11443 7315,11416 7311,11386 7311,11358 L 7311,11357 C 7311,11327 7315,11299 7322,11272 7330,11244 7340,11217 7354,11192 7370,11167 7388,11144 7407,11123 7428,11104 7449,11087 7472,11073 L 4429,11073 C 4400,11073 4370,11069 4343,11062 4315,11054 4288,11044 4264,11030 4238,11014 4215,10996 4195,10977 4175,10957 4157,10933 4142,10908 4128,10883 4118,10857 4110,10828 4102,10801 4098,10772 4098,10744 L 4098,10742 C 4098,10713 4102,10685 4110,10658 4118,10630 4128,10603 4142,10578 4157,10553 4175,10529 4195,10509 4215,10490 4238,10472 4264,10456 4277,10449 4291,10442 4306,10436 4292,10431 4278,10424 4264,10415 4238,10401 4215,10383 4196,10363 4175,10344 4157,10320 4143,10295 4128,10269 4118,10242 4110,10215 4102,10187 4098,10159 4098,10129 L 4098,10128 C 4098,10099 4102,10070 4110,10043 4118,10017 4128,9990 4143,9964 4157,9938 4175,9915 4196,9896 4213,9878 4232,9863 4252,9850 L 3383,9850 C 3353,9850 3325,9846 3297,9838 3270,9831 3243,9820 3217,9805 3192,9791 3169,9773 3149,9752 3129,9733 3111,9710 3097,9684 3081,9659 3071,9632 3064,9605 3056,9577 3052,9548 3052,9519 L 3052,9518 C 3052,9488 3056,9460 3064,9433 3071,9406 3081,9379 3097,9354 3111,9328 3129,9305 3149,9286 3169,9265 3192,9247 3217,9233 3243,9218 3270,9207 3297,9200 3325,9192 3353,9188 3383,9188 L 3537,9188 C 3519,9175 3502,9162 3487,9146 3466,9127 3448,9103 3434,9078 3419,9052 3409,9025 3401,8998 3393,8970 3389,8942 3389,8912 L 3389,8911 C 3389,8882 3393,8853 3401,8826 3409,8800 3419,8773 3434,8747 3448,8721 3466,8698 3487,8679 3506,8658 3529,8641 3555,8626 3580,8611 3607,8601 3634,8593 3662,8585 3691,8582 3720,8582 L 4080,8582 C 4061,8569 4043,8555 4027,8539 4007,8519 3989,8496 3974,8470 3960,8446 3950,8419 3942,8390 3934,8364 3930,8334 3930,8306 L 3930,8305 C 3930,8275 3934,8247 3942,8220 3950,8192 3960,8165 3974,8140 3989,8115 4007,8092 4027,8071 4046,8053 4068,8037 4091,8022 L 3720,8022 C 3691,8022 3662,8019 3634,8011 3607,8003 3580,7993 3555,7978 3529,7963 3506,7945 3487,7925 3466,7906 3448,7883 3434,7857 3419,7831 3409,7804 3401,7777 3393,7749 3389,7721 3389,7692 L 3389,7690 C 3389,7661 3393,7633 3401,7606 3409,7579 3419,7552 3434,7526 3448,7500 3466,7477 3487,7458 3506,7438 3529,7420 3555,7406 3580,7390 3607,7380 3634,7372 3661,7365 3689,7361 3719,7361 L 3720,7361 5233,7361 C 5213,7348 5192,7331 5174,7315 5155,7294 5137,7271 5122,7245 5108,7221 5097,7194 5090,7166 5082,7139 5078,7109 5078,7080 5078,7050 5082,7022 5090,6995 5097,6967 5108,6940 5122,6916 5137,6890 5155,6867 5174,6846 5194,6828 5215,6812 5238,6798 L 4634,6798 C 4605,6798 4577,6794 4549,6786 4522,6778 4495,6768 4469,6753 4443,6739 4420,6721 4401,6700 4381,6681 4363,6658 4349,6632 4333,6607 4323,6580 4315,6553 4307,6525 4304,6496 4304,6467 L 4304,6466 C 4304,6436 4307,6408 4315,6381 4323,6354 4333,6327 4349,6301 4363,6276 4381,6253 4401,6233 4420,6213 4443,6195 4469,6181 4495,6165 4522,6155 4549,6148 4575,6140 4604,6136 4633,6136 Z M 4565,11164 L 4567,11164 5542,11164 C 5572,11164 5601,11168 5628,11176 5657,11184 5683,11194 5708,11208 5733,11223 5757,11241 5777,11260 5796,11281 5814,11304 5830,11330 5844,11354 5854,11381 5862,11409 5869,11436 5873,11466 5873,11494 5873,11523 5869,11553 5862,11580 5854,11608 5844,11635 5830,11659 5814,11685 5796,11708 5777,11729 5757,11748 5733,11766 5708,11781 5683,11795 5657,11805 5628,11813 5601,11821 5572,11825 5542,11825 L 4567,11825 C 4537,11825 4508,11821 4481,11813 4452,11805 4425,11795 4401,11781 4375,11766 4352,11748 4332,11729 4313,11708 4295,11685 4279,11659 4265,11635 4255,11608 4247,11580 4239,11553 4236,11523 4236,11494 4236,11464 4239,11436 4247,11409 4255,11381 4265,11354 4279,11330 4295,11304 4313,11281 4332,11260 4352,11241 4375,11223 4401,11208 4425,11194 4452,11184 4481,11176 4508,11168 4536,11164 4565,11164 Z M 6323,11164 L 6658,11164 C 6686,11164 6716,11168 6743,11176 6771,11184 6798,11194 6822,11208 6848,11223 6871,11241 6891,11260 6911,11281 6929,11304 6944,11330 6958,11354 6968,11381 6976,11409 6984,11436 6988,11464 6988,11494 6988,11523 6984,11553 6976,11580 6968,11608 6958,11635 6944,11659 6929,11685 6911,11708 6891,11729 6871,11748 6848,11766 6822,11781 6798,11795 6771,11805 6743,11813 6716,11821 6686,11825 6658,11825 L 6657,11825 6323,11825 C 6295,11825 6266,11821 6239,11813 6211,11805 6184,11795 6159,11781 6134,11766 6111,11748 6090,11729 6071,11708 6053,11685 6037,11659 6023,11635 6013,11608 6005,11580 5998,11553 5994,11523 5994,11494 5994,11464 5998,11436 6005,11409 6013,11381 6023,11354 6037,11330 6053,11304 6071,11281 6090,11260 6111,11241 6134,11223 6159,11208 6184,11194 6211,11184 6239,11176 6266,11168 6294,11164 6323,11164 Z"/>
         <path fill="none" stroke="rgb(112,110,12)" stroke-width="40" stroke-linejoin="round" d="M 4633,6136 L 4634,6136 9629,6136 C 9659,6136 9687,6140 9715,6148 9742,6155 9769,6165 9795,6181 9820,6195 9844,6213 9863,6233 9883,6253 9901,6276 9915,6301 9931,6327 9941,6354 9949,6381 9956,6408 9960,6436 9960,6466 L 9960,6467 C 9960,6496 9956,6525 9949,6553 9941,6580 9931,6607 9915,6632 9901,6658 9883,6681 9863,6700 9845,6719 9823,6736 9800,6750 L 13882,6750 C 13910,6750 13940,6754 13966,6762 13995,6770 14022,6780 14046,6794 14072,6809 14095,6827 14115,6846 14134,6867 14152,6890 14168,6916 14182,6940 14192,6967 14200,6995 14208,7022 14211,7050 14211,7080 14211,7109 14208,7139 14200,7166 14192,7194 14182,7221 14168,7245 14152,7271 14134,7294 14115,7315 14097,7331 14077,7348 14056,7361 L 15095,7361 C 15124,7361 15153,7365 15181,7372 15208,7380 15235,7390 15260,7406 15286,7420 15309,7438 15328,7458 15349,7477 15367,7500 15381,7526 15396,7552 15407,7579 15414,7606 15422,7634 15426,7662 15426,7692 15426,7721 15422,7749 15414,7777 15407,7804 15396,7831 15381,7857 15367,7883 15349,7906 15328,7925 15309,7945 15286,7963 15260,7978 15235,7993 15208,8003 15181,8011 15153,8019 15124,8022 15095,8022 15092,8022 15090,8022 15087,8021 L 14623,8021 C 14646,8035 14668,8052 14688,8071 14708,8092 14726,8115 14741,8140 14755,8165 14765,8192 14773,8220 14781,8247 14785,8275 14785,8305 L 14785,8306 C 14785,8334 14781,8364 14773,8390 14765,8419 14755,8446 14741,8470 14726,8496 14708,8519 14688,8539 14668,8558 14645,8576 14619,8592 14595,8606 14568,8616 14540,8624 14513,8632 14483,8635 14455,8635 L 14454,8635 12642,8635 C 12661,8648 12679,8662 12694,8679 12715,8698 12733,8721 12747,8747 12762,8773 12773,8800 12780,8826 12788,8853 12792,8882 12792,8911 L 12792,8912 C 12792,8942 12788,8970 12780,8998 12773,9025 12762,9052 12747,9078 12733,9103 12715,9127 12694,9146 12679,9162 12662,9175 12644,9188 L 15131,9188 C 15160,9188 15189,9192 15217,9200 15244,9207 15271,9218 15296,9233 15322,9247 15345,9265 15364,9286 15385,9305 15403,9328 15417,9354 15432,9379 15443,9406 15450,9433 15458,9460 15462,9488 15462,9518 L 15462,9519 C 15462,9548 15458,9577 15450,9605 15443,9632 15432,9659 15417,9684 15403,9710 15385,9733 15364,9752 15345,9773 15322,9791 15296,9805 15271,9820 15244,9831 15217,9838 15189,9846 15160,9850 15131,9850 15128,9850 15126,9850 15123,9849 L 13415,9849 C 13436,9863 13456,9878 13473,9896 13493,9915 13511,9938 13525,9964 13541,9990 13551,10017 13559,10043 13566,10070 13570,10099 13570,10128 L 13570,10129 C 13570,10159 13566,10187 13559,10215 13551,10242 13541,10269 13525,10295 13511,10320 13493,10344 13473,10363 13454,10383 13430,10401 13405,10415 13379,10431 13352,10441 13325,10449 13297,10456 13269,10460 13239,10460 13237,10460 13234,10460 13232,10459 L 11349,10459 C 11373,10473 11395,10490 11415,10509 11434,10529 11452,10553 11467,10578 11481,10603 11491,10630 11499,10658 11507,10685 11511,10713 11511,10742 L 11511,10744 C 11511,10772 11507,10801 11499,10828 11491,10857 11481,10883 11467,10908 11452,10933 11434,10957 11415,10977 11394,10996 11372,11013 11349,11027 L 14254,11027 C 14282,11027 14311,11031 14338,11039 14367,11046 14394,11057 14418,11071 14444,11086 14467,11104 14487,11123 14506,11144 14524,11167 14540,11192 14554,11217 14564,11244 14572,11272 14579,11299 14583,11327 14583,11357 L 14583,11358 C 14583,11386 14579,11416 14572,11443 14564,11471 14554,11498 14540,11522 14524,11548 14506,11571 14487,11591 14467,11611 14444,11629 14418,11644 14394,11658 14367,11668 14338,11676 14311,11684 14282,11687 14254,11687 L 14252,11687 7642,11687 C 7612,11687 7583,11684 7556,11676 7528,11668 7501,11658 7476,11644 7451,11629 7428,11611 7407,11591 7388,11571 7370,11548 7354,11522 7340,11498 7330,11471 7322,11443 7315,11416 7311,11386 7311,11358 L 7311,11357 C 7311,11327 7315,11299 7322,11272 7330,11244 7340,11217 7354,11192 7370,11167 7388,11144 7407,11123 7428,11104 7449,11087 7472,11073 L 4429,11073 C 4400,11073 4370,11069 4343,11062 4315,11054 4288,11044 4264,11030 4238,11014 4215,10996 4195,10977 4175,10957 4157,10933 4142,10908 4128,10883 4118,10857 4110,10828 4102,10801 4098,10772 4098,10744 L 4098,10742 C 4098,10713 4102,10685 4110,10658 4118,10630 4128,10603 4142,10578 4157,10553 4175,10529 4195,10509 4215,10490 4238,10472 4264,10456 4277,10449 4291,10442 4306,10436 4292,10431 4278,10424 4264,10415 4238,10401 4215,10383 4196,10363 4175,10344 4157,10320 4143,10295 4128,10269 4118,10242 4110,10215 4102,10187 4098,10159 4098,10129 L 4098,10128 C 4098,10099 4102,10070 4110,10043 4118,10017 4128,9990 4143,9964 4157,9938 4175,9915 4196,9896 4213,9878 4232,9863 4252,9850 L 3383,9850 C 3353,9850 3325,9846 3297,9838 3270,9831 3243,9820 3217,9805 3192,9791 3169,9773 3149,9752 3129,9733 3111,9710 3097,9684 3081,9659 3071,9632 3064,9605 3056,9577 3052,9548 3052,9519 L 3052,9518 C 3052,9488 3056,9460 3064,9433 3071,9406 3081,9379 3097,9354 3111,9328 3129,9305 3149,9286 3169,9265 3192,9247 3217,9233 3243,9218 3270,9207 3297,9200 3325,9192 3353,9188 3383,9188 L 3537,9188 C 3519,9175 3502,9162 3487,9146 3466,9127 3448,9103 3434,9078 3419,9052 3409,9025 3401,8998 3393,8970 3389,8942 3389,8912 L 3389,8911 C 3389,8882 3393,8853 3401,8826 3409,8800 3419,8773 3434,8747 3448,8721 3466,8698 3487,8679 3506,8658 3529,8641 3555,8626 3580,8611 3607,8601 3634,8593 3662,8585 3691,8582 3720,8582 L 4080,8582 C 4061,8569 4043,8555 4027,8539 4007,8519 3989,8496 3974,8470 3960,8446 3950,8419 3942,8390 3934,8364 3930,8334 3930,8306 L 3930,8305 C 3930,8275 3934,8247 3942,8220 3950,8192 3960,8165 3974,8140 3989,8115 4007,8092 4027,8071 4046,8053 4068,8037 4091,8022 L 3720,8022 C 3691,8022 3662,8019 3634,8011 3607,8003 3580,7993 3555,7978 3529,7963 3506,7945 3487,7925 3466,7906 3448,7883 3434,7857 3419,7831 3409,7804 3401,7777 3393,7749 3389,7721 3389,7692 L 3389,7690 C 3389,7661 3393,7633 3401,7606 3409,7579 3419,7552 3434,7526 3448,7500 3466,7477 3487,7458 3506,7438 3529,7420 3555,7406 3580,7390 3607,7380 3634,7372 3661,7365 3689,7361 3719,7361 L 3720,7361 5233,7361 C 5213,7348 5192,7331 5174,7315 5155,7294 5137,7271 5122,7245 5108,7221 5097,7194 5090,7166 5082,7139 5078,7109 5078,7080 5078,7050 5082,7022 5090,6995 5097,6967 5108,6940 5122,6916 5137,6890 5155,6867 5174,6846 5194,6828 5215,6812 5238,6798 L 4634,6798 C 4605,6798 4577,6794 4549,6786 4522,6778 4495,6768 4469,6753 4443,6739 4420,6721 4401,6700 4381,6681 4363,6658 4349,6632 4333,6607 4323,6580 4315,6553 4307,6525 4304,6496 4304,6467 L 4304,6466 C 4304,6436 4307,6408 4315,6381 4323,6354 4333,6327 4349,6301 4363,6276 4381,6253 4401,6233 4420,6213 4443,6195 4469,6181 4495,6165 4522,6155 4549,6148 4575,6140 4604,6136 4633,6136 Z"/>
         <path fill="none" stroke="rgb(112,110,12)" stroke-width="40" stroke-linejoin="round" d="M 4565,11164 L 4567,11164 5542,11164 C 5572,11164 5601,11168 5628,11176 5657,11184 5683,11194 5708,11208 5733,11223 5757,11241 5777,11260 5796,11281 5814,11304 5830,11330 5844,11354 5854,11381 5862,11409 5869,11436 5873,11466 5873,11494 5873,11523 5869,11553 5862,11580 5854,11608 5844,11635 5830,11659 5814,11685 5796,11708 5777,11729 5757,11748 5733,11766 5708,11781 5683,11795 5657,11805 5628,11813 5601,11821 5572,11825 5542,11825 L 4567,11825 C 4537,11825 4508,11821 4481,11813 4452,11805 4425,11795 4401,11781 4375,11766 4352,11748 4332,11729 4313,11708 4295,11685 4279,11659 4265,11635 4255,11608 4247,11580 4239,11553 4236,11523 4236,11494 4236,11464 4239,11436 4247,11409 4255,11381 4265,11354 4279,11330 4295,11304 4313,11281 4332,11260 4352,11241 4375,11223 4401,11208 4425,11194 4452,11184 4481,11176 4508,11168 4536,11164 4565,11164 Z"/>
         <path fill="none" stroke="rgb(112,110,12)" stroke-width="40" stroke-linejoin="round" d="M 6323,11164 L 6658,11164 C 6686,11164 6716,11168 6743,11176 6771,11184 6798,11194 6822,11208 6848,11223 6871,11241 6891,11260 6911,11281 6929,11304 6944,11330 6958,11354 6968,11381 6976,11409 6984,11436 6988,11464 6988,11494 6988,11523 6984,11553 6976,11580 6968,11608 6958,11635 6944,11659 6929,11685 6911,11708 6891,11729 6871,11748 6848,11766 6822,11781 6798,11795 6771,11805 6743,11813 6716,11821 6686,11825 6658,11825 L 6657,11825 6323,11825 C 6295,11825 6266,11821 6239,11813 6211,11805 6184,11795 6159,11781 6134,11766 6111,11748 6090,11729 6071,11708 6053,11685 6037,11659 6023,11635 6013,11608 6005,11580 5998,11553 5994,11523 5994,11494 5994,11464 5998,11436 6005,11409 6013,11381 6023,11354 6037,11330 6053,11304 6071,11281 6090,11260 6111,11241 6134,11223 6159,11208 6184,11194 6211,11184 6239,11176 6266,11168 6294,11164 6323,11164 Z"/>
        </g>
       </g>
       <g class="Group">
        <g class="com.sun.star.drawing.ClosedBezierShape">
         <g id="id4">
          <rect class="BoundingBox" stroke="none" fill="none" x="6251" y="7299" width="415" height="692"/>
          <path fill="rgb(70,138,26)" stroke="none" d="M 6644,7970 C 6583,7747 6507,7506 6271,7319 6357,7537 6381,7752 6404,7970 6485,7970 6565,7970 6644,7970 Z"/>
          <path fill="none" stroke="rgb(48,39,9)" stroke-width="40" stroke-linejoin="round" d="M 6644,7970 C 6583,7747 6507,7506 6271,7319 6357,7537 6381,7752 6404,7970 L 6644,7970 Z"/>
         </g>
        </g>
        <g class="com.sun.star.drawing.ClosedBezierShape">
         <g id="id5">
          <rect class="BoundingBox" stroke="none" fill="none" x="6517" y="7549" width="454" height="442"/>
          <path fill="rgb(70,138,26)" stroke="none" d="M 6538,7970 C 6606,7833 6689,7684 6950,7569 6855,7702 6829,7836 6803,7970 6715,7970 6626,7970 6538,7970 Z"/>
          <path fill="none" stroke="rgb(48,39,9)" stroke-width="40" stroke-linejoin="round" d="M 6538,7970 C 6606,7833 6689,7684 6950,7569 6855,7702 6829,7836 6803,7970 L 6538,7970 Z"/>
         </g>
        </g>
        <g class="com.sun.star.drawing.PolyPolygonShape">
         <g id="id6">
          <rect class="BoundingBox" stroke="none" fill="none" x="6434" y="6325" width="236" height="1688"/>
          <path fill="rgb(70,138,26)" stroke="none" d="M 6669,8008 L 6648,8010 6628,8011 6434,6330 6455,6328 6475,6325 6669,8008 Z"/>
         </g>
        </g>
        <g class="com.sun.star.drawing.ClosedBezierShape">
         <g id="id7">
          <rect class="BoundingBox" stroke="none" fill="none" x="5999" y="6707" width="670" height="1313"/>
          <path fill="rgb(70,138,26)" stroke="none" d="M 6649,8010 L 6631,8018 C 6452,7593 6249,7161 5999,6728 L 6017,6717 6035,6707 C 6286,7143 6489,7576 6668,8001 L 6649,8010 Z"/>
         </g>
        </g>
        <g class="com.sun.star.drawing.ClosedBezierShape">
         <g id="id8">
          <rect class="BoundingBox" stroke="none" fill="none" x="6630" y="6331" width="247" height="1682"/>
          <path fill="rgb(70,138,26)" stroke="none" d="M 6651,8011 L 6630,8008 C 6688,7434 6734,6899 6834,6331 L 6854,6335 6875,6339 C 6775,6906 6727,7439 6671,8012 L 6651,8011 Z"/>
         </g>
        </g>
        <g class="com.sun.star.drawing.PolyPolygonShape">
         <g id="id9">
          <rect class="BoundingBox" stroke="none" fill="none" x="6779" y="7222" width="424" height="815"/>
          <path fill="rgb(70,138,26)" stroke="none" d="M 6816,8036 L 6797,8027 6779,8018 7165,7222 7183,7231 7202,7240 6816,8036 Z"/>
         </g>
        </g>
        <g class="com.sun.star.drawing.CustomShape">
         <g id="id10">
          <rect class="BoundingBox" stroke="none" fill="none" x="6158" y="5150" width="460" height="1256"/>
          <path fill="rgb(40,71,31)" stroke="none" d="M 6328,5171 L 6328,5171 C 6299,5174 6271,5184 6248,5201 6224,5218 6205,5241 6193,5267 6181,5294 6176,5323 6179,5352 L 6265,6235 6265,6235 C 6268,6264 6278,6292 6295,6315 6312,6339 6335,6358 6361,6370 6388,6382 6417,6387 6446,6384 L 6446,6384 6446,6384 C 6475,6381 6503,6371 6527,6354 6550,6337 6569,6314 6581,6288 6593,6261 6598,6232 6595,6203 L 6509,5320 6509,5320 6509,5320 C 6506,5291 6496,5263 6479,5240 6462,5216 6439,5197 6413,5185 6386,5173 6357,5168 6328,5171 L 6328,5171 Z"/>
          <path fill="none" stroke="rgb(48,39,9)" stroke-width="40" stroke-linejoin="round" d="M 6328,5171 L 6328,5171 C 6299,5174 6271,5184 6248,5201 6224,5218 6205,5241 6193,5267 6181,5294 6176,5323 6179,5352 L 6265,6235 6265,6235 C 6268,6264 6278,6292 6295,6315 6312,6339 6335,6358 6361,6370 6388,6382 6417,6387 6446,6384 L 6446,6384 6446,6384 C 6475,6381 6503,6371 6527,6354 6550,6337 6569,6314 6581,6288 6593,6261 6598,6232 6595,6203 L 6509,5320 6509,5320 6509,5320 C 6506,5291 6496,5263 6479,5240 6462,5216 6439,5197 6413,5185 6386,5173 6357,5168 6328,5171 Z"/>
         </g>
        </g>
        <g class="com.sun.star.drawing.CustomShape">
         <g id="id11">
          <rect class="BoundingBox" stroke="none" fill="none" x="5426" y="5848" width="733" height="1017"/>
          <path fill="rgb(40,71,31)" stroke="none" d="M 5522,5889 L 5522,5889 C 5499,5903 5480,5922 5467,5945 5454,5968 5447,5994 5447,6021 5447,6048 5454,6074 5467,6097 L 5854,6767 5854,6767 C 5867,6790 5887,6810 5910,6823 5933,6836 5959,6843 5986,6843 6012,6843 6039,6836 6062,6823 L 6062,6823 6062,6823 C 6085,6809 6104,6790 6117,6767 6130,6744 6137,6718 6137,6691 6137,6664 6130,6638 6117,6615 L 5730,5945 5730,5945 5730,5945 C 5717,5922 5697,5902 5674,5889 5651,5876 5625,5869 5598,5869 5572,5869 5545,5876 5522,5889 L 5522,5889 Z"/>
          <path fill="none" stroke="rgb(48,39,9)" stroke-width="40" stroke-linejoin="round" d="M 5522,5889 L 5522,5889 C 5499,5903 5480,5922 5467,5945 5454,5968 5447,5994 5447,6021 5447,6048 5454,6074 5467,6097 L 5854,6767 5854,6767 C 5867,6790 5887,6810 5910,6823 5933,6836 5959,6843 5986,6843 6012,6843 6039,6836 6062,6823 L 6062,6823 6062,6823 C 6085,6809 6104,6790 6117,6767 6130,6744 6137,6718 6137,6691 6137,6664 6130,6638 6117,6615 L 5730,5945 5730,5945 5730,5945 C 5717,5922 5697,5902 5674,5889 5651,5876 5625,5869 5598,5869 5572,5869 5545,5876 5522,5889 Z"/>
         </g>
        </g>
        <g class="com.sun.star.drawing.CustomShape">
         <g id="id12">
          <rect class="BoundingBox" stroke="none" fill="none" x="6685" y="5383" width="510" height="1103"/>
          <path fill="rgb(40,71,31)" stroke="none" d="M 7052,5407 L 7052,5407 C 7026,5402 6999,5403 6974,5411 6948,5419 6925,5434 6907,5454 6889,5474 6877,5498 6871,5525 L 6709,6280 6709,6280 C 6704,6307 6705,6334 6713,6359 6722,6385 6736,6407 6756,6425 6776,6443 6800,6456 6827,6461 L 6826,6461 6827,6461 C 6853,6467 6880,6465 6905,6457 6931,6449 6954,6434 6972,6414 6990,6394 7002,6370 7008,6344 L 7170,5587 7170,5588 7170,5588 C 7175,5562 7174,5534 7166,5509 7157,5484 7143,5461 7123,5443 7103,5425 7079,5413 7052,5407 L 7052,5407 Z"/>
          <path fill="none" stroke="rgb(48,39,9)" stroke-width="40" stroke-linejoin="round" d="M 7052,5407 L 7052,5407 C 7026,5402 6999,5403 6974,5411 6948,5419 6925,5434 6907,5454 6889,5474 6877,5498 6871,5525 L 6709,6280 6709,6280 C 6704,6307 6705,6334 6713,6359 6722,6385 6736,6407 6756,6425 6776,6443 6800,6456 6827,6461 L 6826,6461 6827,6461 C 6853,6467 6880,6465 6905,6457 6931,6449 6954,6434 6972,6414 6990,6394 7002,6370 7008,6344 L 7170,5587 7170,5588 7170,5588 C 7175,5562 7174,5534 7166,5509 7157,5484 7143,5461 7123,5443 7103,5425 7079,5413 7052,5407 L 7052,5407 Z"/>
         </g>
        </g>
        <g class="com.sun.star.drawing.CustomShape">
         <g id="id13">
          <rect class="BoundingBox" stroke="none" fill="none" x="7053" y="6690" width="459" height="664"/>
          <path fill="rgb(40,71,31)" stroke="none" d="M 7414,6721 L 7414,6721 C 7394,6712 7372,6708 7350,6711 7327,6713 7306,6721 7288,6735 7270,6748 7256,6765 7247,6786 L 7084,7155 7084,7155 C 7075,7175 7072,7197 7074,7219 7077,7242 7085,7263 7098,7281 7111,7299 7129,7313 7149,7322 L 7149,7322 7149,7322 C 7170,7331 7192,7334 7214,7332 7236,7330 7257,7321 7275,7308 7293,7295 7308,7277 7317,7257 L 7479,6888 7479,6888 7479,6888 C 7488,6868 7492,6846 7489,6823 7487,6801 7479,6780 7466,6762 7453,6744 7435,6730 7414,6721 L 7414,6721 Z"/>
          <path fill="none" stroke="rgb(48,39,9)" stroke-width="40" stroke-linejoin="round" d="M 7414,6721 L 7414,6721 C 7394,6712 7372,6708 7350,6711 7327,6713 7306,6721 7288,6735 7270,6748 7256,6765 7247,6786 L 7084,7155 7084,7155 C 7075,7175 7072,7197 7074,7219 7077,7242 7085,7263 7098,7281 7111,7299 7129,7313 7149,7322 L 7149,7322 7149,7322 C 7170,7331 7192,7334 7214,7332 7236,7330 7257,7321 7275,7308 7293,7295 7308,7277 7317,7257 L 7479,6888 7479,6888 7479,6888 C 7488,6868 7492,6846 7489,6823 7487,6801 7479,6780 7466,6762 7453,6744 7435,6730 7414,6721 Z"/>
         </g>
        </g>
        <g class="com.sun.star.drawing.ClosedBezierShape">
         <g id="id14">
          <rect class="BoundingBox" stroke="none" fill="none" x="5747" y="6927" width="732" height="1066"/>
          <path fill="rgb(70,138,26)" stroke="none" d="M 6298,7970 C 6159,7565 5985,7292 5767,6947 6058,7257 6283,7550 6458,7967 6406,7965 6352,7974 6298,7970 Z"/>
          <path fill="none" stroke="rgb(48,39,9)" stroke-width="40" stroke-linejoin="round" d="M 6298,7970 C 6159,7565 5985,7292 5767,6947 6058,7257 6283,7550 6458,7967 6406,7965 6352,7974 6298,7970 Z"/>
         </g>
        </g>
        <g class="com.sun.star.drawing.ClosedBezierShape">
         <g id="id15">
          <rect class="BoundingBox" stroke="none" fill="none" x="6535" y="6695" width="386" height="1295"/>
          <path fill="rgb(70,138,26)" stroke="none" d="M 6555,7969 C 6611,7540 6681,7075 6900,6715 6819,7133 6799,7550 6776,7969 6702,7969 6628,7969 6555,7969 Z"/>
          <path fill="none" stroke="rgb(48,39,9)" stroke-width="40" stroke-linejoin="round" d="M 6555,7969 C 6611,7540 6681,7075 6900,6715 6819,7133 6799,7550 6776,7969 L 6555,7969 Z"/>
         </g>
        </g>
        <g class="com.sun.star.drawing.ClosedBezierShape">
         <g id="id16">
          <rect class="BoundingBox" stroke="none" fill="none" x="6854" y="7696" width="295" height="297"/>
          <path fill="rgb(70,138,26)" stroke="none" d="M 6874,7972 C 6916,7884 6966,7789 7128,7716 7069,7802 7054,7888 7037,7972 6982,7972 6929,7972 6874,7972 Z"/>
          <path fill="none" stroke="rgb(48,39,9)" stroke-width="40" stroke-linejoin="round" d="M 6874,7972 C 6916,7884 6966,7789 7128,7716 7069,7802 7054,7888 7037,7972 L 6874,7972 Z"/>
         </g>
        </g>
        <g class="com.sun.star.drawing.CustomShape">
         <g id="id17">
          <rect class="BoundingBox" stroke="none" fill="none" x="6075" y="7945" width="1185" height="216"/>
          <path fill="rgb(172,178,12)" stroke="none" d="M 7239,8052 L 7239,8053 C 7239,8037 7235,8022 7227,8009 7220,7995 7209,7984 7195,7977 7182,7969 7167,7965 7151,7965 L 6183,7965 6183,7965 C 6167,7965 6152,7969 6139,7977 6125,7984 6114,7995 6107,8009 6099,8022 6095,8037 6095,8053 L 6095,8052 6095,8053 C 6095,8068 6099,8083 6107,8096 6114,8110 6125,8121 6139,8128 6152,8136 6167,8140 6183,8140 L 7152,8140 7151,8140 7151,8140 C 7167,8140 7182,8136 7195,8128 7209,8121 7220,8110 7227,8096 7235,8083 7239,8068 7239,8053 L 7239,8052 Z"/>
          <path fill="none" stroke="rgb(112,110,12)" stroke-width="40" stroke-linejoin="round" d="M 7239,8052 L 7239,8053 C 7239,8037 7235,8022 7227,8009 7220,7995 7209,7984 7195,7977 7182,7969 7167,7965 7151,7965 L 6183,7965 6183,7965 C 6167,7965 6152,7969 6139,7977 6125,7984 6114,7995 6107,8009 6099,8022 6095,8037 6095,8053 L 6095,8052 6095,8053 C 6095,8068 6099,8083 6107,8096 6114,8110 6125,8121 6139,8128 6152,8136 6167,8140 6183,8140 L 7152,8140 7151,8140 7151,8140 C 7167,8140 7182,8136 7195,8128 7209,8121 7220,8110 7227,8096 7235,8083 7239,8068 7239,8053 L 7239,8052 Z"/>
         </g>
        </g>
       </g>
       <g class="com.sun.star.drawing.ClosedBezierShape">
        <g id="id18">
         <rect class="BoundingBox" stroke="none" fill="none" x="5335" y="9337" width="1641" height="908"/>
         <path fill="rgb(70,138,26)" stroke="none" d="M 6169,9671 L 6974,9580 C 6906,9394 6169,9256 5795,9394 5579,9475 5284,9698 5344,9924 5404,10155 5750,10221 5990,10239 6267,10260 6623,10191 6837,10014 6926,9938 6993,9788 6965,9680 L 6169,9671 Z"/>
         <path fill="none" stroke="rgb(57,85,17)" d="M 6169,9671 L 6974,9580 C 6906,9394 6169,9256 5795,9394 5579,9475 5284,9698 5344,9924 5404,10155 5750,10221 5990,10239 6267,10260 6623,10191 6837,10014 6926,9938 6993,9788 6965,9680 L 6169,9671 Z"/>
        </g>
       </g>
       <g class="com.sun.star.drawing.ClosedBezierShape">
        <g id="id19">
         <rect class="BoundingBox" stroke="none" fill="none" x="8427" y="9646" width="1125" height="671"/>
         <path fill="rgb(70,138,26)" stroke="none" d="M 8428,10007 C 8419,9898 8651,9760 8801,9712 9016,9646 9313,9592 9470,9751 9568,9854 9581,10079 9481,10184 9264,10417 8567,10281 8528,10224 L 8931,9959 8428,10007 Z"/>
         <path fill="none" stroke="rgb(57,85,17)" d="M 8428,10007 C 8419,9898 8651,9760 8801,9712 9016,9646 9313,9592 9470,9751 9568,9854 9581,10079 9481,10184 9264,10417 8567,10281 8528,10224 L 8931,9959 8428,10007 Z"/>
        </g>
       </g>
       <g class="Group">
        <g class="com.sun.star.drawing.ClosedBezierShape">
         <g id="id20">
          <rect class="BoundingBox" stroke="none" fill="none" x="11621" y="9175" width="414" height="692"/>
          <path fill="rgb(70,138,26)" stroke="none" d="M 11641,9846 C 11703,9623 11778,9382 12014,9195 11930,9413 11905,9628 11881,9846 11800,9846 11722,9846 11641,9846 Z"/>
          <path fill="none" stroke="rgb(48,39,9)" stroke-width="40" stroke-linejoin="round" d="M 11641,9846 C 11703,9623 11778,9382 12014,9195 11930,9413 11905,9628 11881,9846 L 11641,9846 Z"/>
         </g>
        </g>
        <g class="com.sun.star.drawing.ClosedBezierShape">
         <g id="id21">
          <rect class="BoundingBox" stroke="none" fill="none" x="10793" y="9425" width="453" height="442"/>
          <path fill="rgb(70,138,26)" stroke="none" d="M 11225,9846 C 11155,9709 11073,9560 10813,9445 10908,9578 10934,9712 10959,9846 11048,9846 11135,9846 11225,9846 Z"/>
          <path fill="none" stroke="rgb(48,39,9)" stroke-width="40" stroke-linejoin="round" d="M 11225,9846 C 11155,9709 11073,9560 10813,9445 10908,9578 10934,9712 10959,9846 L 11225,9846 Z"/>
         </g>
        </g>
        <g class="com.sun.star.drawing.PolyPolygonShape">
         <g id="id22">
          <rect class="BoundingBox" stroke="none" fill="none" x="10946" y="8210" width="382" height="1669"/>
          <path fill="rgb(70,138,26)" stroke="none" d="M 11327,9870 L 11306,9874 11286,9877 10947,8219 10968,8215 10987,8211 11327,9870 Z"/>
         </g>
        </g>
        <g class="com.sun.star.drawing.ClosedBezierShape">
         <g id="id23">
          <rect class="BoundingBox" stroke="none" fill="none" x="10740" y="8583" width="670" height="1313"/>
          <path fill="rgb(70,138,26)" stroke="none" d="M 11390,9886 L 11372,9894 C 11193,9469 10990,9037 10740,8604 L 10758,8593 10776,8583 C 11027,9019 11230,9452 11409,9877 L 11390,9886 Z"/>
         </g>
        </g>
        <g class="com.sun.star.drawing.ClosedBezierShape">
         <g id="id24">
          <rect class="BoundingBox" stroke="none" fill="none" x="11371" y="8207" width="247" height="1683"/>
          <path fill="rgb(70,138,26)" stroke="none" d="M 11392,9887 L 11371,9884 C 11429,9310 11475,8775 11575,8207 L 11595,8211 11616,8215 C 11516,8782 11468,9315 11412,9888 L 11392,9887 Z"/>
         </g>
        </g>
        <g class="com.sun.star.drawing.PolyPolygonShape">
         <g id="id25">
          <rect class="BoundingBox" stroke="none" fill="none" x="11520" y="9099" width="424" height="815"/>
          <path fill="rgb(70,138,26)" stroke="none" d="M 11557,9913 L 11538,9904 11520,9895 11906,9099 11924,9108 11943,9117 11557,9913 Z"/>
         </g>
        </g>
        <g class="com.sun.star.drawing.CustomShape">
         <g id="id26">
          <rect class="BoundingBox" stroke="none" fill="none" x="10550" y="7113" width="578" height="1239"/>
          <path fill="rgb(40,71,31)" stroke="none" d="M 10698,7138 L 10698,7138 C 10670,7145 10644,7159 10623,7179 10602,7198 10586,7224 10578,7251 10569,7279 10568,7309 10575,7337 L 10780,8203 10780,8203 C 10786,8231 10800,8257 10820,8279 10840,8300 10865,8315 10893,8324 10921,8332 10951,8333 10979,8327 L 10978,8327 10979,8327 C 11007,8320 11033,8306 11054,8286 11076,8266 11091,8241 11099,8213 11108,8186 11109,8156 11102,8128 L 10897,7261 10897,7262 10897,7262 C 10891,7233 10877,7207 10857,7186 10837,7165 10812,7149 10784,7141 10756,7133 10727,7132 10698,7138 L 10698,7138 Z"/>
          <path fill="none" stroke="rgb(48,39,9)" stroke-width="40" stroke-linejoin="round" d="M 10698,7138 L 10698,7138 C 10670,7145 10644,7159 10623,7179 10602,7198 10586,7224 10578,7251 10569,7279 10568,7309 10575,7337 L 10780,8203 10780,8203 C 10786,8231 10800,8257 10820,8279 10840,8300 10865,8315 10893,8324 10921,8332 10951,8333 10979,8327 L 10978,8327 10979,8327 C 11007,8320 11033,8306 11054,8286 11076,8266 11091,8241 11099,8213 11108,8186 11109,8156 11102,8128 L 10897,7261 10897,7262 10897,7262 C 10891,7233 10877,7207 10857,7186 10837,7165 10812,7149 10784,7141 10756,7133 10727,7132 10698,7138 L 10698,7138 Z"/>
         </g>
        </g>
        <g class="com.sun.star.drawing.CustomShape">
         <g id="id27">
          <rect class="BoundingBox" stroke="none" fill="none" x="10168" y="7725" width="733" height="1017"/>
          <path fill="rgb(40,71,31)" stroke="none" d="M 10263,7766 L 10264,7766 C 10241,7779 10222,7798 10208,7821 10195,7844 10188,7871 10188,7897 10188,7924 10195,7950 10208,7973 L 10596,8644 10596,8645 C 10610,8668 10629,8687 10652,8700 10675,8714 10701,8721 10728,8721 10754,8721 10780,8714 10804,8700 L 10803,8701 10804,8700 C 10827,8687 10846,8668 10859,8645 10872,8622 10879,8596 10879,8569 10879,8543 10872,8517 10859,8494 L 10471,7821 10471,7822 10471,7822 C 10458,7799 10438,7779 10415,7766 10392,7753 10366,7746 10340,7746 10313,7746 10287,7753 10264,7766 L 10263,7766 Z"/>
          <path fill="none" stroke="rgb(48,39,9)" stroke-width="40" stroke-linejoin="round" d="M 10263,7766 L 10264,7766 C 10241,7779 10222,7798 10208,7821 10195,7844 10188,7871 10188,7897 10188,7924 10195,7950 10208,7973 L 10596,8644 10596,8645 C 10610,8668 10629,8687 10652,8700 10675,8714 10701,8721 10728,8721 10754,8721 10780,8714 10804,8700 L 10803,8701 10804,8700 C 10827,8687 10846,8668 10859,8645 10872,8622 10879,8596 10879,8569 10879,8543 10872,8517 10859,8494 L 10471,7821 10471,7822 10471,7822 C 10458,7799 10438,7779 10415,7766 10392,7753 10366,7746 10340,7746 10313,7746 10287,7753 10264,7766 L 10263,7766 Z"/>
         </g>
        </g>
        <g class="com.sun.star.drawing.CustomShape">
         <g id="id28">
          <rect class="BoundingBox" stroke="none" fill="none" x="11426" y="7259" width="510" height="1103"/>
          <path fill="rgb(40,71,31)" stroke="none" d="M 11793,7283 L 11793,7283 C 11767,7278 11740,7279 11715,7287 11689,7295 11666,7310 11648,7330 11630,7350 11618,7374 11612,7401 L 11450,8156 11450,8156 C 11445,8183 11446,8210 11454,8235 11463,8261 11477,8283 11497,8301 11517,8319 11541,8332 11568,8337 L 11567,8337 11568,8337 C 11594,8343 11621,8341 11646,8333 11672,8325 11695,8310 11713,8290 11731,8270 11743,8246 11749,8220 L 11911,7463 11911,7464 11911,7464 C 11916,7438 11915,7410 11907,7385 11898,7360 11884,7337 11864,7319 11844,7301 11820,7289 11793,7283 L 11793,7283 Z"/>
          <path fill="none" stroke="rgb(48,39,9)" stroke-width="40" stroke-linejoin="round" d="M 11793,7283 L 11793,7283 C 11767,7278 11740,7279 11715,7287 11689,7295 11666,7310 11648,7330 11630,7350 11618,7374 11612,7401 L 11450,8156 11450,8156 C 11445,8183 11446,8210 11454,8235 11463,8261 11477,8283 11497,8301 11517,8319 11541,8332 11568,8337 L 11567,8337 11568,8337 C 11594,8343 11621,8341 11646,8333 11672,8325 11695,8310 11713,8290 11731,8270 11743,8246 11749,8220 L 11911,7463 11911,7464 11911,7464 C 11916,7438 11915,7410 11907,7385 11898,7360 11884,7337 11864,7319 11844,7301 11820,7289 11793,7283 L 11793,7283 Z"/>
         </g>
        </g>
        <g class="com.sun.star.drawing.CustomShape">
         <g id="id29">
          <rect class="BoundingBox" stroke="none" fill="none" x="11794" y="8566" width="459" height="664"/>
          <path fill="rgb(40,71,31)" stroke="none" d="M 12155,8597 L 12155,8597 C 12135,8588 12113,8584 12091,8587 12068,8589 12047,8597 12029,8611 12011,8624 11997,8641 11988,8662 L 11825,9031 11825,9031 C 11816,9051 11813,9073 11815,9095 11818,9118 11826,9139 11839,9157 11852,9175 11870,9189 11890,9198 L 11890,9198 11890,9198 C 11911,9207 11933,9210 11955,9208 11977,9206 11998,9197 12016,9184 12034,9171 12049,9153 12058,9133 L 12220,8764 12220,8764 12220,8764 C 12229,8744 12233,8722 12230,8699 12228,8677 12220,8656 12207,8638 12194,8620 12176,8606 12155,8597 L 12155,8597 Z"/>
          <path fill="none" stroke="rgb(48,39,9)" stroke-width="40" stroke-linejoin="round" d="M 12155,8597 L 12155,8597 C 12135,8588 12113,8584 12091,8587 12068,8589 12047,8597 12029,8611 12011,8624 11997,8641 11988,8662 L 11825,9031 11825,9031 C 11816,9051 11813,9073 11815,9095 11818,9118 11826,9139 11839,9157 11852,9175 11870,9189 11890,9198 L 11890,9198 11890,9198 C 11911,9207 11933,9210 11955,9208 11977,9206 11998,9197 12016,9184 12034,9171 12049,9153 12058,9133 L 12220,8764 12220,8764 12220,8764 C 12229,8744 12233,8722 12230,8699 12228,8677 12220,8656 12207,8638 12194,8620 12176,8606 12155,8597 Z"/>
         </g>
        </g>
        <g class="com.sun.star.drawing.ClosedBezierShape">
         <g id="id30">
          <rect class="BoundingBox" stroke="none" fill="none" x="11595" y="9572" width="295" height="297"/>
          <path fill="rgb(70,138,26)" stroke="none" d="M 11615,9848 C 11657,9760 11707,9665 11869,9592 11810,9678 11795,9764 11778,9848 11723,9848 11670,9848 11615,9848 Z"/>
          <path fill="none" stroke="rgb(48,39,9)" stroke-width="40" stroke-linejoin="round" d="M 11615,9848 C 11657,9760 11707,9665 11869,9592 11810,9678 11795,9764 11778,9848 L 11615,9848 Z"/>
         </g>
        </g>
        <g class="com.sun.star.drawing.PolyPolygonShape">
         <g id="id31">
          <rect class="BoundingBox" stroke="none" fill="none" x="10853" y="9068" width="424" height="815"/>
          <path fill="rgb(70,138,26)" stroke="none" d="M 11239,9882 L 11258,9873 11276,9864 10890,9068 10872,9077 10853,9086 11239,9882 Z"/>
         </g>
        </g>
        <g class="com.sun.star.drawing.CustomShape">
         <g id="id32">
          <rect class="BoundingBox" stroke="none" fill="none" x="10416" y="8556" width="532" height="622"/>
          <path fill="rgb(40,71,31)" stroke="none" d="M 10488,8601 L 10488,8601 C 10506,8588 10527,8580 10549,8577 10571,8575 10593,8578 10613,8587 10634,8596 10651,8610 10664,8628 L 10902,8956 10902,8956 C 10915,8974 10923,8995 10926,9017 10928,9039 10924,9061 10915,9081 10906,9102 10892,9119 10874,9132 L 10874,9132 10874,9132 C 10857,9145 10836,9153 10814,9156 10792,9158 10769,9154 10749,9145 10729,9136 10712,9122 10699,9104 L 10460,8777 10460,8777 10460,8777 C 10447,8759 10439,8738 10437,8716 10435,8694 10438,8672 10447,8651 10456,8631 10470,8614 10488,8601 L 10488,8601 Z"/>
          <path fill="none" stroke="rgb(48,39,9)" stroke-width="40" stroke-linejoin="round" d="M 10488,8601 L 10488,8601 C 10506,8588 10527,8580 10549,8577 10571,8575 10593,8578 10613,8587 10634,8596 10651,8610 10664,8628 L 10902,8956 10902,8956 C 10915,8974 10923,8995 10926,9017 10928,9039 10924,9061 10915,9081 10906,9102 10892,9119 10874,9132 L 10874,9132 10874,9132 C 10857,9145 10836,9153 10814,9156 10792,9158 10769,9154 10749,9145 10729,9136 10712,9122 10699,9104 L 10460,8777 10460,8777 10460,8777 C 10447,8759 10439,8738 10437,8716 10435,8694 10438,8672 10447,8651 10456,8631 10470,8614 10488,8601 Z"/>
         </g>
        </g>
        <g class="com.sun.star.drawing.ClosedBezierShape">
         <g id="id33">
          <rect class="BoundingBox" stroke="none" fill="none" x="10996" y="8571" width="386" height="1295"/>
          <path fill="rgb(70,138,26)" stroke="none" d="M 11361,9845 C 11305,9416 11235,8951 11016,8591 11097,9009 11117,9426 11139,9845 11213,9845 11287,9845 11361,9845 Z"/>
          <path fill="none" stroke="rgb(48,39,9)" stroke-width="40" stroke-linejoin="round" d="M 11361,9845 C 11305,9416 11235,8951 11016,8591 11097,9009 11117,9426 11139,9845 L 11361,9845 Z"/>
         </g>
        </g>
        <g class="com.sun.star.drawing.ClosedBezierShape">
         <g id="id34">
          <rect class="BoundingBox" stroke="none" fill="none" x="11311" y="8803" width="732" height="1066"/>
          <path fill="rgb(70,138,26)" stroke="none" d="M 11490,9846 C 11630,9441 11804,9168 12022,8823 11730,9133 11505,9426 11331,9843 11382,9841 11437,9850 11490,9846 Z"/>
          <path fill="none" stroke="rgb(48,39,9)" stroke-width="40" stroke-linejoin="round" d="M 11490,9846 C 11630,9441 11804,9168 12022,8823 11730,9133 11505,9426 11331,9843 11382,9841 11437,9850 11490,9846 Z"/>
         </g>
        </g>
        <g class="com.sun.star.drawing.CustomShape">
         <g id="id35">
          <rect class="BoundingBox" stroke="none" fill="none" x="10816" y="9820" width="1185" height="217"/>
          <path fill="rgb(172,178,12)" stroke="none" d="M 11980,9927 L 11980,9928 C 11980,9913 11976,9897 11968,9884 11960,9871 11949,9860 11936,9852 11923,9844 11907,9840 11892,9840 L 10924,9840 10924,9840 C 10909,9840 10893,9844 10880,9852 10867,9860 10856,9871 10848,9884 10840,9897 10836,9913 10836,9928 L 10836,9927 10836,9928 C 10836,9943 10840,9959 10848,9972 10856,9985 10867,9996 10880,10004 10893,10012 10909,10016 10924,10016 L 11893,10015 11892,10016 11892,10016 C 11907,10016 11923,10012 11936,10004 11949,9996 11960,9985 11968,9972 11976,9959 11980,9943 11980,9928 L 11980,9927 Z"/>
          <path fill="none" stroke="rgb(112,110,12)" stroke-width="40" stroke-linejoin="round" d="M 11980,9927 L 11980,9928 C 11980,9913 11976,9897 11968,9884 11960,9871 11949,9860 11936,9852 11923,9844 11907,9840 11892,9840 L 10924,9840 10924,9840 C 10909,9840 10893,9844 10880,9852 10867,9860 10856,9871 10848,9884 10840,9897 10836,9913 10836,9928 L 10836,9927 10836,9928 C 10836,9943 10840,9959 10848,9972 10856,9985 10867,9996 10880,10004 10893,10012 10909,10016 10924,10016 L 11893,10015 11892,10016 11892,10016 C 11907,10016 11923,10012 11936,10004 11949,9996 11960,9985 11968,9972 11976,9959 11980,9943 11980,9928 L 11980,9927 Z"/>
         </g>
        </g>
       </g>
       <g class="com.sun.star.drawing.ClosedBezierShape">
        <g id="id36">
         <rect class="BoundingBox" stroke="none" fill="none" x="14157" y="10216" width="659" height="516"/>
         <path fill="rgb(153,153,153)" stroke="none" d="M 14794,10376 C 14793,10334 14745,10300 14707,10281 14611,10234 14487,10222 14385,10254 14303,10280 14208,10336 14185,10420 14160,10509 14204,10631 14281,10681 14362,10734 14484,10708 14568,10663 14676,10607 14799,10498 14794,10376 Z"/>
         <path fill="none" stroke="rgb(102,102,102)" stroke-width="40" stroke-linejoin="round" d="M 14794,10376 C 14793,10334 14745,10300 14707,10281 14611,10234 14487,10222 14385,10254 14303,10280 14208,10336 14185,10420 14160,10509 14204,10631 14281,10681 14362,10734 14484,10708 14568,10663 14676,10607 14799,10498 14794,10376 Z"/>
        </g>
       </g>
       <g class="com.sun.star.drawing.ClosedBezierShape">
        <g id="id37">
         <rect class="BoundingBox" stroke="none" fill="none" x="14709" y="5144" width="812" height="1853"/>
         <path fill="rgb(94,185,30)" stroke="none" d="M 14896,6991 C 15086,6991 15249,6985 15439,6985 15417,6692 15444,6399 15514,6081 15422,6183 15328,6284 15236,6385 15203,6186 15240,5972 15308,5754 15224,5806 15146,5879 15090,5961 15041,5702 15031,5430 15078,5149 14838,5393 14861,5844 14879,6263 14811,6212 14796,6229 14714,6215 14838,6452 14885,6702 14896,6991 Z"/>
         <path fill="none" stroke="rgb(70,138,26)" stroke-width="10" stroke-linejoin="round" d="M 14896,6991 C 15086,6991 15249,6985 15439,6985 15417,6692 15444,6399 15514,6081 15422,6183 15328,6284 15236,6385 15203,6186 15240,5972 15308,5754 15224,5806 15146,5879 15090,5961 15041,5702 15031,5430 15078,5149 14838,5393 14861,5844 14879,6263 14811,6212 14796,6229 14714,6215 14838,6452 14885,6702 14896,6991 Z"/>
        </g>
       </g>
       <g class="com.sun.star.drawing.OpenBezierShape">
        <g id="id38">
         <rect class="BoundingBox" stroke="none" fill="none" x="15213" y="6060" width="305" height="612"/>
         <path fill="none" stroke="rgb(57,85,17)" stroke-width="10" stroke-linejoin="round" d="M 15219,6666 C 15241,6421 15371,6265 15512,6065 15464,6259 15443,6436 15427,6604"/>
        </g>
       </g>
       <g class="com.sun.star.drawing.OpenBezierShape">
        <g id="id39">
         <rect class="BoundingBox" stroke="none" fill="none" x="15009" y="5743" width="305" height="877"/>
         <path fill="none" stroke="rgb(57,85,17)" stroke-width="10" stroke-linejoin="round" d="M 15015,6613 C 15006,6234 15119,5982 15308,5748 15235,5967 15213,6155 15234,6395"/>
        </g>
       </g>
       <g class="com.sun.star.drawing.OpenBezierShape">
        <g id="id40">
         <rect class="BoundingBox" stroke="none" fill="none" x="14697" y="6206" width="253" height="675"/>
         <path fill="none" stroke="rgb(57,85,17)" stroke-width="10" stroke-linejoin="round" d="M 14944,6462 C 14911,6274 14891,6259 14703,6211 14817,6415 14854,6624 14885,6875"/>
        </g>
       </g>
       <g class="com.sun.star.drawing.OpenBezierShape">
        <g id="id41">
         <rect class="BoundingBox" stroke="none" fill="none" x="14864" y="5137" width="221" height="910"/>
         <path fill="none" stroke="rgb(57,85,17)" stroke-width="10" stroke-linejoin="round" d="M 15052,5711 C 15046,5529 15031,5330 15079,5142 14874,5398 14870,5710 14869,6040"/>
        </g>
       </g>
       <g class="com.sun.star.drawing.ClosedBezierShape">
        <g id="id42">
         <rect class="BoundingBox" stroke="none" fill="none" x="12393" y="7385" width="1103" height="684"/>
         <path fill="rgb(70,138,26)" stroke="none" d="M 12394,7616 C 12409,7507 12656,7406 12810,7392 13035,7374 13337,7386 13456,7575 13529,7698 13493,7920 13373,8000 13110,8181 12427,7954 12395,7799 L 12906,7694 12394,7616 Z"/>
         <path fill="none" stroke="rgb(57,85,17)" d="M 12394,7616 C 12409,7507 12656,7406 12810,7392 13035,7374 13337,7386 13456,7575 13529,7698 13493,7920 13373,8000 13110,8181 12427,7954 12395,7799 L 12906,7694 12394,7616 Z"/>
        </g>
       </g>
       <g class="Group">
        <g class="com.sun.star.drawing.ClosedBezierShape">
         <g id="id43">
          <rect class="BoundingBox" stroke="none" fill="none" x="12743" y="10087" width="811" height="1854"/>
          <path fill="rgb(94,185,30)" stroke="none" d="M 12930,11934 C 13120,11934 13283,11928 13473,11928 13451,11635 13478,11342 13548,11024 13456,11126 13362,11227 13270,11328 13237,11129 13274,10915 13342,10697 13258,10749 13180,10822 13124,10904 13075,10645 13065,10373 13112,10092 12872,10336 12895,10787 12913,11206 12845,11155 12830,11172 12748,11158 12872,11395 12919,11645 12930,11934 Z"/>
          <path fill="none" stroke="rgb(70,138,26)" stroke-width="10" stroke-linejoin="round" d="M 12930,11934 C 13120,11934 13283,11928 13473,11928 13451,11635 13478,11342 13548,11024 13456,11126 13362,11227 13270,11328 13237,11129 13274,10915 13342,10697 13258,10749 13180,10822 13124,10904 13075,10645 13065,10373 13112,10092 12872,10336 12895,10787 12913,11206 12845,11155 12830,11172 12748,11158 12872,11395 12919,11645 12930,11934 Z"/>
         </g>
        </g>
        <g class="com.sun.star.drawing.OpenBezierShape">
         <g id="id44">
          <rect class="BoundingBox" stroke="none" fill="none" x="13242" y="10999" width="315" height="622"/>
          <path fill="none" stroke="rgb(70,138,26)" stroke-width="20" stroke-linejoin="round" d="M 13253,11609 C 13275,11364 13405,11208 13546,11009 13498,11203 13477,11379 13461,11548"/>
         </g>
        </g>
        <g class="com.sun.star.drawing.OpenBezierShape">
         <g id="id45">
          <rect class="BoundingBox" stroke="none" fill="none" x="13038" y="10681" width="315" height="887"/>
          <path fill="none" stroke="rgb(70,138,26)" stroke-width="20" stroke-linejoin="round" d="M 13049,11557 C 13039,11178 13153,10926 13342,10692 13269,10911 13247,11098 13268,11338"/>
         </g>
        </g>
        <g class="com.sun.star.drawing.OpenBezierShape">
         <g id="id46">
          <rect class="BoundingBox" stroke="none" fill="none" x="12735" y="11144" width="269" height="689"/>
          <path fill="none" stroke="rgb(70,138,26)" stroke-width="20" stroke-linejoin="round" d="M 12993,11373 C 12948,11189 12921,11188 12746,11155 12861,11356 12905,11555 12925,11821"/>
         </g>
        </g>
        <g class="com.sun.star.drawing.OpenBezierShape">
         <g id="id47">
          <rect class="BoundingBox" stroke="none" fill="none" x="12893" y="10075" width="231" height="920"/>
          <path fill="none" stroke="rgb(70,138,26)" stroke-width="20" stroke-linejoin="round" d="M 13086,10655 C 13080,10472 13065,10274 13113,10086 12908,10340 12904,10653 12903,10984"/>
         </g>
        </g>
       </g>
       <g class="Group">
        <g class="com.sun.star.drawing.ClosedBezierShape">
         <g id="id48">
          <rect class="BoundingBox" stroke="none" fill="none" x="2865" y="5181" width="779" height="1830"/>
          <path fill="rgb(94,185,30)" stroke="none" d="M 3089,6994 C 3042,6749 3015,6453 2870,6204 2960,6218 3015,6239 3082,6301 3084,5921 3098,5581 3307,5187 3265,5519 3265,5774 3307,6049 3348,6012 3348,5962 3429,5936 3403,6149 3389,6273 3455,6467 3505,6403 3528,6336 3604,6274 3577,6509 3583,6752 3638,7005 3462,7002 3265,6998 3089,6994 Z"/>
          <path fill="none" stroke="rgb(70,138,26)" stroke-width="10" stroke-linejoin="round" d="M 3089,6994 C 3042,6749 3015,6453 2870,6204 2960,6218 3015,6239 3082,6301 3084,5921 3098,5581 3307,5187 3265,5519 3265,5774 3307,6049 3348,6012 3348,5962 3429,5936 3403,6149 3389,6273 3455,6467 3505,6403 3528,6336 3604,6274 3577,6509 3583,6752 3638,7005 3462,7002 3265,6998 3089,6994 Z"/>
         </g>
        </g>
        <g class="com.sun.star.drawing.OpenBezierShape">
         <g id="id49">
          <rect class="BoundingBox" stroke="none" fill="none" x="2859" y="6189" width="373" height="606"/>
          <path fill="none" stroke="rgb(70,138,26)" stroke-width="20" stroke-linejoin="round" d="M 3220,6600 C 3158,6334 3058,6264 2870,6199 2963,6400 3020,6569 3051,6784"/>
         </g>
        </g>
        <g class="com.sun.star.drawing.OpenBezierShape">
         <g id="id50">
          <rect class="BoundingBox" stroke="none" fill="none" x="3232" y="5924" width="216" height="578"/>
          <path fill="none" stroke="rgb(70,138,26)" stroke-width="20" stroke-linejoin="round" d="M 3398,6490 C 3395,6296 3391,6117 3436,5935 3323,5981 3258,6153 3243,6337"/>
         </g>
        </g>
        <g class="com.sun.star.drawing.OpenBezierShape">
         <g id="id51">
          <rect class="BoundingBox" stroke="none" fill="none" x="3396" y="6256" width="214" height="516"/>
          <path fill="none" stroke="rgb(70,138,26)" stroke-width="20" stroke-linejoin="round" d="M 3406,6661 C 3422,6496 3508,6385 3599,6266 3576,6437 3593,6596 3591,6761"/>
         </g>
        </g>
        <g class="com.sun.star.drawing.OpenBezierShape">
         <g id="id52">
          <rect class="BoundingBox" stroke="none" fill="none" x="3125" y="5175" width="199" height="728"/>
          <path fill="none" stroke="rgb(70,138,26)" stroke-width="20" stroke-linejoin="round" d="M 3135,5635 C 3184,5477 3226,5322 3312,5185 3277,5422 3262,5649 3292,5892"/>
         </g>
        </g>
       </g>
       <g class="Group">
        <g class="com.sun.star.drawing.ClosedBezierShape">
         <g id="id53">
          <rect class="BoundingBox" stroke="none" fill="none" x="2705" y="8947" width="1568" height="2918"/>
          <path fill="rgb(94,185,30)" stroke="none" d="M 2727,11858 C 2886,11224 2782,10595 2710,9909 2949,10297 3079,10623 3163,11127 3197,10395 3177,9688 3058,8952 3238,9356 3315,9764 3414,10223 3419,9868 3446,9466 3527,9126 3544,9438 3558,9709 3623,9987 3765,9625 3980,9307 4267,9021 4042,9695 3758,10415 3719,11101 3827,10927 3924,10782 4136,10667 3980,11038 3869,11454 3841,11858 3469,11858 3099,11858 2727,11858 Z"/>
          <path fill="none" stroke="rgb(70,138,26)" stroke-width="10" stroke-linejoin="round" d="M 2727,11858 C 2886,11224 2782,10595 2710,9909 2949,10297 3079,10623 3163,11127 3197,10395 3177,9688 3058,8952 3238,9356 3315,9764 3414,10223 3419,9868 3446,9466 3527,9126 3544,9438 3558,9709 3623,9987 3765,9625 3980,9307 4267,9021 4042,9695 3758,10415 3719,11101 3827,10927 3924,10782 4136,10667 3980,11038 3869,11454 3841,11858 L 2727,11858 Z"/>
         </g>
        </g>
        <g class="com.sun.star.drawing.OpenBezierShape">
         <g id="id54">
          <rect class="BoundingBox" stroke="none" fill="none" x="2697" y="9893" width="422" height="971"/>
          <path fill="none" stroke="rgb(70,138,26)" stroke-width="20" stroke-linejoin="round" d="M 2781,10571 C 2761,10365 2745,10109 2707,9903 2890,10199 3003,10458 3107,10853"/>
         </g>
        </g>
        <g class="com.sun.star.drawing.OpenBezierShape">
         <g id="id55">
          <rect class="BoundingBox" stroke="none" fill="none" x="3057" y="8976" width="353" height="2319"/>
          <path fill="none" stroke="rgb(70,138,26)" stroke-width="20" stroke-linejoin="round" d="M 3175,10421 C 3175,9951 3140,9468 3067,8986 3367,9654 3432,10483 3384,11284"/>
         </g>
        </g>
        <g class="com.sun.star.drawing.OpenBezierShape">
         <g id="id56">
          <rect class="BoundingBox" stroke="none" fill="none" x="3604" y="10658" width="545" height="644"/>
          <path fill="none" stroke="rgb(70,138,26)" stroke-width="20" stroke-linejoin="round" d="M 3614,11291 C 3725,11058 3893,10797 4137,10668 4071,10831 4011,10984 3962,11152"/>
         </g>
        </g>
        <g class="com.sun.star.drawing.OpenBezierShape">
         <g id="id57">
          <rect class="BoundingBox" stroke="none" fill="none" x="3504" y="9014" width="775" height="1426"/>
          <path fill="none" stroke="rgb(70,138,26)" stroke-width="20" stroke-linejoin="round" d="M 3515,10428 C 3562,9907 3937,9322 4267,9024 4144,9353 4039,9679 3940,10019"/>
         </g>
        </g>
        <g class="com.sun.star.drawing.OpenBezierShape">
         <g id="id58">
          <rect class="BoundingBox" stroke="none" fill="none" x="3436" y="9107" width="154" height="657"/>
          <path fill="none" stroke="rgb(70,138,26)" stroke-width="20" stroke-linejoin="round" d="M 3447,9624 C 3457,9448 3486,9289 3523,9117 3536,9331 3553,9542 3578,9753"/>
         </g>
        </g>
       </g>
       <g class="Group">
        <g class="com.sun.star.drawing.ClosedBezierShape">
         <g id="id59">
          <rect class="BoundingBox" stroke="none" fill="none" x="14671" y="7945" width="1629" height="2291"/>
          <path fill="rgb(94,185,30)" stroke="none" d="M 15041,10212 C 15009,9736 14857,9349 14676,8925 14850,8996 14995,9093 15129,9212 15183,8899 15121,8595 15068,8290 15217,8532 15266,8858 15320,9186 15390,8657 15598,8290 15903,7950 15779,8353 15730,8754 15756,9186 15889,9011 16056,8913 16294,8828 16097,9294 15993,9779 15947,10230 15645,10224 15343,10219 15041,10212 Z"/>
          <path fill="none" stroke="rgb(70,138,26)" stroke-width="10" stroke-linejoin="round" d="M 15041,10212 C 15009,9736 14857,9349 14676,8925 14850,8996 14995,9093 15129,9212 15183,8899 15121,8595 15068,8290 15217,8532 15266,8858 15320,9186 15390,8657 15598,8290 15903,7950 15779,8353 15730,8754 15756,9186 15889,9011 16056,8913 16294,8828 16097,9294 15993,9779 15947,10230 15645,10224 15343,10219 15041,10212 Z"/>
         </g>
        </g>
        <g class="com.sun.star.drawing.OpenBezierShape">
         <g id="id60">
          <rect class="BoundingBox" stroke="none" fill="none" x="14664" y="8910" width="361" height="818"/>
          <path fill="none" stroke="rgb(70,138,26)" stroke-width="20" stroke-linejoin="round" d="M 14960,9717 C 14896,9442 14782,9176 14674,8921 14802,8977 14909,9034 15014,9120"/>
         </g>
        </g>
        <g class="com.sun.star.drawing.OpenBezierShape">
         <g id="id61">
          <rect class="BoundingBox" stroke="none" fill="none" x="15055" y="8279" width="242" height="735"/>
          <path fill="none" stroke="rgb(70,138,26)" stroke-width="20" stroke-linejoin="round" d="M 15145,8761 C 15117,8604 15101,8455 15065,8289 15188,8472 15247,8738 15285,9002"/>
         </g>
        </g>
        <g class="com.sun.star.drawing.OpenBezierShape">
         <g id="id62">
          <rect class="BoundingBox" stroke="none" fill="none" x="15474" y="7925" width="446" height="1098"/>
          <path fill="none" stroke="rgb(70,138,26)" stroke-width="20" stroke-linejoin="round" d="M 15485,8584 C 15591,8344 15740,8127 15908,7936 15809,8275 15747,8599 15748,9012"/>
         </g>
        </g>
        <g class="com.sun.star.drawing.OpenBezierShape">
         <g id="id63">
          <rect class="BoundingBox" stroke="none" fill="none" x="15521" y="8817" width="782" height="981"/>
          <path fill="none" stroke="rgb(70,138,26)" stroke-width="20" stroke-linejoin="round" d="M 16016,9731 C 16085,9416 16178,9126 16292,8828 15923,8969 15613,9165 15531,9786"/>
         </g>
        </g>
       </g>
       <g class="Group">
        <g class="com.sun.star.drawing.ClosedBezierShape">
         <g id="id64">
          <rect class="BoundingBox" stroke="none" fill="none" x="11182" y="5200" width="717" height="1169"/>
          <path fill="rgb(94,185,30)" stroke="none" d="M 11309,6354 C 11288,6139 11279,5876 11187,5685 11288,5740 11347,5831 11414,5963 11473,5691 11546,5424 11727,5205 11668,5491 11632,5750 11658,6032 11731,5867 11754,5709 11892,5588 11817,5863 11817,6103 11822,6363 11651,6360 11479,6357 11309,6354 Z"/>
          <path fill="none" stroke="rgb(70,138,26)" stroke-width="10" stroke-linejoin="round" d="M 11309,6354 C 11288,6139 11279,5876 11187,5685 11288,5740 11347,5831 11414,5963 11473,5691 11546,5424 11727,5205 11668,5491 11632,5750 11658,6032 11731,5867 11754,5709 11892,5588 11817,5863 11817,6103 11822,6363 11651,6360 11479,6357 11309,6354 Z"/>
         </g>
        </g>
        <g class="com.sun.star.drawing.OpenBezierShape">
         <g id="id65">
          <rect class="BoundingBox" stroke="none" fill="none" x="11477" y="5192" width="268" height="508"/>
          <path fill="none" stroke="rgb(70,138,26)" stroke-width="20" stroke-linejoin="round" d="M 11657,5657 C 11673,5507 11694,5354 11734,5203 11618,5344 11544,5491 11488,5689"/>
         </g>
        </g>
        <g class="com.sun.star.drawing.OpenBezierShape">
         <g id="id66">
          <rect class="BoundingBox" stroke="none" fill="none" x="11176" y="5672" width="293" height="568"/>
          <path fill="none" stroke="rgb(70,138,26)" stroke-width="20" stroke-linejoin="round" d="M 11303,6228 C 11285,6019 11249,5845 11186,5682 11325,5768 11440,5933 11457,6213"/>
         </g>
        </g>
        <g class="com.sun.star.drawing.OpenBezierShape">
         <g id="id67">
          <rect class="BoundingBox" stroke="none" fill="none" x="11688" y="5572" width="220" height="691"/>
          <path fill="none" stroke="rgb(70,138,26)" stroke-width="20" stroke-linejoin="round" d="M 11698,5929 C 11744,5783 11806,5677 11896,5582 11837,5784 11826,5987 11818,6251"/>
         </g>
        </g>
       </g>
       <g class="Group">
        <g class="com.sun.star.drawing.CustomShape">
         <g id="id68">
          <rect class="BoundingBox" stroke="none" fill="none" x="5049" y="9013" width="871" height="872"/>
          <path fill="rgb(94,185,30)" stroke="none" d="M 5639,9294 C 5707,9362 5766,9436 5812,9508 5857,9581 5886,9649 5897,9707 5908,9764 5899,9809 5872,9836 5845,9863 5800,9872 5743,9862 5685,9851 5617,9822 5544,9776 5472,9731 5398,9671 5330,9603 5262,9535 5202,9461 5157,9389 5112,9316 5082,9248 5072,9190 5061,9133 5070,9088 5097,9061 5124,9034 5169,9025 5226,9036 5283,9046 5352,9076 5424,9121 5497,9166 5571,9226 5639,9294 L 5639,9294 Z"/>
          <path fill="none" stroke="rgb(57,85,17)" stroke-width="35" stroke-linejoin="round" d="M 5639,9294 C 5707,9362 5766,9436 5812,9508 5857,9581 5886,9649 5897,9707 5908,9764 5899,9809 5872,9836 5845,9863 5800,9872 5743,9862 5685,9851 5617,9822 5544,9776 5472,9731 5398,9671 5330,9603 5262,9535 5202,9461 5157,9389 5112,9316 5082,9248 5072,9190 5061,9133 5070,9088 5097,9061 5124,9034 5169,9025 5226,9036 5283,9046 5352,9076 5424,9121 5497,9166 5571,9226 5639,9294 Z"/>
         </g>
        </g>
        <g class="com.sun.star.drawing.CustomShape">
         <g id="id69">
          <rect class="BoundingBox" stroke="none" fill="none" x="5474" y="9808" width="443" height="141"/>
          <path fill="rgb(94,185,30)" stroke="none" d="M 5544,9826 L 5544,9826 C 5535,9826 5526,9828 5518,9833 5510,9838 5504,9844 5499,9852 5494,9860 5492,9869 5492,9878 L 5492,9878 5492,9878 C 5492,9887 5494,9896 5499,9904 5504,9912 5510,9918 5518,9923 5526,9928 5535,9930 5544,9930 L 5846,9930 5846,9930 C 5855,9930 5864,9928 5872,9923 5880,9918 5886,9912 5891,9904 5896,9896 5898,9887 5898,9878 L 5898,9878 5898,9878 5898,9878 C 5898,9869 5896,9860 5891,9852 5886,9844 5880,9838 5872,9833 5864,9828 5855,9826 5846,9826 L 5544,9826 Z"/>
          <path fill="none" stroke="rgb(57,85,17)" stroke-width="35" stroke-linejoin="round" d="M 5544,9826 L 5544,9826 C 5535,9826 5526,9828 5518,9833 5510,9838 5504,9844 5499,9852 5494,9860 5492,9869 5492,9878 L 5492,9878 5492,9878 C 5492,9887 5494,9896 5499,9904 5504,9912 5510,9918 5518,9923 5526,9928 5535,9930 5544,9930 L 5846,9930 5846,9930 C 5855,9930 5864,9928 5872,9923 5880,9918 5886,9912 5891,9904 5896,9896 5898,9887 5898,9878 L 5898,9878 5898,9878 5898,9878 C 5898,9869 5896,9860 5891,9852 5886,9844 5880,9838 5872,9833 5864,9828 5855,9826 5846,9826 L 5544,9826 Z"/>
         </g>
        </g>
        <g class="com.sun.star.drawing.CustomShape">
         <g id="id70">
          <rect class="BoundingBox" stroke="none" fill="none" x="6453" y="9012" width="872" height="872"/>
          <path fill="rgb(94,185,30)" stroke="none" d="M 6734,9293 C 6666,9361 6606,9435 6561,9508 6516,9580 6486,9648 6476,9706 6465,9763 6474,9808 6501,9835 6528,9862 6573,9871 6630,9860 6688,9850 6756,9821 6829,9775 6901,9730 6975,9670 7043,9602 7111,9534 7171,9460 7216,9388 7262,9315 7291,9247 7301,9189 7312,9132 7303,9087 7276,9060 7249,9033 7204,9024 7147,9035 7089,9045 7021,9075 6949,9120 6876,9165 6802,9225 6734,9293 L 6734,9293 Z"/>
          <path fill="none" stroke="rgb(57,85,17)" stroke-width="35" stroke-linejoin="round" d="M 6734,9293 C 6666,9361 6606,9435 6561,9508 6516,9580 6486,9648 6476,9706 6465,9763 6474,9808 6501,9835 6528,9862 6573,9871 6630,9860 6688,9850 6756,9821 6829,9775 6901,9730 6975,9670 7043,9602 7111,9534 7171,9460 7216,9388 7262,9315 7291,9247 7301,9189 7312,9132 7303,9087 7276,9060 7249,9033 7204,9024 7147,9035 7089,9045 7021,9075 6949,9120 6876,9165 6802,9225 6734,9293 Z"/>
         </g>
        </g>
        <g class="com.sun.star.drawing.CustomShape">
         <g id="id71">
          <rect class="BoundingBox" stroke="none" fill="none" x="6456" y="9836" width="482" height="112"/>
          <path fill="rgb(94,185,30)" stroke="none" d="M 6882,9854 L 6882,9854 C 6888,9854 6895,9856 6900,9859 6906,9862 6911,9867 6914,9873 6917,9878 6919,9885 6919,9892 L 6919,9891 6919,9892 C 6919,9898 6917,9905 6914,9910 6911,9916 6906,9921 6900,9924 6895,9927 6888,9929 6882,9929 L 6512,9929 6512,9929 C 6505,9929 6498,9927 6493,9924 6487,9921 6482,9916 6479,9910 6476,9905 6474,9898 6474,9892 L 6474,9891 6474,9892 6474,9892 C 6474,9885 6476,9878 6479,9873 6482,9867 6487,9862 6493,9859 6498,9856 6505,9854 6512,9854 L 6882,9854 Z"/>
          <path fill="none" stroke="rgb(57,85,17)" stroke-width="35" stroke-linejoin="round" d="M 6882,9854 L 6882,9854 C 6888,9854 6895,9856 6900,9859 6906,9862 6911,9867 6914,9873 6917,9878 6919,9885 6919,9892 L 6919,9891 6919,9892 C 6919,9898 6917,9905 6914,9910 6911,9916 6906,9921 6900,9924 6895,9927 6888,9929 6882,9929 L 6512,9929 6512,9929 C 6505,9929 6498,9927 6493,9924 6487,9921 6482,9916 6479,9910 6476,9905 6474,9898 6474,9892 L 6474,9891 6474,9892 6474,9892 C 6474,9885 6476,9878 6479,9873 6482,9867 6487,9862 6493,9859 6498,9856 6505,9854 6512,9854 L 6882,9854 Z"/>
         </g>
        </g>
        <g class="com.sun.star.drawing.ClosedBezierShape">
         <g id="id72">
          <rect class="BoundingBox" stroke="none" fill="none" x="5471" y="8402" width="1437" height="1547"/>
          <path fill="rgb(94,185,30)" stroke="none" d="M 5623,8629 C 5627,8499 5696,8426 5838,8421 5955,8430 6042,8499 6042,8625 L 6064,8625 6064,8623 6336,8623 C 6336,8498 6423,8429 6540,8420 6682,8424 6752,8498 6756,8628 6760,8766 6915,9103 6885,9289 6847,9518 6669,9928 6570,9928 L 6314,9928 6314,9930 5808,9930 C 5709,9930 5531,9519 5493,9290 5462,9104 5618,8767 5623,8629 Z"/>
          <path fill="none" stroke="rgb(57,85,17)" stroke-width="35" stroke-linejoin="round" d="M 5623,8629 C 5627,8499 5696,8426 5838,8421 5955,8430 6042,8499 6042,8625 L 6064,8625 6064,8623 6336,8623 C 6336,8498 6423,8429 6540,8420 6682,8424 6752,8498 6756,8628 6760,8766 6915,9103 6885,9289 6847,9518 6669,9928 6570,9928 L 6314,9928 6314,9930 5808,9930 C 5709,9930 5531,9519 5493,9290 5462,9104 5618,8767 5623,8629 Z"/>
         </g>
        </g>
        <g class="com.sun.star.drawing.CustomShape">
         <g id="id73">
          <rect class="BoundingBox" stroke="none" fill="none" x="6390" y="8514" width="317" height="316"/>
          <path fill="rgb(255,255,255)" stroke="none" d="M 6408,8672 C 6408,8696 6414,8720 6427,8741 6439,8762 6457,8780 6478,8792 6499,8805 6523,8811 6548,8811 6573,8811 6597,8805 6618,8792 6639,8780 6657,8762 6669,8741 6682,8720 6688,8696 6688,8672 6688,8647 6682,8623 6669,8602 6657,8581 6639,8563 6618,8551 6597,8538 6573,8532 6548,8532 6523,8532 6499,8538 6478,8551 6457,8563 6439,8581 6427,8602 6414,8623 6408,8647 6408,8672 L 6408,8672 Z"/>
          <path fill="none" stroke="rgb(57,85,17)" stroke-width="35" stroke-linejoin="round" d="M 6408,8672 C 6408,8696 6414,8720 6427,8741 6439,8762 6457,8780 6478,8792 6499,8805 6523,8811 6548,8811 6573,8811 6597,8805 6618,8792 6639,8780 6657,8762 6669,8741 6682,8720 6688,8696 6688,8672 6688,8647 6682,8623 6669,8602 6657,8581 6639,8563 6618,8551 6597,8538 6573,8532 6548,8532 6523,8532 6499,8538 6478,8551 6457,8563 6439,8581 6427,8602 6414,8623 6408,8647 6408,8672 Z"/>
         </g>
        </g>
        <g class="com.sun.star.drawing.CustomShape">
         <g id="id74">
          <rect class="BoundingBox" stroke="none" fill="none" x="6435" y="8563" width="219" height="218"/>
          <path fill="rgb(0,0,0)" stroke="none" d="M 6453,8672 C 6453,8687 6457,8703 6465,8717 6473,8731 6485,8742 6499,8750 6512,8758 6528,8762 6544,8762 6560,8762 6576,8758 6590,8750 6603,8742 6615,8731 6623,8717 6631,8703 6635,8687 6635,8672 6635,8656 6631,8640 6623,8626 6615,8612 6603,8601 6590,8593 6576,8585 6560,8581 6544,8581 6528,8581 6512,8585 6499,8593 6485,8601 6473,8612 6465,8626 6457,8640 6453,8656 6453,8672 L 6453,8672 Z"/>
          <path fill="none" stroke="rgb(0,0,0)" stroke-width="35" stroke-linejoin="round" d="M 6453,8672 C 6453,8687 6457,8703 6465,8717 6473,8731 6485,8742 6499,8750 6512,8758 6528,8762 6544,8762 6560,8762 6576,8758 6590,8750 6603,8742 6615,8731 6623,8717 6631,8703 6635,8687 6635,8672 6635,8656 6631,8640 6623,8626 6615,8612 6603,8601 6590,8593 6576,8585 6560,8581 6544,8581 6528,8581 6512,8585 6499,8593 6485,8601 6473,8612 6465,8626 6457,8640 6453,8656 6453,8672 Z"/>
         </g>
        </g>
        <g class="com.sun.star.drawing.CustomShape">
         <g id="id75">
          <rect class="BoundingBox" stroke="none" fill="none" x="5669" y="8515" width="316" height="316"/>
          <path fill="rgb(255,255,255)" stroke="none" d="M 5966,8673 C 5966,8697 5960,8721 5947,8742 5935,8763 5917,8781 5896,8793 5875,8806 5851,8812 5827,8812 5802,8812 5778,8806 5757,8793 5736,8781 5718,8763 5706,8742 5693,8721 5687,8697 5687,8673 5687,8648 5693,8624 5706,8603 5718,8582 5736,8564 5757,8552 5778,8539 5802,8533 5827,8533 5851,8533 5875,8539 5896,8552 5917,8564 5935,8582 5947,8603 5960,8624 5966,8648 5966,8673 L 5966,8673 Z"/>
          <path fill="none" stroke="rgb(57,85,17)" stroke-width="35" stroke-linejoin="round" d="M 5966,8673 C 5966,8697 5960,8721 5947,8742 5935,8763 5917,8781 5896,8793 5875,8806 5851,8812 5827,8812 5802,8812 5778,8806 5757,8793 5736,8781 5718,8763 5706,8742 5693,8721 5687,8697 5687,8673 5687,8648 5693,8624 5706,8603 5718,8582 5736,8564 5757,8552 5778,8539 5802,8533 5827,8533 5851,8533 5875,8539 5896,8552 5917,8564 5935,8582 5947,8603 5960,8624 5966,8648 5966,8673 Z"/>
         </g>
        </g>
        <g class="com.sun.star.drawing.CustomShape">
         <g id="id76">
          <rect class="BoundingBox" stroke="none" fill="none" x="5717" y="8563" width="219" height="219"/>
          <path fill="rgb(0,0,0)" stroke="none" d="M 5917,8672 C 5917,8688 5913,8704 5905,8718 5897,8731 5885,8743 5872,8751 5858,8759 5842,8763 5826,8763 5810,8763 5794,8759 5781,8751 5767,8743 5755,8731 5747,8718 5739,8704 5735,8688 5735,8672 5735,8656 5739,8640 5747,8627 5755,8613 5767,8601 5781,8593 5794,8585 5810,8581 5826,8581 5842,8581 5858,8585 5872,8593 5885,8601 5897,8613 5905,8627 5913,8640 5917,8656 5917,8672 L 5917,8672 Z"/>
          <path fill="none" stroke="rgb(0,0,0)" stroke-width="35" stroke-linejoin="round" d="M 5917,8672 C 5917,8688 5913,8704 5905,8718 5897,8731 5885,8743 5872,8751 5858,8759 5842,8763 5826,8763 5810,8763 5794,8759 5781,8751 5767,8743 5755,8731 5747,8718 5739,8704 5735,8688 5735,8672 5735,8656 5739,8640 5747,8627 5755,8613 5767,8601 5781,8593 5794,8585 5810,8581 5826,8581 5842,8581 5858,8585 5872,8593 5885,8601 5897,8613 5905,8627 5913,8640 5917,8656 5917,8672 Z"/>
         </g>
        </g>
        <g class="com.sun.star.drawing.ClosedBezierShape">
         <g id="id77">
          <rect class="BoundingBox" stroke="none" fill="none" x="5700" y="8963" width="979" height="282"/>
          <path fill="rgb(0,0,0)" stroke="none" d="M 6618,9069 C 6596,9093 6569,9116 6538,9135 6507,9154 6472,9171 6435,9184 6360,9212 6275,9226 6189,9226 6102,9226 6018,9212 5943,9184 5905,9171 5871,9154 5840,9135 5809,9116 5782,9093 5760,9069 5743,9050 5729,9031 5718,9010 L 5739,8981 C 5750,9004 5765,9027 5784,9047 5804,9070 5828,9090 5857,9108 5886,9126 5918,9142 5954,9154 6025,9181 6106,9194 6189,9194 6272,9194 6353,9181 6424,9154 6460,9142 6492,9126 6521,9108 6550,9090 6574,9070 6594,9047 6613,9027 6628,9004 6638,8982 L 6660,9011 C 6649,9031 6635,9050 6618,9069 Z"/>
          <path fill="none" stroke="rgb(0,0,0)" stroke-width="35" stroke-linejoin="round" d="M 6618,9069 C 6596,9093 6569,9116 6538,9135 6507,9154 6472,9171 6435,9184 6360,9212 6275,9226 6189,9226 6102,9226 6018,9212 5943,9184 5905,9171 5871,9154 5840,9135 5809,9116 5782,9093 5760,9069 5743,9050 5729,9031 5718,9010 L 5739,8981 C 5750,9004 5765,9027 5784,9047 5804,9070 5828,9090 5857,9108 5886,9126 5918,9142 5954,9154 6025,9181 6106,9194 6189,9194 6272,9194 6353,9181 6424,9154 6460,9142 6492,9126 6521,9108 6550,9090 6574,9070 6594,9047 6613,9027 6628,9004 6638,8982 L 6660,9011 C 6649,9031 6635,9050 6618,9069 Z"/>
         </g>
        </g>
        <g class="com.sun.star.drawing.ClosedBezierShape">
         <g id="id78">
          <rect class="BoundingBox" stroke="none" fill="none" x="5881" y="9366" width="618" height="583"/>
          <path fill="rgb(187,227,61)" stroke="none" d="M 6190,9384 C 6240,9384 6291,9398 6335,9423 6379,9448 6416,9485 6441,9529 6467,9574 6480,9624 6480,9675 L 6480,9840 C 6480,9870 6475,9900 6466,9929 L 6315,9929 6315,9930 5914,9930 C 5904,9901 5899,9870 5899,9840 L 5899,9675 C 5899,9624 5913,9574 5938,9529 5963,9485 6000,9448 6044,9423 6089,9398 6139,9384 6190,9384 Z"/>
          <path fill="none" stroke="rgb(57,85,17)" stroke-width="35" stroke-linejoin="round" d="M 6190,9384 C 6240,9384 6291,9398 6335,9423 6379,9448 6416,9485 6441,9529 6467,9574 6480,9624 6480,9675 L 6480,9840 C 6480,9870 6475,9900 6466,9929 L 6315,9929 6315,9930 5914,9930 C 5904,9901 5899,9870 5899,9840 L 5899,9675 C 5899,9624 5913,9574 5938,9529 5963,9485 6000,9448 6044,9423 6089,9398 6139,9384 6190,9384 Z"/>
         </g>
        </g>
        <g class="com.sun.star.drawing.ClosedBezierShape">
         <g id="id79">
          <rect class="BoundingBox" stroke="none" fill="none" x="5612" y="9750" width="549" height="199"/>
          <path fill="rgb(94,185,30)" stroke="none" d="M 5630,9930 C 5630,9930 5630,9929 5630,9928 5630,9900 5642,9872 5665,9848 5687,9824 5719,9804 5758,9789 5797,9776 5841,9768 5887,9768 5931,9768 5976,9776 6014,9789 6054,9804 6086,9824 6108,9848 6130,9872 6142,9900 6142,9928 6142,9929 6142,9930 6142,9930 L 5630,9930 Z"/>
          <path fill="none" stroke="rgb(57,85,17)" stroke-width="35" stroke-linejoin="round" d="M 5630,9930 L 5630,9928 C 5630,9900 5642,9872 5665,9848 5687,9824 5719,9804 5758,9789 5797,9776 5841,9768 5887,9768 5931,9768 5976,9776 6014,9789 6054,9804 6086,9824 6108,9848 6130,9872 6142,9900 6142,9928 L 6142,9930 5630,9930 Z"/>
         </g>
        </g>
        <g class="com.sun.star.drawing.ClosedBezierShape">
         <g id="id80">
          <rect class="BoundingBox" stroke="none" fill="none" x="6248" y="9750" width="549" height="199"/>
          <path fill="rgb(94,185,30)" stroke="none" d="M 6266,9930 C 6266,9930 6266,9929 6266,9928 6266,9900 6278,9872 6301,9848 6323,9824 6355,9804 6394,9789 6433,9776 6477,9768 6523,9768 6567,9768 6612,9776 6650,9789 6690,9804 6722,9824 6744,9848 6766,9872 6778,9900 6778,9928 6778,9929 6778,9930 6778,9930 L 6266,9930 Z"/>
          <path fill="none" stroke="rgb(57,85,17)" stroke-width="35" stroke-linejoin="round" d="M 6266,9930 L 6266,9928 C 6266,9900 6278,9872 6301,9848 6323,9824 6355,9804 6394,9789 6433,9776 6477,9768 6523,9768 6567,9768 6612,9776 6650,9789 6690,9804 6722,9824 6744,9848 6766,9872 6778,9900 6778,9928 L 6778,9930 6266,9930 Z"/>
         </g>
        </g>
       </g>
      </g>
     </g>
    </g>
   </g>
  </g>
 </g>
</svg>