<?xml version="1.0" encoding="UTF-8" standalone="no"?>
<svg
   version="1.2"
   width="200"
   height="200"
   viewBox="0 0 5291.6667 5291.6667"
   preserveAspectRatio="xMidYMid"
   fill-rule="evenodd"
   stroke-width="28.222"
   stroke-linejoin="round"
   xml:space="preserve"
   id="svg306"
   sodipodi:docname="Frog_eating.svg"
   inkscape:export-filename="Frog_eating.png"
   inkscape:export-xdpi="96"
   inkscape:export-ydpi="96"
   inkscape:version="1.2.2 (b0a8486, 2022-12-01)"
   xmlns:inkscape="http://www.inkscape.org/namespaces/inkscape"
   xmlns:sodipodi="http://sodipodi.sourceforge.net/DTD/sodipodi-0.dtd"
   xmlns="http://www.w3.org/2000/svg"
   xmlns:svg="http://www.w3.org/2000/svg"
   xmlns:ooo="http://xml.openoffice.org/svg/export"><sodipodi:namedview
   id="namedview308"
   pagecolor="#ffffff"
   bordercolor="#000000"
   borderopacity="0.25"
   inkscape:showpageshadow="2"
   inkscape:pageopacity="0.0"
   inkscape:pagecheckerboard="0"
   inkscape:deskcolor="#d1d1d1"
   inkscape:document-units="mm"
   showgrid="false"
   inkscape:zoom="2.55"
   inkscape:cx="109.80392"
   inkscape:cy="102.35294"
   inkscape:window-width="1440"
   inkscape:window-height="836"
   inkscape:window-x="0"
   inkscape:window-y="25"
   inkscape:window-maximized="0"
   inkscape:current-layer="svg306" />
 <defs
   class="ClipPathGroup"
   id="defs138">
  
  <clipPath
   id="presentation_clip_path_shrink"
   clipPathUnits="userSpaceOnUse">
   <rect
   x="4"
   y="4"
   width="3992"
   height="3992"
   id="rect135" />
  </clipPath>
 
  
 
   
  
    
   
     
    
      
      
      
      
      
      
      
      
      
      
      
      
      
     <clipPath
   clipPathUnits="userSpaceOnUse"
   id="clipPath936"><g
     id="g942"><g
       id="g940"><rect
         x="0"
         y="0"
         width="4000"
         height="4000"
         id="rect938" /></g></g></clipPath><clipPath
   clipPathUnits="userSpaceOnUse"
   id="clipPath944"><g
     id="g950"><g
       id="g948"><rect
         x="0"
         y="0"
         width="4000"
         height="4000"
         id="rect946" /></g></g></clipPath><clipPath
   clipPathUnits="userSpaceOnUse"
   id="clipPath952"><g
     id="g958"><g
       id="g956"><rect
         x="0"
         y="0"
         width="4000"
         height="4000"
         id="rect954" /></g></g></clipPath><clipPath
   clipPathUnits="userSpaceOnUse"
   id="clipPath960"><g
     id="g966"><g
       id="g964"><rect
         x="0"
         y="0"
         width="4000"
         height="4000"
         id="rect962" /></g></g></clipPath><clipPath
   clipPathUnits="userSpaceOnUse"
   id="clipPath968"><g
     id="g974"><g
       id="g972"><rect
         x="0"
         y="0"
         width="4000"
         height="4000"
         id="rect970" /></g></g></clipPath><clipPath
   clipPathUnits="userSpaceOnUse"
   id="clipPath976"><g
     id="g982"><g
       id="g980"><rect
         x="0"
         y="0"
         width="4000"
         height="4000"
         id="rect978" /></g></g></clipPath><clipPath
   clipPathUnits="userSpaceOnUse"
   id="clipPath984"><g
     id="g990"><g
       id="g988"><rect
         x="0"
         y="0"
         width="4000"
         height="4000"
         id="rect986" /></g></g></clipPath><clipPath
   clipPathUnits="userSpaceOnUse"
   id="clipPath992"><g
     id="g998"><g
       id="g996"><rect
         x="0"
         y="0"
         width="4000"
         height="4000"
         id="rect994" /></g></g></clipPath><clipPath
   clipPathUnits="userSpaceOnUse"
   id="clipPath1000"><g
     id="g1006"><g
       id="g1004"><rect
         x="0"
         y="0"
         width="4000"
         height="4000"
         id="rect1002" /></g></g></clipPath><clipPath
   clipPathUnits="userSpaceOnUse"
   id="clipPath1008"><g
     id="g1014"><g
       id="g1012"><rect
         x="0"
         y="0"
         width="4000"
         height="4000"
         id="rect1010" /></g></g></clipPath><clipPath
   clipPathUnits="userSpaceOnUse"
   id="clipPath1016"><g
     id="g1022"><g
       id="g1020"><rect
         x="0"
         y="0"
         width="4000"
         height="4000"
         id="rect1018" /></g></g></clipPath><clipPath
   clipPathUnits="userSpaceOnUse"
   id="clipPath1024"><g
     id="g1030"><g
       id="g1028"><rect
         x="0"
         y="0"
         width="4000"
         height="4000"
         id="rect1026" /></g></g></clipPath><clipPath
   clipPathUnits="userSpaceOnUse"
   id="clipPath1032"><g
     id="g1038"><g
       id="g1036"><rect
         x="0"
         y="0"
         width="4000"
         height="4000"
         id="rect1034" /></g></g></clipPath>
  
 
   
  
    
   
     
    
      
      
      
      
      
      
      
      
      
      
      
      
      
      
      
      
      
      
     <clipPath
   clipPathUnits="userSpaceOnUse"
   id="clipPath12970"><g
     id="g12976"
     transform="translate(-5491.0253,-863.39826)"><g
       id="g12974"><rect
         x="5491.0254"
         y="863.39825"
         width="4000"
         height="4000"
         id="rect12972" /></g></g></clipPath><clipPath
   clipPathUnits="userSpaceOnUse"
   id="clipPath12978"><g
     id="g12984"
     transform="translate(-5491.0253,-863.39826)"><g
       id="g12982"><rect
         x="5491.0254"
         y="863.39825"
         width="4000"
         height="4000"
         id="rect12980" /></g></g></clipPath><clipPath
   clipPathUnits="userSpaceOnUse"
   id="clipPath12986"><g
     id="g12992"
     transform="translate(-5491.0253,-863.39826)"><g
       id="g12990"><rect
         x="5491.0254"
         y="863.39825"
         width="4000"
         height="4000"
         id="rect12988" /></g></g></clipPath><clipPath
   clipPathUnits="userSpaceOnUse"
   id="clipPath12994"><g
     id="g13000"
     transform="translate(-5491.0253,-863.39826)"><g
       id="g12998"><rect
         x="5491.0254"
         y="863.39825"
         width="4000"
         height="4000"
         id="rect12996" /></g></g></clipPath><clipPath
   clipPathUnits="userSpaceOnUse"
   id="clipPath13002"><g
     id="g13008"
     transform="translate(-5491.0253,-863.39826)"><g
       id="g13006"><rect
         x="5491.0254"
         y="863.39825"
         width="4000"
         height="4000"
         id="rect13004" /></g></g></clipPath><clipPath
   clipPathUnits="userSpaceOnUse"
   id="clipPath13010"><g
     id="g13016"
     transform="translate(-5491.0253,-863.39826)"><g
       id="g13014"><rect
         x="5491.0254"
         y="863.39825"
         width="4000"
         height="4000"
         id="rect13012" /></g></g></clipPath><clipPath
   clipPathUnits="userSpaceOnUse"
   id="clipPath13018"><g
     id="g13024"
     transform="translate(-5491.0253,-863.39826)"><g
       id="g13022"><rect
         x="5491.0254"
         y="863.39825"
         width="4000"
         height="4000"
         id="rect13020" /></g></g></clipPath><clipPath
   clipPathUnits="userSpaceOnUse"
   id="clipPath13026"><g
     id="g13032"
     transform="translate(-5491.0253,-863.39826)"><g
       id="g13030"><rect
         x="5491.0254"
         y="863.39825"
         width="4000"
         height="4000"
         id="rect13028" /></g></g></clipPath><clipPath
   clipPathUnits="userSpaceOnUse"
   id="clipPath13034"><g
     id="g13040"
     transform="translate(-5491.0253,-863.39826)"><g
       id="g13038"><rect
         x="5491.0254"
         y="863.39825"
         width="4000"
         height="4000"
         id="rect13036" /></g></g></clipPath><clipPath
   clipPathUnits="userSpaceOnUse"
   id="clipPath13042"><g
     id="g13048"
     transform="translate(-5491.0253,-863.39826)"><g
       id="g13046"><rect
         x="5491.0254"
         y="863.39825"
         width="4000"
         height="4000"
         id="rect13044" /></g></g></clipPath><clipPath
   clipPathUnits="userSpaceOnUse"
   id="clipPath13050"><g
     id="g13056"
     transform="translate(-5491.0253,-863.39826)"><g
       id="g13054"><rect
         x="5491.0254"
         y="863.39825"
         width="4000"
         height="4000"
         id="rect13052" /></g></g></clipPath><clipPath
   clipPathUnits="userSpaceOnUse"
   id="clipPath13058"><g
     id="g13064"
     transform="translate(-5491.0253,-863.39826)"><g
       id="g13062"><rect
         x="5491.0254"
         y="863.39825"
         width="4000"
         height="4000"
         id="rect13060" /></g></g></clipPath><clipPath
   clipPathUnits="userSpaceOnUse"
   id="clipPath13066"><g
     id="g13072"
     transform="translate(-5491.0253,-863.39826)"><g
       id="g13070"><rect
         x="5491.0254"
         y="863.39825"
         width="4000"
         height="4000"
         id="rect13068" /></g></g></clipPath><clipPath
   clipPathUnits="userSpaceOnUse"
   id="clipPath13074"><g
     id="g13080"
     transform="translate(-5491.0253,-863.39826)"><g
       id="g13078"><rect
         x="5491.0254"
         y="863.39825"
         width="4000"
         height="4000"
         id="rect13076" /></g></g></clipPath><clipPath
   clipPathUnits="userSpaceOnUse"
   id="clipPath13082"><g
     id="g13088"
     transform="translate(-5491.0253,-863.39826)"><g
       id="g13086"><rect
         x="5491.0254"
         y="863.39825"
         width="4000"
         height="4000"
         id="rect13084" /></g></g></clipPath><clipPath
   clipPathUnits="userSpaceOnUse"
   id="clipPath13090"><g
     id="g13096"
     transform="translate(-5491.0253,-863.39826)"><g
       id="g13094"><rect
         x="5491.0254"
         y="863.39825"
         width="4000"
         height="4000"
         id="rect13092" /></g></g></clipPath><clipPath
   clipPathUnits="userSpaceOnUse"
   id="clipPath13098"><g
     id="g13104"
     transform="translate(-5491.0253,-863.39826)"><g
       id="g13102"><rect
         x="5491.0254"
         y="863.39825"
         width="4000"
         height="4000"
         id="rect13100" /></g></g></clipPath><clipPath
   clipPathUnits="userSpaceOnUse"
   id="clipPath13106"><g
     id="g13112"
     transform="translate(-5491.0253,-863.39826)"><g
       id="g13110"><rect
         x="5491.0254"
         y="863.39825"
         width="4000"
         height="4000"
         id="rect13108" /></g></g></clipPath></defs>
 <defs
   class="TextShapeIndex"
   id="defs142">
  <g
   ooo:slide="id1"
   ooo:id-list="id3 id4 id5 id6 id7 id8 id9 id10 id11 id12 id13 id14 id15"
   id="g140" />
 </defs>
 <defs
   class="EmbeddedBulletChars"
   id="defs174">
  <g
   id="bullet-char-template-57356"
   transform="matrix(4.8828125e-4,0,0,-4.8828125e-4,0,0)">
   <path
   d="M 580,1141 1163,571 580,0 -4,571 Z"
   id="path144" />
  </g>
  <g
   id="bullet-char-template-57354"
   transform="matrix(4.8828125e-4,0,0,-4.8828125e-4,0,0)">
   <path
   d="M 8,1128 H 1137 V 0 H 8 Z"
   id="path147" />
  </g>
  <g
   id="bullet-char-template-10146"
   transform="matrix(4.8828125e-4,0,0,-4.8828125e-4,0,0)">
   <path
   d="M 174,0 602,739 174,1481 1456,739 Z M 1358,739 309,1346 659,739 Z"
   id="path150" />
  </g>
  <g
   id="bullet-char-template-10132"
   transform="matrix(4.8828125e-4,0,0,-4.8828125e-4,0,0)">
   <path
   d="M 2015,739 1276,0 H 717 l 543,543 H 174 v 393 h 1086 l -543,545 h 557 z"
   id="path153" />
  </g>
  <g
   id="bullet-char-template-10007"
   transform="matrix(4.8828125e-4,0,0,-4.8828125e-4,0,0)">
   <path
   d="m 0,-2 c -7,16 -16,29 -25,39 l 381,530 c -94,256 -141,385 -141,387 0,25 13,38 40,38 9,0 21,-2 34,-5 21,4 42,12 65,25 l 27,-13 111,-251 280,301 64,-25 24,25 c 21,-10 41,-24 62,-43 C 886,937 835,863 770,784 769,783 710,716 594,584 L 774,223 c 0,-27 -21,-55 -63,-84 l 16,-20 C 717,90 699,76 672,76 641,76 570,178 457,381 L 164,-76 c -22,-34 -53,-51 -92,-51 -42,0 -63,17 -64,51 -7,9 -10,24 -10,44 0,9 1,19 2,30 z"
   id="path156" />
  </g>
  <g
   id="bullet-char-template-10004"
   transform="matrix(4.8828125e-4,0,0,-4.8828125e-4,0,0)">
   <path
   d="M 285,-33 C 182,-33 111,30 74,156 52,228 41,333 41,471 c 0,78 14,145 41,201 34,71 87,106 158,106 53,0 88,-31 106,-94 l 23,-176 c 8,-64 28,-97 59,-98 l 735,706 c 11,11 33,17 66,17 42,0 63,-15 63,-46 V 965 c 0,-36 -10,-64 -30,-84 L 442,47 C 390,-6 338,-33 285,-33 Z"
   id="path159" />
  </g>
  <g
   id="bullet-char-template-9679"
   transform="matrix(4.8828125e-4,0,0,-4.8828125e-4,0,0)">
   <path
   d="M 813,0 C 632,0 489,54 383,161 276,268 223,411 223,592 c 0,181 53,324 160,431 106,107 249,161 430,161 179,0 323,-54 432,-161 108,-107 162,-251 162,-431 0,-180 -54,-324 -162,-431 C 1136,54 992,0 813,0 Z"
   id="path162" />
  </g>
  <g
   id="bullet-char-template-8226"
   transform="matrix(4.8828125e-4,0,0,-4.8828125e-4,0,0)">
   <path
   d="m 346,457 c -73,0 -137,26 -191,78 -54,51 -81,114 -81,188 0,73 27,136 81,188 54,52 118,78 191,78 73,0 134,-26 185,-79 51,-51 77,-114 77,-187 0,-75 -25,-137 -76,-188 -50,-52 -112,-78 -186,-78 z"
   id="path165" />
  </g>
  <g
   id="bullet-char-template-8211"
   transform="matrix(4.8828125e-4,0,0,-4.8828125e-4,0,0)">
   <path
   d="M -4,459 H 1135 V 606 H -4 Z"
   id="path168" />
  </g>
  <g
   id="bullet-char-template-61548"
   transform="matrix(4.8828125e-4,0,0,-4.8828125e-4,0,0)">
   <path
   d="m 173,740 c 0,163 58,303 173,419 116,115 255,173 419,173 163,0 302,-58 418,-173 116,-116 174,-256 174,-419 0,-163 -58,-303 -174,-418 C 1067,206 928,148 765,148 601,148 462,206 346,322 231,437 173,577 173,740 Z"
   id="path171" />
  </g>
 </defs>
 
 <g
   class="com.sun.star.drawing.CustomShape"
   id="g188"
   clip-path="url(#clipPath1032)"
   transform="matrix(1.3280481,0,0,1.3280481,-10.926874,288.53575)">
       <g
   id="id3">
        
        <path
   fill="#5eb91e"
   stroke="none"
   d="m 1060,2498 c 116,116 219,243 296,367 78,124 129,241 147,340 18,98 3,174 -44,221 -46,46 -122,61 -221,43 -98,-19 -215,-69 -340,-147 C 774,3244 648,3142 531,3026 414,2909 312,2782 234,2658 157,2534 106,2417 88,2319 c -18,-99 -3,-175 43,-221 47,-47 123,-61 221,-43 99,18 216,68 340,146 124,78 251,180 368,297 z"
   id="path183" />
        <path
   fill="none"
   stroke="#395511"
   stroke-width="35"
   stroke-linejoin="round"
   d="m 1060,2498 c 116,116 219,243 296,367 78,124 129,241 147,340 18,98 3,174 -44,221 -46,46 -122,61 -221,43 -98,-19 -215,-69 -340,-147 C 774,3244 648,3142 531,3026 414,2909 312,2782 234,2658 157,2534 106,2417 88,2319 c -18,-99 -3,-175 43,-221 47,-47 123,-61 221,-43 99,18 216,68 340,146 124,78 251,180 368,297 z"
   id="path185" />
       </g>
      </g><g
   class="com.sun.star.drawing.CustomShape"
   id="g197"
   clip-path="url(#clipPath1024)"
   transform="matrix(1.3280481,0,0,1.3280481,-10.926874,288.53575)">
       <g
   id="id4">
        
        <path
   fill="#5eb91e"
   stroke="none"
   d="m 897,3409 v 0 c -15,0 -31,4 -44,12 -13,8 -24,19 -32,32 -8,13 -12,29 -12,44 v -1 1 c 0,15 4,31 12,44 8,13 19,24 32,32 13,8 29,12 44,12 l 519,-1 v 1 c 15,0 31,-4 44,-12 13,-8 24,-19 32,-32 8,-13 12,-29 12,-44 v -1 1 0 c 0,-15 -4,-31 -12,-44 -8,-13 -19,-24 -32,-32 -13,-8 -29,-12 -44,-12 z"
   id="path192" />
        <path
   fill="none"
   stroke="#395511"
   stroke-width="35"
   stroke-linejoin="round"
   d="m 897,3409 v 0 c -15,0 -31,4 -44,12 -13,8 -24,19 -32,32 -8,13 -12,29 -12,44 v -1 1 c 0,15 4,31 12,44 8,13 19,24 32,32 13,8 29,12 44,12 l 519,-1 v 1 c 15,0 31,-4 44,-12 13,-8 24,-19 32,-32 8,-13 12,-29 12,-44 v -1 1 0 c 0,-15 -4,-31 -12,-44 -8,-13 -19,-24 -32,-32 -13,-8 -29,-12 -44,-12 z"
   id="path194" />
       </g>
      </g><g
   class="com.sun.star.drawing.CustomShape"
   id="g206"
   clip-path="url(#clipPath1016)"
   transform="matrix(1.3280481,0,0,1.3280481,-10.926874,288.53575)">
       <g
   id="id5">
        
        <path
   fill="#5eb91e"
   stroke="none"
   d="m 2942,2495 c -116,117 -218,243 -296,367 -78,124 -129,241 -147,340 -18,98 -4,174 42,220 47,47 123,62 221,43 98,-18 215,-68 339,-146 124,-77 251,-180 367,-296 117,-117 219,-243 297,-367 78,-124 128,-241 147,-340 18,-98 3,-174 -43,-220 -46,-47 -122,-62 -220,-43 -98,18 -215,68 -339,146 -124,77 -251,180 -368,296 z"
   id="path201" />
        <path
   fill="none"
   stroke="#395511"
   stroke-width="35"
   stroke-linejoin="round"
   d="m 2942,2495 c -116,117 -218,243 -296,367 -78,124 -129,241 -147,340 -18,98 -4,174 42,220 47,47 123,62 221,43 98,-18 215,-68 339,-146 124,-77 251,-180 367,-296 117,-117 219,-243 297,-367 78,-124 128,-241 147,-340 18,-98 3,-174 -43,-220 -46,-47 -122,-62 -220,-43 -98,18 -215,68 -339,146 -124,77 -251,180 -368,296 z"
   id="path203" />
       </g>
      </g><g
   class="com.sun.star.drawing.CustomShape"
   id="g215"
   clip-path="url(#clipPath1008)"
   transform="matrix(1.3280481,0,0,1.3280481,-10.926874,288.53575)">
       <g
   id="id6">
        
        <path
   fill="#5eb91e"
   stroke="none"
   d="m 3189,3457 v 0 c 11,0 22,3 32,9 10,5 18,13 23,23 6,10 9,21 9,32 v 0 0 c 0,11 -3,22 -9,32 -5,10 -13,18 -23,23 -10,6 -21,9 -32,9 h -633 v 0 c -11,0 -22,-3 -32,-9 -10,-5 -18,-13 -23,-23 -6,-10 -9,-21 -9,-32 v 0 0 0 c 0,-11 3,-22 9,-32 5,-10 13,-18 23,-23 10,-6 21,-9 32,-9 z"
   id="path210" />
        <path
   fill="none"
   stroke="#395511"
   stroke-width="35"
   stroke-linejoin="round"
   d="m 3189,3457 v 0 c 11,0 22,3 32,9 10,5 18,13 23,23 6,10 9,21 9,32 v 0 0 c 0,11 -3,22 -9,32 -5,10 -13,18 -23,23 -10,6 -21,9 -32,9 h -633 v 0 c -11,0 -22,-3 -32,-9 -10,-5 -18,-13 -23,-23 -6,-10 -9,-21 -9,-32 v 0 0 0 c 0,-11 3,-22 9,-32 5,-10 13,-18 23,-23 10,-6 21,-9 32,-9 z"
   id="path212" />
       </g>
      </g><g
   class="com.sun.star.drawing.ClosedBezierShape"
   id="g224"
   clip-path="url(#clipPath1000)"
   transform="matrix(1.3280481,0,0,1.3280481,-10.926874,288.53575)">
       <g
   id="id7">
        
        <path
   fill="#5eb91e"
   stroke="none"
   d="m 1031,1357 c 7,-222 126,-348 370,-355 199,14 348,133 348,348 h 37 v -2 h 468 c 0,-215 148,-332 347,-348 244,7 364,133 370,354 7,237 273,816 222,1134 -67,390 -370,1095 -541,1095 h -436 v 2 h -866 c -171,0 -474,-704 -541,-1097 -50,-316 215,-894 222,-1131 z"
   id="path219" />
        <path
   fill="none"
   stroke="#395511"
   stroke-width="35"
   stroke-linejoin="round"
   d="m 1031,1357 c 7,-222 126,-348 370,-355 199,14 348,133 348,348 h 37 v -2 h 468 c 0,-215 148,-332 347,-348 244,7 364,133 370,354 7,237 273,816 222,1134 -67,390 -370,1095 -541,1095 h -436 v 2 h -866 c -171,0 -474,-704 -541,-1097 -50,-316 215,-894 222,-1131 z"
   id="path221" />
       </g>
      </g><g
   class="com.sun.star.drawing.CustomShape"
   id="g233"
   clip-path="url(#clipPath992)"
   transform="matrix(1.3280481,0,0,1.3280481,-10.926874,288.53575)">
       <g
   id="id8">
        
        <path
   fill="#ffffff"
   stroke="none"
   d="m 2379,1430 c 0,41 11,82 32,119 21,36 52,66 88,87 36,21 78,32 120,32 42,0 84,-11 120,-32 36,-21 67,-51 88,-87 21,-37 32,-78 32,-119 0,-42 -11,-83 -32,-120 -21,-36 -52,-66 -88,-87 -36,-21 -78,-32 -120,-32 -42,0 -84,11 -120,32 -36,21 -67,51 -88,87 -21,37 -32,78 -32,119 z"
   id="path228" />
        <path
   fill="none"
   stroke="#395511"
   stroke-width="35"
   stroke-linejoin="round"
   d="m 2379,1430 c 0,41 11,82 32,119 21,36 52,66 88,87 36,21 78,32 120,32 42,0 84,-11 120,-32 36,-21 67,-51 88,-87 21,-37 32,-78 32,-119 0,-42 -11,-83 -32,-120 -21,-36 -52,-66 -88,-87 -36,-21 -78,-32 -120,-32 -42,0 -84,11 -120,32 -36,21 -67,51 -88,87 -21,37 -32,78 -32,119 z"
   id="path230" />
       </g>
      </g><g
   class="com.sun.star.drawing.CustomShape"
   id="g242"
   clip-path="url(#clipPath984)"
   transform="matrix(1.3280481,0,0,1.3280481,-10.926874,288.53575)">
       <g
   id="id9">
        
        <path
   fill="#000000"
   stroke="none"
   d="m 2461,1430 c 0,28 7,55 21,79 14,23 33,43 57,57 24,14 51,21 78,21 27,0 54,-7 78,-21 24,-14 43,-34 57,-57 14,-24 21,-51 21,-79 0,-28 -7,-55 -21,-78 -14,-24 -33,-44 -57,-58 -24,-14 -51,-21 -78,-21 -27,0 -54,7 -78,21 -24,14 -43,34 -57,58 -14,23 -21,50 -21,78 z"
   id="path237" />
        <path
   fill="none"
   stroke="#000000"
   stroke-width="35"
   stroke-linejoin="round"
   d="m 2461,1430 c 0,28 7,55 21,79 14,23 33,43 57,57 24,14 51,21 78,21 27,0 54,-7 78,-21 24,-14 43,-34 57,-57 14,-24 21,-51 21,-79 0,-28 -7,-55 -21,-78 -14,-24 -33,-44 -57,-58 -24,-14 -51,-21 -78,-21 -27,0 -54,7 -78,21 -24,14 -43,34 -57,58 -14,23 -21,50 -21,78 z"
   id="path239" />
       </g>
      </g><g
   class="com.sun.star.drawing.CustomShape"
   id="g251"
   clip-path="url(#clipPath976)"
   transform="matrix(1.3280481,0,0,1.3280481,-10.926874,288.53575)">
       <g
   id="id10">
        
        <path
   fill="#ffffff"
   stroke="none"
   d="m 1619,1432 c 0,41 -11,82 -32,119 -21,36 -51,66 -87,87 -37,21 -78,32 -119,32 -42,0 -83,-11 -120,-32 -36,-21 -66,-51 -87,-87 -21,-37 -32,-78 -32,-119 0,-42 11,-83 32,-120 21,-36 51,-66 87,-87 37,-21 78,-32 119,-32 42,0 83,11 120,32 36,21 66,51 87,87 21,37 32,78 32,119 z"
   id="path246" />
        <path
   fill="none"
   stroke="#395511"
   stroke-width="35"
   stroke-linejoin="round"
   d="m 1619,1432 c 0,41 -11,82 -32,119 -21,36 -51,66 -87,87 -37,21 -78,32 -119,32 -42,0 -83,-11 -120,-32 -36,-21 -66,-51 -87,-87 -21,-37 -32,-78 -32,-119 0,-42 11,-83 32,-120 21,-36 51,-66 87,-87 37,-21 78,-32 119,-32 42,0 83,11 120,32 36,21 66,51 87,87 21,37 32,78 32,119 z"
   id="path248" />
       </g>
      </g><g
   class="com.sun.star.drawing.CustomShape"
   id="g260"
   clip-path="url(#clipPath968)"
   transform="matrix(1.3280481,0,0,1.3280481,-10.926874,288.53575)">
       <g
   id="id11">
        <rect
   class="BoundingBox"
   stroke="none"
   fill="none"
   x="1207"
   y="1255"
   width="346"
   height="351"
   id="rect253" />
        <path
   fill="#000000"
   stroke="none"
   d="m 1534,1430 c 0,28 -7,55 -21,79 -13,23 -33,43 -56,57 -24,14 -50,21 -77,21 -28,0 -54,-7 -78,-21 -23,-14 -43,-34 -56,-57 -14,-24 -21,-51 -21,-79 0,-28 7,-55 21,-78 13,-24 33,-44 56,-58 24,-14 50,-21 78,-21 27,0 53,7 77,21 23,14 43,34 56,58 14,23 21,50 21,78 z"
   id="path255" />
        <path
   fill="none"
   stroke="#000000"
   stroke-width="35"
   stroke-linejoin="round"
   d="m 1534,1430 c 0,28 -7,55 -21,79 -13,23 -33,43 -56,57 -24,14 -50,21 -77,21 -28,0 -54,-7 -78,-21 -23,-14 -43,-34 -56,-57 -14,-24 -21,-51 -21,-79 0,-28 7,-55 21,-78 13,-24 33,-44 56,-58 24,-14 50,-21 78,-21 27,0 53,7 77,21 23,14 43,34 56,58 14,23 21,50 21,78 z"
   id="path257" />
       </g>
      </g><g
   class="com.sun.star.drawing.ClosedBezierShape"
   id="g269"
   clip-path="url(#clipPath960)"
   transform="matrix(1.3280481,0,0,1.3280481,-10.926874,288.53575)">
       <g
   id="id12">
        
        <path
   fill="#000000"
   stroke="none"
   d="m 2734,2112 c -35,42 -82,79 -135,113 -53,33 -113,59 -177,84 -128,46 -272,71 -421,71 -148,0 -294,-25 -423,-71 -62,-25 -122,-51 -175,-84 -53,-34 -97,-71 -137,-113 -29,-34 -53,-67 -71,-102 l 35,-49 c 18,40 45,78 78,113 33,38 75,73 124,104 51,31 104,58 166,80 122,44 261,68 403,68 142,0 282,-24 403,-68 60,-22 116,-49 167,-80 48,-31 88,-66 124,-104 33,-35 57,-73 75,-113 l 38,51 c -20,33 -45,66 -74,100 z"
   id="path264" />
        <path
   fill="none"
   stroke="#000000"
   stroke-width="35"
   stroke-linejoin="round"
   d="m 2734,2112 c -35,42 -82,79 -135,113 -53,33 -113,59 -177,84 -128,46 -272,71 -421,71 -148,0 -294,-25 -423,-71 -62,-25 -122,-51 -175,-84 -53,-34 -97,-71 -137,-113 -29,-34 -53,-67 -71,-102 l 35,-49 c 18,40 45,78 78,113 33,38 75,73 124,104 51,31 104,58 166,80 122,44 261,68 403,68 142,0 282,-24 403,-68 60,-22 116,-49 167,-80 48,-31 88,-66 124,-104 33,-35 57,-73 75,-113 l 38,51 c -20,33 -45,66 -74,100 z"
   id="path266" />
       </g>
      </g><g
   class="com.sun.star.drawing.ClosedBezierShape"
   id="g278"
   clip-path="url(#clipPath952)"
   transform="matrix(1.3280481,0,0,1.3280481,-10.926874,288.53575)">
       <g
   id="id13">
        
        <path
   fill="#bbe33d"
   stroke="none"
   d="m 1999,2650 c 89,0 175,22 250,66 76,45 138,107 182,182 44,75 67,162 67,248 v 284 c 0,53 -9,104 -25,153 h -257 v 2 h -689 c -15,-49 -24,-102 -24,-155 v -284 c 0,-86 22,-173 66,-248 45,-75 107,-137 182,-182 75,-44 162,-66 248,-66 z"
   id="path273" />
        <path
   fill="none"
   stroke="#395511"
   stroke-width="35"
   stroke-linejoin="round"
   d="m 1999,2650 c 89,0 175,22 250,66 76,45 138,107 182,182 44,75 67,162 67,248 v 284 c 0,53 -9,104 -25,153 h -257 v 2 h -689 c -15,-49 -24,-102 -24,-155 v -284 c 0,-86 22,-173 66,-248 45,-75 107,-137 182,-182 75,-44 162,-66 248,-66 z"
   id="path275" />
       </g>
      </g><g
   class="com.sun.star.drawing.ClosedBezierShape"
   id="g287"
   clip-path="url(#clipPath944)"
   transform="matrix(1.3280481,0,0,1.3280481,-10.926874,288.53575)"
   style="display:inline">
       <g
   id="id14">
        
        <path
   fill="#5eb91e"
   stroke="none"
   d="m 1044,3585 c 0,0 0,-2 0,-5 0,-46 20,-95 60,-135 37,-42 93,-75 159,-102 67,-22 142,-35 220,-35 77,0 152,13 219,35 66,27 122,60 159,102 40,40 60,89 60,135 0,3 0,5 0,5 z"
   id="path282" />
        <path
   fill="none"
   stroke="#395511"
   stroke-width="35"
   stroke-linejoin="round"
   d="m 1044,3585 v -5 c 0,-46 20,-95 60,-135 37,-42 93,-75 159,-102 67,-22 142,-35 220,-35 77,0 152,13 219,35 66,27 122,60 159,102 40,40 60,89 60,135 v 5 z"
   id="path284" />
       </g>
      </g><g
   class="com.sun.star.drawing.ClosedBezierShape"
   id="g296"
   clip-path="url(#clipPath936)"
   transform="matrix(1.3280481,0,0,1.3280481,-10.926874,288.53575)">
       <g
   id="id15">
        
        <path
   fill="#5eb91e"
   stroke="none"
   d="m 2134,3585 c 0,0 0,-2 0,-5 0,-46 20,-95 60,-135 37,-42 93,-75 159,-102 67,-22 142,-35 220,-35 77,0 152,13 219,35 66,27 122,60 159,102 40,40 60,89 60,135 0,3 0,5 0,5 z"
   id="path291"
   style="display:inline" />
        <path
   fill="none"
   stroke="#395511"
   stroke-width="35"
   stroke-linejoin="round"
   d="m 2134,3585 v -5 c 0,-46 20,-95 60,-135 37,-42 93,-75 159,-102 67,-22 142,-35 220,-35 77,0 152,13 219,35 66,27 122,60 159,102 40,40 60,89 60,135 v 5 z"
   id="path293"
   style="display:inline" />
       </g>
      </g>
   
  
<g
   class="com.sun.star.drawing.ClosedBezierShape"
   id="g2874"
   transform="matrix(1.4606225,0,0,1.4606225,-548.10605,33.515089)"
   clip-path="url(#clipPath12994)">
       <g
   id="id17">
        
        <path
   fill="#666666"
   stroke="none"
   d="m 3210,1131 3,-6 c 8,5 19,7 28,11 5,2 10,5 14,9 2,2 4,4 5,6 1,3 2,6 2,9 1,1 1,1 1,2 0,2 -1,5 -2,8 -1,2 -2,5 -3,7 -3,5 -7,9 -12,12 -4,4 -9,7 -14,9 -6,2 -11,3 -16,3 -1,0 -1,0 -2,0 -8,-1 -17,-3 -25,-7 -8,-3 -16,-8 -23,-14 -7,-7 -13,-14 -18,-21 -2,-4 -4,-8 -5,-12 -1,-4 -2,-8 -2,-13 0,-2 0,-4 1,-7 1,-6 3,-11 5,-17 3,-5 7,-10 11,-14 7,-9 18,-16 29,-22 12,-6 24,-11 37,-14 13,-2 26,-4 39,-4 10,0 19,1 28,3 9,2 16,5 24,9 7,4 14,9 20,14 12,11 22,25 32,40 19,28 35,61 56,85 l -5,5 -6,4 c -21,-24 -38,-58 -57,-87 -9,-13 -18,-26 -30,-36 -5,-5 -11,-10 -17,-13 -6,-3 -13,-6 -20,-7 -8,-2 -16,-3 -25,-3 -12,0 -24,1 -36,4 -12,3 -23,7 -33,12 -10,5 -19,12 -26,19 -3,4 -6,8 -8,12 -2,4 -4,8 -5,13 0,1 0,3 0,4 0,3 0,6 1,9 1,3 3,6 4,9 4,6 9,12 15,17 6,5 13,9 20,12 7,3 13,5 20,6 h 1 c 3,0 7,-1 11,-3 4,-1 8,-3 11,-6 3,-2 6,-5 8,-8 1,-1 1,-3 2,-4 0,-2 1,-3 1,-4 0,-1 0,-1 0,-1 -1,-1 -1,-2 -1,-3 -1,-1 -2,-2 -3,-3 -2,-3 -6,-4 -10,-6 -10,-4 -21,-7 -29,-12 z"
   id="path2871" />
       </g>
      </g><g
   class="com.sun.star.drawing.ClosedBezierShape"
   id="g2883"
   transform="matrix(1.4606225,0,0,1.4606225,-548.10605,33.515089)"
   clip-path="url(#clipPath12986)">
       <g
   id="id18">
        
        <path
   fill="#dddddd"
   stroke="none"
   d="m 3530,1239 c -16,-104 -23,-183 -9,-296 11,-70 50,-165 131,-187 47,-12 81,61 68,131 -23,135 -66,257 -190,352 z"
   id="path2878" />
        <path
   fill="none"
   stroke="#666666"
   stroke-width="35"
   stroke-linejoin="round"
   d="m 3530,1239 c -16,-104 -23,-183 -9,-296 11,-70 50,-165 131,-187 47,-12 81,61 68,131 -23,135 -66,257 -190,352 z"
   id="path2880" />
       </g>
      </g><g
   class="com.sun.star.drawing.ClosedBezierShape"
   id="g2892"
   transform="matrix(1.4606225,0,0,1.4606225,-548.10605,33.515089)"
   clip-path="url(#clipPath12978)">
       <g
   id="id19">
        
        <path
   fill="#dddddd"
   stroke="none"
   d="m 3531,1240 c 29,-101 56,-176 117,-272 39,-59 115,-129 197,-114 48,9 48,89 7,147 -78,113 -169,205 -321,239 z"
   id="path2887" />
        <path
   fill="none"
   stroke="#666666"
   stroke-width="35"
   stroke-linejoin="round"
   d="m 3531,1240 c 29,-101 56,-176 117,-272 39,-59 115,-129 197,-114 48,9 48,89 7,147 -78,113 -169,205 -321,239 z"
   id="path2889" />
       </g>
      </g><g
   class="com.sun.star.drawing.ClosedBezierShape"
   id="g2901"
   transform="matrix(1.4606225,0,0,1.4606225,-548.10605,33.515089)"
   clip-path="url(#clipPath12970)">
       <g
   id="id20">
        
        <path
   fill="#b47804"
   stroke="none"
   d="m 3418,1318 c -19,-6 -45,-19 -45,-39 -1,-43 16,-54 54,-74 5,-3 51,-17 57,-16 47,8 82,49 126,66 79,30 159,34 245,61 20,6 10,38 -3,43 -190,-30 -284,-16 -434,-41 z"
   id="path2896" />
        <path
   fill="none"
   stroke="#472702"
   stroke-width="35"
   stroke-linejoin="round"
   d="m 3418,1318 c -19,-6 -45,-19 -45,-39 -1,-43 16,-54 54,-74 5,-3 51,-17 57,-16 47,8 82,49 126,66 79,30 159,34 245,61 20,6 10,38 -3,43 -190,-30 -284,-16 -434,-41 z"
   id="path2898" />
       </g>
      </g>
   
  <path
   style="fill:none;fill-rule:evenodd;stroke:#eca3a3;stroke-width:127.5;stroke-dasharray:none;stroke-opacity:1"
   d="m 2878.5827,3407.4575 c 626.8871,-119.0878 1349.7414,-545.823 1609.5316,-852.2572"
   id="path13215"
   sodipodi:nodetypes="cc" /><ellipse
   style="fill:#eca3a3;fill-opacity:1;fill-rule:evenodd;stroke:#eca3a3;stroke-width:127.5;stroke-dasharray:none;stroke-opacity:1"
   id="path17268"
   ry="100.4"
   rx="248.4424"
   cy="4932.9824"
   cx="1786.7872"
   transform="rotate(-43.252394)" /></svg>
