<?xml version="1.0" encoding="UTF-8" standalone="no"?>
<svg
   version="1.2"
   width="200"
   height="200"
   viewBox="0 0 5291.6667 5291.6667"
   preserveAspectRatio="xMidYMid"
   fill-rule="evenodd"
   stroke-width="28.222"
   stroke-linejoin="round"
   xml:space="preserve"
   id="svg142"
   sodipodi:docname="laurel_wreath.svg"
   inkscape:export-filename="laurel_wreath.png"
   inkscape:export-xdpi="96"
   inkscape:export-ydpi="96"
   inkscape:version="1.2.2 (b0a8486, 2022-12-01)"
   xmlns:inkscape="http://www.inkscape.org/namespaces/inkscape"
   xmlns:sodipodi="http://sodipodi.sourceforge.net/DTD/sodipodi-0.dtd"
   xmlns="http://www.w3.org/2000/svg"
   xmlns:svg="http://www.w3.org/2000/svg"
   xmlns:ooo="http://xml.openoffice.org/svg/export"><sodipodi:namedview
   id="namedview144"
   pagecolor="#ffffff"
   bordercolor="#000000"
   borderopacity="0.25"
   inkscape:showpageshadow="2"
   inkscape:pageopacity="0.0"
   inkscape:pagecheckerboard="0"
   inkscape:deskcolor="#d1d1d1"
   inkscape:document-units="mm"
   showgrid="false"
   inkscape:zoom="2.36"
   inkscape:cx="143.22034"
   inkscape:cy="106.14407"
   inkscape:window-width="1440"
   inkscape:window-height="847"
   inkscape:window-x="0"
   inkscape:window-y="25"
   inkscape:window-maximized="1"
   inkscape:current-layer="svg142" />
 <defs
   class="ClipPathGroup"
   id="defs8">
  
  <clipPath
   id="presentation_clip_path_shrink"
   clipPathUnits="userSpaceOnUse">
   <rect
   x="4"
   y="4"
   width="3992"
   height="3992"
   id="rect5" />
  </clipPath>
 
  
 
   
  
    
   
     
    
      
     <clipPath
   clipPathUnits="userSpaceOnUse"
   id="clipPath754"><g
     id="g760"
     transform="matrix(0.66396102,0,0,0.66396102,244.27001,245.77001)"><g
       id="g758"><rect
         x="-367.89816"
         y="-370.15732"
         width="6024.4507"
         height="6024.4507"
         id="rect756"
         style="stroke-width:42.5055" /></g></g></clipPath>
       
       
       
       
       
       
       
       
       
       
       
       
       
       
       
       
       
       
       
       
       
       
       
       
       
       
       
       
       
       
       
       
       
       
       
       
      <clipPath
   clipPathUnits="userSpaceOnUse"
   id="clipPath26636"><g
     id="g26644"
     transform="matrix(0.49866673,0,0,0.49866673,24522.611,16266.611)"><g
       id="g26642"
       transform="matrix(2.0053476,0,0,2.0053476,-49176.359,-32620.21)"><g
         id="g26640"><rect
           x="0"
           y="0"
           width="28000"
           height="21000"
           id="rect26638" /></g></g></g></clipPath>
        
       <clipPath
   clipPathUnits="userSpaceOnUse"
   id="clipPath26659"><g
     id="g26669"
     transform="matrix(0.49866673,0,0,0.49866673,24522.611,16266.611)"><g
       id="g26667"
       transform="translate(1.145836e-4,-6.710164e-4)"><g
         id="g26665"
         transform="matrix(2.0053476,0,0,2.0053476,-49176.359,-32620.21)"><g
           id="g26663"><rect
             x="0"
             y="0"
             width="28000"
             height="21000"
             id="rect26661" /></g></g></g></g></clipPath>
        
       <clipPath
   clipPathUnits="userSpaceOnUse"
   id="clipPath26684"><g
     id="g26694"
     transform="matrix(0.49866673,0,0,0.49866673,24522.611,16266.611)"><g
       id="g26692"
       transform="translate(1.145836e-4,-6.710164e-4)"><g
         id="g26690"
         transform="matrix(2.0053476,0,0,2.0053476,-49176.359,-32620.21)"><g
           id="g26688"><rect
             x="0"
             y="0"
             width="28000"
             height="21000"
             id="rect26686" /></g></g></g></g></clipPath>
        
       <clipPath
   clipPathUnits="userSpaceOnUse"
   id="clipPath26709"><g
     id="g26719"
     transform="matrix(0.49866673,0,0,0.49866673,24522.611,16266.611)"><g
       id="g26717"
       transform="translate(1.145836e-4,-6.710164e-4)"><g
         id="g26715"
         transform="matrix(2.0053476,0,0,2.0053476,-49176.359,-32620.21)"><g
           id="g26713"><rect
             x="0"
             y="0"
             width="28000"
             height="21000"
             id="rect26711" /></g></g></g></g></clipPath>
        
       <clipPath
   clipPathUnits="userSpaceOnUse"
   id="clipPath26734"><g
     id="g26744"
     transform="matrix(0.49866673,0,0,0.49866673,24522.611,16266.611)"><g
       id="g26742"
       transform="translate(1.145836e-4,-6.710164e-4)"><g
         id="g26740"
         transform="matrix(2.0053476,0,0,2.0053476,-49176.359,-32620.21)"><g
           id="g26738"><rect
             x="0"
             y="0"
             width="28000"
             height="21000"
             id="rect26736" /></g></g></g></g></clipPath>
        
       <clipPath
   clipPathUnits="userSpaceOnUse"
   id="clipPath26759"><g
     id="g26769"
     transform="matrix(0.49866673,0,0,0.49866673,24522.611,16266.611)"><g
       id="g26767"
       transform="translate(1.145836e-4,-6.710164e-4)"><g
         id="g26765"
         transform="matrix(2.0053476,0,0,2.0053476,-49176.359,-32620.21)"><g
           id="g26763"><rect
             x="0"
             y="0"
             width="28000"
             height="21000"
             id="rect26761" /></g></g></g></g></clipPath>
        
       <clipPath
   clipPathUnits="userSpaceOnUse"
   id="clipPath26784"><g
     id="g26794"
     transform="matrix(0.49866673,0,0,0.49866673,24522.611,16266.611)"><g
       id="g26792"
       transform="translate(1.145836e-4,-6.710164e-4)"><g
         id="g26790"
         transform="matrix(2.0053476,0,0,2.0053476,-49176.359,-32620.21)"><g
           id="g26788"><rect
             x="0"
             y="0"
             width="28000"
             height="21000"
             id="rect26786" /></g></g></g></g></clipPath>
        
       <clipPath
   clipPathUnits="userSpaceOnUse"
   id="clipPath26809"><g
     id="g26819"
     transform="matrix(0.49866673,0,0,0.49866673,24522.611,16266.611)"><g
       id="g26817"
       transform="translate(1.145836e-4,-6.710164e-4)"><g
         id="g26815"
         transform="matrix(2.0053476,0,0,2.0053476,-49176.359,-32620.21)"><g
           id="g26813"><rect
             x="0"
             y="0"
             width="28000"
             height="21000"
             id="rect26811" /></g></g></g></g></clipPath>
        
       <clipPath
   clipPathUnits="userSpaceOnUse"
   id="clipPath26834"><g
     id="g26844"
     transform="matrix(0.49866673,0,0,0.49866673,24522.611,16266.611)"><g
       id="g26842"
       transform="translate(1.145836e-4,-6.710164e-4)"><g
         id="g26840"
         transform="matrix(2.0053476,0,0,2.0053476,-49176.359,-32620.21)"><g
           id="g26838"><rect
             x="0"
             y="0"
             width="28000"
             height="21000"
             id="rect26836" /></g></g></g></g></clipPath>
        
       <clipPath
   clipPathUnits="userSpaceOnUse"
   id="clipPath26859"><g
     id="g26869"
     transform="matrix(0.49866673,0,0,0.49866673,24522.611,16266.611)"><g
       id="g26867"
       transform="translate(1.145836e-4,-6.710164e-4)"><g
         id="g26865"
         transform="matrix(2.0053476,0,0,2.0053476,-49176.359,-32620.21)"><g
           id="g26863"><rect
             x="0"
             y="0"
             width="28000"
             height="21000"
             id="rect26861" /></g></g></g></g></clipPath>
        
       <clipPath
   clipPathUnits="userSpaceOnUse"
   id="clipPath26884"><g
     id="g26894"
     transform="matrix(0.49866673,0,0,0.49866673,24522.611,16266.611)"><g
       id="g26892"
       transform="translate(1.145836e-4,-6.710164e-4)"><g
         id="g26890"
         transform="matrix(2.0053476,0,0,2.0053476,-49176.359,-32620.21)"><g
           id="g26888"><rect
             x="0"
             y="0"
             width="28000"
             height="21000"
             id="rect26886" /></g></g></g></g></clipPath>
        
       <clipPath
   clipPathUnits="userSpaceOnUse"
   id="clipPath26909"><g
     id="g26919"
     transform="matrix(0.49866673,0,0,0.49866673,24522.611,16266.611)"><g
       id="g26917"
       transform="translate(1.145836e-4,-6.710164e-4)"><g
         id="g26915"
         transform="matrix(2.0053476,0,0,2.0053476,-49176.359,-32620.21)"><g
           id="g26913"><rect
             x="0"
             y="0"
             width="28000"
             height="21000"
             id="rect26911" /></g></g></g></g></clipPath>
        
       <clipPath
   clipPathUnits="userSpaceOnUse"
   id="clipPath26934"><g
     id="g26944"
     transform="matrix(0.49866673,0,0,0.49866673,24522.611,16266.611)"><g
       id="g26942"
       transform="translate(1.145836e-4,-6.710164e-4)"><g
         id="g26940"
         transform="matrix(2.0053476,0,0,2.0053476,-49176.359,-32620.21)"><g
           id="g26938"><rect
             x="0"
             y="0"
             width="28000"
             height="21000"
             id="rect26936" /></g></g></g></g></clipPath>
        
       <clipPath
   clipPathUnits="userSpaceOnUse"
   id="clipPath26959"><g
     id="g26969"
     transform="matrix(0.49866673,0,0,0.49866673,24522.611,16266.611)"><g
       id="g26967"
       transform="translate(1.145836e-4,-6.710164e-4)"><g
         id="g26965"
         transform="matrix(2.0053476,0,0,2.0053476,-49176.359,-32620.21)"><g
           id="g26963"><rect
             x="0"
             y="0"
             width="28000"
             height="21000"
             id="rect26961" /></g></g></g></g></clipPath>
        
       <clipPath
   clipPathUnits="userSpaceOnUse"
   id="clipPath26984"><g
     id="g26994"
     transform="matrix(0.49866673,0,0,0.49866673,24522.611,16266.611)"><g
       id="g26992"
       transform="translate(1.145836e-4,-6.710164e-4)"><g
         id="g26990"
         transform="matrix(2.0053476,0,0,2.0053476,-49176.359,-32620.21)"><g
           id="g26988"><rect
             x="0"
             y="0"
             width="28000"
             height="21000"
             id="rect26986" /></g></g></g></g></clipPath>
        
       <clipPath
   clipPathUnits="userSpaceOnUse"
   id="clipPath27009"><g
     id="g27019"
     transform="matrix(0.49866673,0,0,0.49866673,24522.611,16266.611)"><g
       id="g27017"
       transform="translate(1.145836e-4,-6.710164e-4)"><g
         id="g27015"
         transform="matrix(2.0053476,0,0,2.0053476,-49176.359,-32620.21)"><g
           id="g27013"><rect
             x="0"
             y="0"
             width="28000"
             height="21000"
             id="rect27011" /></g></g></g></g></clipPath>
        
       <clipPath
   clipPathUnits="userSpaceOnUse"
   id="clipPath27034"><g
     id="g27044"
     transform="matrix(0.49866673,0,0,0.49866673,24522.611,16266.611)"><g
       id="g27042"
       transform="translate(1.145836e-4,-6.710164e-4)"><g
         id="g27040"
         transform="matrix(2.0053476,0,0,2.0053476,-49176.359,-32620.21)"><g
           id="g27038"><rect
             x="0"
             y="0"
             width="28000"
             height="21000"
             id="rect27036" /></g></g></g></g></clipPath>
        
       <clipPath
   clipPathUnits="userSpaceOnUse"
   id="clipPath27059"><g
     id="g27069"
     transform="matrix(0.49866673,0,0,0.49866673,24522.611,16266.611)"><g
       id="g27067"
       transform="translate(1.145836e-4,-6.710164e-4)"><g
         id="g27065"
         transform="matrix(2.0053476,0,0,2.0053476,-49176.359,-32620.21)"><g
           id="g27063"><rect
             x="0"
             y="0"
             width="28000"
             height="21000"
             id="rect27061" /></g></g></g></g></clipPath>
        
       <clipPath
   clipPathUnits="userSpaceOnUse"
   id="clipPath27084"><g
     id="g27094"
     transform="matrix(0.49866673,0,0,0.49866673,24522.611,16266.611)"><g
       id="g27092"
       transform="translate(1.145836e-4,-6.710164e-4)"><g
         id="g27090"
         transform="matrix(2.0053476,0,0,2.0053476,-49176.359,-32620.21)"><g
           id="g27088"><rect
             x="0"
             y="0"
             width="28000"
             height="21000"
             id="rect27086" /></g></g></g></g></clipPath>
        
       <clipPath
   clipPathUnits="userSpaceOnUse"
   id="clipPath27109"><g
     id="g27119"
     transform="matrix(0.49866673,0,0,0.49866673,24522.611,16266.611)"><g
       id="g27117"
       transform="translate(1.145836e-4,-6.710164e-4)"><g
         id="g27115"
         transform="matrix(2.0053476,0,0,2.0053476,-49176.359,-32620.21)"><g
           id="g27113"><rect
             x="0"
             y="0"
             width="28000"
             height="21000"
             id="rect27111" /></g></g></g></g></clipPath>
        
       <clipPath
   clipPathUnits="userSpaceOnUse"
   id="clipPath27134"><g
     id="g27144"
     transform="matrix(0.49866673,0,0,0.49866673,24522.611,16266.611)"><g
       id="g27142"
       transform="translate(1.145836e-4,-6.710164e-4)"><g
         id="g27140"
         transform="matrix(2.0053476,0,0,2.0053476,-49176.359,-32620.21)"><g
           id="g27138"><rect
             x="0"
             y="0"
             width="28000"
             height="21000"
             id="rect27136" /></g></g></g></g></clipPath>
        
       <clipPath
   clipPathUnits="userSpaceOnUse"
   id="clipPath27159"><g
     id="g27169"
     transform="matrix(0.49866673,0,0,0.49866673,24522.611,16266.611)"><g
       id="g27167"
       transform="translate(1.145836e-4,-6.710164e-4)"><g
         id="g27165"
         transform="matrix(2.0053476,0,0,2.0053476,-49176.359,-32620.21)"><g
           id="g27163"><rect
             x="0"
             y="0"
             width="28000"
             height="21000"
             id="rect27161" /></g></g></g></g></clipPath>
        
       <clipPath
   clipPathUnits="userSpaceOnUse"
   id="clipPath27184"><g
     id="g27194"
     transform="matrix(0.49866673,0,0,0.49866673,24522.611,16266.611)"><g
       id="g27192"
       transform="translate(1.145836e-4,-6.710164e-4)"><g
         id="g27190"
         transform="matrix(2.0053476,0,0,2.0053476,-49176.359,-32620.21)"><g
           id="g27188"><rect
             x="0"
             y="0"
             width="28000"
             height="21000"
             id="rect27186" /></g></g></g></g></clipPath>
        
       <clipPath
   clipPathUnits="userSpaceOnUse"
   id="clipPath27209"><g
     id="g27219"
     transform="matrix(0.49866673,0,0,0.49866673,24522.611,16266.611)"><g
       id="g27217"
       transform="translate(1.145836e-4,-6.710164e-4)"><g
         id="g27215"
         transform="matrix(2.0053476,0,0,2.0053476,-49176.359,-32620.21)"><g
           id="g27213"><rect
             x="0"
             y="0"
             width="28000"
             height="21000"
             id="rect27211" /></g></g></g></g></clipPath>
        
       <clipPath
   clipPathUnits="userSpaceOnUse"
   id="clipPath27234"><g
     id="g27244"
     transform="matrix(0.49866673,0,0,0.49866673,24522.611,16266.611)"><g
       id="g27242"
       transform="translate(1.145836e-4,-6.710164e-4)"><g
         id="g27240"
         transform="matrix(2.0053476,0,0,2.0053476,-49176.359,-32620.21)"><g
           id="g27238"><rect
             x="0"
             y="0"
             width="28000"
             height="21000"
             id="rect27236" /></g></g></g></g></clipPath>
        
       <clipPath
   clipPathUnits="userSpaceOnUse"
   id="clipPath27259"><g
     id="g27269"
     transform="matrix(0.49866673,0,0,0.49866673,24522.611,16266.611)"><g
       id="g27267"
       transform="translate(1.145836e-4,-6.710164e-4)"><g
         id="g27265"
         transform="matrix(2.0053476,0,0,2.0053476,-49176.359,-32620.21)"><g
           id="g27263"><rect
             x="0"
             y="0"
             width="28000"
             height="21000"
             id="rect27261" /></g></g></g></g></clipPath>
        
       <clipPath
   clipPathUnits="userSpaceOnUse"
   id="clipPath27284"><g
     id="g27294"
     transform="matrix(0.49866673,0,0,0.49866673,24522.611,16266.611)"><g
       id="g27292"
       transform="translate(1.145836e-4,-6.710164e-4)"><g
         id="g27290"
         transform="matrix(2.0053476,0,0,2.0053476,-49176.359,-32620.21)"><g
           id="g27288"><rect
             x="0"
             y="0"
             width="28000"
             height="21000"
             id="rect27286" /></g></g></g></g></clipPath>
        
       <clipPath
   clipPathUnits="userSpaceOnUse"
   id="clipPath27309"><g
     id="g27319"
     transform="matrix(0.49866673,0,0,0.49866673,24522.611,16266.611)"><g
       id="g27317"
       transform="translate(1.145836e-4,-6.710164e-4)"><g
         id="g27315"
         transform="matrix(2.0053476,0,0,2.0053476,-49176.359,-32620.21)"><g
           id="g27313"><rect
             x="0"
             y="0"
             width="28000"
             height="21000"
             id="rect27311" /></g></g></g></g></clipPath>
        
       <clipPath
   clipPathUnits="userSpaceOnUse"
   id="clipPath27334"><g
     id="g27344"
     transform="matrix(0.49866673,0,0,0.49866673,24522.611,16266.611)"><g
       id="g27342"
       transform="translate(1.145836e-4,-6.710164e-4)"><g
         id="g27340"
         transform="matrix(2.0053476,0,0,2.0053476,-49176.359,-32620.21)"><g
           id="g27338"><rect
             x="0"
             y="0"
             width="28000"
             height="21000"
             id="rect27336" /></g></g></g></g></clipPath>
        
       <clipPath
   clipPathUnits="userSpaceOnUse"
   id="clipPath27359"><g
     id="g27369"
     transform="matrix(0.49866673,0,0,0.49866673,24522.611,16266.611)"><g
       id="g27367"
       transform="translate(1.145836e-4,-6.710164e-4)"><g
         id="g27365"
         transform="matrix(2.0053476,0,0,2.0053476,-49176.359,-32620.21)"><g
           id="g27363"><rect
             x="0"
             y="0"
             width="28000"
             height="21000"
             id="rect27361" /></g></g></g></g></clipPath>
        
       <clipPath
   clipPathUnits="userSpaceOnUse"
   id="clipPath27384"><g
     id="g27394"
     transform="matrix(0.49866673,0,0,0.49866673,24522.611,16266.611)"><g
       id="g27392"
       transform="translate(1.145836e-4,-6.710164e-4)"><g
         id="g27390"
         transform="matrix(2.0053476,0,0,2.0053476,-49176.359,-32620.21)"><g
           id="g27388"><rect
             x="0"
             y="0"
             width="28000"
             height="21000"
             id="rect27386" /></g></g></g></g></clipPath>
        
       <clipPath
   clipPathUnits="userSpaceOnUse"
   id="clipPath27409"><g
     id="g27419"
     transform="matrix(0.49866673,0,0,0.49866673,24522.611,16266.611)"><g
       id="g27417"
       transform="translate(1.145836e-4,-6.710164e-4)"><g
         id="g27415"
         transform="matrix(2.0053476,0,0,2.0053476,-49176.359,-32620.21)"><g
           id="g27413"><rect
             x="0"
             y="0"
             width="28000"
             height="21000"
             id="rect27411" /></g></g></g></g></clipPath>
        
       <clipPath
   clipPathUnits="userSpaceOnUse"
   id="clipPath27434"><g
     id="g27444"
     transform="matrix(0.49866673,0,0,0.49866673,24522.611,16266.611)"><g
       id="g27442"
       transform="translate(1.145836e-4,-6.710164e-4)"><g
         id="g27440"
         transform="matrix(2.0053476,0,0,2.0053476,-49176.359,-32620.21)"><g
           id="g27438"><rect
             x="0"
             y="0"
             width="28000"
             height="21000"
             id="rect27436" /></g></g></g></g></clipPath>
        
       <clipPath
   clipPathUnits="userSpaceOnUse"
   id="clipPath27459"><g
     id="g27469"
     transform="matrix(0.49866673,0,0,0.49866673,24522.611,16266.611)"><g
       id="g27467"
       transform="translate(1.145836e-4,-6.710164e-4)"><g
         id="g27465"
         transform="matrix(2.0053476,0,0,2.0053476,-49176.359,-32620.21)"><g
           id="g27463"><rect
             x="0"
             y="0"
             width="28000"
             height="21000"
             id="rect27461" /></g></g></g></g></clipPath>
        
       <clipPath
   clipPathUnits="userSpaceOnUse"
   id="clipPath27484"><g
     id="g27494"
     transform="matrix(0.49866673,0,0,0.49866673,24522.611,16266.611)"><g
       id="g27492"
       transform="translate(1.145836e-4,-6.710164e-4)"><g
         id="g27490"
         transform="matrix(2.0053476,0,0,2.0053476,-49176.359,-32620.21)"><g
           id="g27488"><rect
             x="0"
             y="0"
             width="28000"
             height="21000"
             id="rect27486" /></g></g></g></g></clipPath></defs>
 <defs
   class="TextShapeIndex"
   id="defs12">
  <g
   ooo:slide="id1"
   ooo:id-list="id3 id4 id5 id6 id7 id8 id9 id10 id11 id12 id13"
   id="g10" />
 </defs>
 <defs
   class="EmbeddedBulletChars"
   id="defs44">
  <g
   id="bullet-char-template-57356"
   transform="matrix(4.8828125e-4,0,0,-4.8828125e-4,0,0)">
   <path
   d="M 580,1141 1163,571 580,0 -4,571 Z"
   id="path14" />
  </g>
  <g
   id="bullet-char-template-57354"
   transform="matrix(4.8828125e-4,0,0,-4.8828125e-4,0,0)">
   <path
   d="M 8,1128 H 1137 V 0 H 8 Z"
   id="path17" />
  </g>
  <g
   id="bullet-char-template-10146"
   transform="matrix(4.8828125e-4,0,0,-4.8828125e-4,0,0)">
   <path
   d="M 174,0 602,739 174,1481 1456,739 Z M 1358,739 309,1346 659,739 Z"
   id="path20" />
  </g>
  <g
   id="bullet-char-template-10132"
   transform="matrix(4.8828125e-4,0,0,-4.8828125e-4,0,0)">
   <path
   d="M 2015,739 1276,0 H 717 l 543,543 H 174 v 393 h 1086 l -543,545 h 557 z"
   id="path23" />
  </g>
  <g
   id="bullet-char-template-10007"
   transform="matrix(4.8828125e-4,0,0,-4.8828125e-4,0,0)">
   <path
   d="m 0,-2 c -7,16 -16,29 -25,39 l 381,530 c -94,256 -141,385 -141,387 0,25 13,38 40,38 9,0 21,-2 34,-5 21,4 42,12 65,25 l 27,-13 111,-251 280,301 64,-25 24,25 c 21,-10 41,-24 62,-43 C 886,937 835,863 770,784 769,783 710,716 594,584 L 774,223 c 0,-27 -21,-55 -63,-84 l 16,-20 C 717,90 699,76 672,76 641,76 570,178 457,381 L 164,-76 c -22,-34 -53,-51 -92,-51 -42,0 -63,17 -64,51 -7,9 -10,24 -10,44 0,9 1,19 2,30 z"
   id="path26" />
  </g>
  <g
   id="bullet-char-template-10004"
   transform="matrix(4.8828125e-4,0,0,-4.8828125e-4,0,0)">
   <path
   d="M 285,-33 C 182,-33 111,30 74,156 52,228 41,333 41,471 c 0,78 14,145 41,201 34,71 87,106 158,106 53,0 88,-31 106,-94 l 23,-176 c 8,-64 28,-97 59,-98 l 735,706 c 11,11 33,17 66,17 42,0 63,-15 63,-46 V 965 c 0,-36 -10,-64 -30,-84 L 442,47 C 390,-6 338,-33 285,-33 Z"
   id="path29" />
  </g>
  <g
   id="bullet-char-template-9679"
   transform="matrix(4.8828125e-4,0,0,-4.8828125e-4,0,0)">
   <path
   d="M 813,0 C 632,0 489,54 383,161 276,268 223,411 223,592 c 0,181 53,324 160,431 106,107 249,161 430,161 179,0 323,-54 432,-161 108,-107 162,-251 162,-431 0,-180 -54,-324 -162,-431 C 1136,54 992,0 813,0 Z"
   id="path32" />
  </g>
  <g
   id="bullet-char-template-8226"
   transform="matrix(4.8828125e-4,0,0,-4.8828125e-4,0,0)">
   <path
   d="m 346,457 c -73,0 -137,26 -191,78 -54,51 -81,114 -81,188 0,73 27,136 81,188 54,52 118,78 191,78 73,0 134,-26 185,-79 51,-51 77,-114 77,-187 0,-75 -25,-137 -76,-188 -50,-52 -112,-78 -186,-78 z"
   id="path35" />
  </g>
  <g
   id="bullet-char-template-8211"
   transform="matrix(4.8828125e-4,0,0,-4.8828125e-4,0,0)">
   <path
   d="M -4,459 H 1135 V 606 H -4 Z"
   id="path38" />
  </g>
  <g
   id="bullet-char-template-61548"
   transform="matrix(4.8828125e-4,0,0,-4.8828125e-4,0,0)">
   <path
   d="m 173,740 c 0,163 58,303 173,419 116,115 255,173 419,173 163,0 302,-58 418,-173 116,-116 174,-256 174,-419 0,-163 -58,-303 -174,-418 C 1067,206 928,148 765,148 601,148 462,206 346,322 231,437 173,577 173,740 Z"
   id="path41" />
  </g>
 </defs>
 <g
   id="g49"
   transform="matrix(0.07579267,0,0,0.07579267,2918.7888,2745.4444)">
  <g
   id="id2"
   class="Master_Slide">
   <g
   id="bg-id2"
   class="Background" />
   <g
   id="bo-id2"
   class="BackgroundObjects" />
  </g>
 </g>
 
   
  
<g
   class="com.sun.star.drawing.ClosedBezierShape"
   id="g11737"
   transform="matrix(2.0053476,0,0,2.0053476,-49176.359,-32620.21)"
   style="visibility:hidden;fill:#bf800e;fill-opacity:1"
   clip-path="url(#clipPath26636)">
        <g
   id="id635"
   style="fill:#bf800e;fill-opacity:1">
         
         <path
   fill="#bbe33d"
   stroke="none"
   d="m 26692,16645 27,-14 c 48,97 75,191 91,286 15,93 20,187 24,285 0,1 0,1 0,2 v 1 c -5,99 -17,191 -38,277 -20,86 -49,167 -87,244 -75,152 -186,288 -335,417 -1,1 -2,2 -3,3 -141,91 -277,208 -435,273 h -1 l -11,-29 12,29 h -1 c -85,35 -166,56 -240,97 -35,20 -69,44 -100,76 -32,33 -62,75 -90,129 l -28,-14 -27,-14 c 31,-60 65,-107 101,-143 36,-38 74,-65 114,-87 77,-43 160,-65 247,-101 154,-63 287,-177 424,-267 141,-123 246,-251 318,-396 36,-73 63,-149 83,-231 19,-83 31,-170 35,-264 -4,-96 -8,-187 -23,-277 -15,-89 -40,-177 -85,-269 z"
   id="path11734"
   style="fill:#bf800e;fill-opacity:1" />
        </g>
       </g><g
   id="id636"
   transform="matrix(2.0053476,0,0,2.0053476,-49176.359,-32620.21)"
   style="visibility:hidden;fill:#bf800e;fill-opacity:1"
   clip-path="url(#clipPath26659)">
         
         <path
   fill="#bbe33d"
   stroke="none"
   d="m 24991,16646 -28,-14 c -47,97 -74,191 -90,286 -15,93 -20,187 -24,285 0,1 0,1 0,2 v 1 c 4,99 17,191 37,277 21,86 50,167 88,244 75,152 186,288 334,417 2,1 3,2 4,3 141,91 277,208 435,273 l 12,-29 -12,29 c 86,35 167,56 241,97 35,20 68,44 100,76 32,33 62,75 90,129 l 28,-14 27,-14 c -31,-60 -65,-107 -101,-143 -36,-38 -74,-65 -114,-87 -77,-43 -160,-65 -247,-101 -155,-63 -287,-177 -424,-267 -141,-123 -246,-251 -318,-396 -36,-73 -63,-149 -83,-231 -19,-83 -31,-170 -35,-264 3,-96 8,-187 23,-277 15,-89 40,-177 85,-269 z"
   id="path11741"
   style="fill:#bf800e;fill-opacity:1" />
        </g><g
   id="id637"
   transform="matrix(2.0053476,0,0,2.0053476,-49176.359,-32620.21)"
   style="visibility:hidden;fill:#e9800e;fill-opacity:1"
   clip-path="url(#clipPath26684)">
         
         <path
   fill="#5eb91e"
   stroke="none"
   d="m 26524,16450 c 1,0 1,0 1,0 v 0 c 17,1 33,6 48,12 16,5 30,13 45,21 20,13 36,27 50,44 15,18 27,38 38,61 5,16 10,32 12,47 2,16 3,32 2,48 h -1 c -15,-1 -31,-5 -46,-10 -15,-5 -30,-12 -45,-21 -20,-14 -38,-29 -53,-48 -14,-16 -25,-34 -34,-56 -6,-16 -11,-32 -14,-48 -3,-16 -5,-33 -2,-49 z"
   id="path11748"
   style="fill:#e9800e;fill-opacity:1" />
        </g><g
   id="id638"
   transform="matrix(2.0053476,0,0,2.0053476,-49176.359,-32620.21)"
   style="visibility:hidden;fill:#e9800e;fill-opacity:1"
   clip-path="url(#clipPath26709)">
         
         <path
   fill="#5eb91e"
   stroke="none"
   d="m 26808,16554 c 1,0 1,0 1,0 v 1 c 12,11 21,25 29,39 9,14 15,30 21,46 7,22 10,43 10,65 0,24 -4,47 -10,71 -6,16 -13,31 -21,44 -9,14 -18,27 -29,38 h -1 c -11,-11 -21,-24 -29,-38 -8,-13 -15,-28 -21,-44 -6,-24 -10,-47 -10,-71 0,-22 3,-43 10,-65 6,-16 12,-32 20,-46 8,-14 18,-28 30,-39 z"
   id="path11755"
   style="fill:#e9800e;fill-opacity:1" />
        </g><g
   id="id639"
   transform="matrix(2.0053476,0,0,2.0053476,-49176.359,-32620.21)"
   style="visibility:hidden;fill:#e9800e;fill-opacity:1"
   clip-path="url(#clipPath26734)">
         
         <path
   fill="#5eb91e"
   stroke="none"
   d="m 26499,16661 c 1,-1 1,-1 1,-1 l 1,1 c 16,-3 32,0 48,2 17,3 33,8 49,14 21,9 39,20 56,34 18,15 34,33 48,53 8,15 15,30 20,45 5,16 9,31 11,46 l -1,1 c -15,1 -32,1 -48,-2 -15,-2 -31,-7 -47,-12 -22,-11 -42,-23 -61,-38 -17,-14 -31,-30 -43,-50 -8,-15 -17,-29 -22,-45 -6,-15 -10,-31 -11,-48 z"
   id="path11762"
   style="fill:#e9800e;fill-opacity:1" />
        </g><g
   id="id640"
   transform="matrix(2.0053476,0,0,2.0053476,-49176.359,-32620.21)"
   style="visibility:hidden;fill:#e9800e;fill-opacity:1"
   clip-path="url(#clipPath26759)">
         
         <path
   fill="#5eb91e"
   stroke="none"
   d="m 26955,17191 h 1 c 1,1 1,1 1,1 v 0 c 4,15 5,32 5,49 0,16 -2,33 -5,50 -5,22 -13,43 -24,61 -12,21 -27,39 -44,56 -13,11 -27,21 -41,29 -13,7 -28,13 -43,18 -1,-1 -1,-1 -1,-1 -4,-16 -6,-31 -6,-47 -1,-15 1,-32 3,-49 7,-23 16,-46 27,-66 11,-19 25,-37 42,-52 13,-12 26,-21 40,-29 14,-8 30,-16 45,-20 0,0 0,0 0,0 z"
   id="path11769"
   style="fill:#e9800e;fill-opacity:1" />
        </g><g
   id="id641"
   transform="matrix(2.0053476,0,0,2.0053476,-49176.359,-32620.21)"
   style="visibility:hidden;fill:#e9800e;fill-opacity:1"
   clip-path="url(#clipPath26784)">
         
         <path
   fill="#5eb91e"
   stroke="none"
   d="m 26635,17129 1,-1 h 1 v 1 c 14,7 29,16 41,27 12,10 23,23 35,36 14,18 24,38 31,57 9,23 13,46 15,71 1,17 -1,33 -4,49 -3,15 -8,31 -15,45 h -1 c -13,-7 -27,-15 -39,-26 -13,-9 -25,-20 -35,-34 -15,-20 -26,-41 -34,-63 -8,-20 -12,-42 -13,-64 0,-1 0,-1 0,-1 0,-17 1,-34 4,-50 2,-16 7,-32 13,-46 0,-1 0,-1 0,-1 z"
   id="path11776"
   style="fill:#e9800e;fill-opacity:1" />
        </g><g
   id="id642"
   transform="matrix(2.0053476,0,0,2.0053476,-49176.359,-32620.21)"
   style="visibility:hidden;fill:#e9800e;fill-opacity:1"
   clip-path="url(#clipPath26809)">
         
         <path
   fill="#5eb91e"
   stroke="none"
   d="m 26919,16867 h 1 l 1,1 v 1 c 8,13 14,29 18,45 4,15 6,32 8,49 0,23 -2,45 -7,66 -7,23 -17,44 -29,66 -10,14 -20,26 -31,37 -12,11 -25,21 -38,29 h -1 c -8,-14 -13,-29 -18,-44 -5,-15 -8,-31 -9,-48 0,-25 2,-48 9,-71 5,-22 14,-42 26,-61 9,-14 20,-27 32,-39 11,-11 24,-22 38,-30 z"
   id="path11783"
   style="fill:#e9800e;fill-opacity:1" />
        </g><g
   id="id643"
   transform="matrix(2.0053476,0,0,2.0053476,-49176.359,-32620.21)"
   style="visibility:hidden;fill:#e9800e;fill-opacity:1"
   clip-path="url(#clipPath26834)">
         
         <path
   fill="#5eb91e"
   stroke="none"
   d="m 26594,16890 1,-1 1,1 c 16,2 31,8 45,15 16,7 30,16 44,26 18,14 33,30 46,48 13,19 24,41 32,63 v 1 c 4,16 7,32 9,48 0,16 0,32 -3,47 -1,1 -1,1 -1,1 -15,-3 -30,-8 -45,-14 -15,-7 -29,-15 -42,-24 -19,-16 -36,-34 -49,-53 -13,-18 -23,-37 -30,-59 -5,-16 -8,-33 -9,-49 -2,-17 -2,-33 2,-49 -1,-1 -1,-1 -1,-1 z"
   id="path11790"
   style="fill:#e9800e;fill-opacity:1" />
        </g><g
   id="id644"
   transform="matrix(2.0053476,0,0,2.0053476,-49176.359,-32620.21)"
   style="visibility:hidden;fill:#e9800e;fill-opacity:1"
   clip-path="url(#clipPath26859)">
         
         <path
   fill="#5eb91e"
   stroke="none"
   d="m 26926,17471 c 1,1 1,1 1,1 l -1,1 c 2,16 0,32 -3,48 -2,17 -7,33 -13,49 -9,21 -20,39 -34,56 -16,18 -33,33 -53,48 -15,8 -30,15 -45,20 -16,5 -31,9 -46,11 l -1,-1 c -2,-15 -1,-32 2,-48 2,-15 7,-31 12,-47 11,-22 23,-42 38,-61 14,-17 30,-31 50,-43 15,-9 29,-17 45,-23 15,-5 31,-9 48,-10 z"
   id="path11797"
   style="fill:#e9800e;fill-opacity:1" />
        </g><g
   id="id645"
   transform="matrix(2.0053476,0,0,2.0053476,-49176.359,-32620.21)"
   style="visibility:hidden;fill:#e9800e;fill-opacity:1"
   clip-path="url(#clipPath26884)">
         
         <path
   fill="#5eb91e"
   stroke="none"
   d="m 26621,17354 c 1,0 1,0 1,0 1,0 1,0 1,0 v 1 c 13,9 25,21 35,33 10,13 20,27 29,42 10,20 17,40 21,62 4,24 4,47 2,72 -3,17 -7,33 -13,48 -6,14 -13,29 -22,41 -1,1 -1,1 -1,1 -13,-9 -24,-21 -35,-33 -10,-11 -20,-25 -28,-39 -10,-23 -18,-45 -22,-69 -4,-21 -5,-44 -2,-65 2,-17 7,-34 12,-49 6,-15 13,-31 22,-44 z"
   id="path11804"
   style="fill:#e9800e;fill-opacity:1" />
        </g><g
   id="id646"
   transform="matrix(2.0053476,0,0,2.0053476,-49176.359,-32620.21)"
   style="visibility:hidden;fill:#e9800e;fill-opacity:1"
   clip-path="url(#clipPath26909)">
         
         <path
   fill="#5eb91e"
   stroke="none"
   d="m 26831,17723 c 1,1 1,1 1,1 l -1,1 c -1,16 -5,31 -11,47 -5,16 -13,30 -21,45 -13,20 -28,36 -45,50 -17,15 -38,27 -60,38 -16,6 -32,9 -47,12 -17,2 -32,3 -48,2 h -1 c 2,-16 5,-32 10,-47 6,-15 13,-30 21,-45 14,-19 30,-38 48,-53 16,-14 35,-25 57,-34 16,-6 31,-11 47,-14 16,-3 33,-4 49,-2 z"
   id="path11811"
   style="fill:#e9800e;fill-opacity:1" />
        </g><g
   id="id647"
   transform="matrix(2.0053476,0,0,2.0053476,-49176.359,-32620.21)"
   style="visibility:hidden;fill:#e9800e;fill-opacity:1"
   clip-path="url(#clipPath26934)">
         
         <path
   fill="#5eb91e"
   stroke="none"
   d="m 26551,17555 c 1,0 1,0 1,0 v 1 c 12,11 21,25 29,39 9,14 15,30 21,46 7,22 10,43 10,65 0,24 -4,47 -10,71 -6,16 -13,31 -21,44 -9,14 -18,27 -29,38 h -1 c -11,-11 -21,-24 -29,-38 -8,-13 -15,-28 -21,-44 -6,-24 -10,-47 -10,-71 0,-22 3,-43 10,-65 6,-16 12,-32 20,-46 8,-14 18,-28 30,-39 z"
   id="path11818"
   style="fill:#e9800e;fill-opacity:1" />
        </g><g
   id="id648"
   transform="matrix(2.0053476,0,0,2.0053476,-49176.359,-32620.21)"
   style="visibility:hidden;fill:#e9800e;fill-opacity:1"
   clip-path="url(#clipPath26959)">
         
         <path
   fill="#5eb91e"
   stroke="none"
   d="m 26696,17989 1,1 h -1 c -5,16 -14,30 -23,44 -9,13 -21,25 -33,37 -17,16 -35,28 -54,37 -22,10 -45,16 -69,21 -17,1 -34,1 -49,-1 -16,-2 -32,-5 -46,-10 -1,-1 -1,-1 -1,-1 5,-14 13,-29 22,-42 9,-13 19,-26 31,-38 19,-15 39,-29 60,-39 20,-9 41,-16 63,-18 17,-2 34,-3 51,-2 16,3 33,5 48,11 z"
   id="path11825"
   style="fill:#e9800e;fill-opacity:1" />
        </g><g
   id="id649"
   transform="matrix(2.0053476,0,0,2.0053476,-49176.359,-32620.21)"
   style="visibility:hidden;fill:#e9800e;fill-opacity:1"
   clip-path="url(#clipPath26984)">
         
         <path
   fill="#5eb91e"
   stroke="none"
   d="m 26469,17754 h 1 1 v 1 c 8,14 14,30 18,45 4,16 6,33 8,50 0,23 -2,44 -7,66 -7,23 -16,44 -29,66 -9,13 -20,26 -31,37 -12,11 -25,21 -38,29 h -1 c -8,-14 -13,-29 -18,-45 -5,-14 -7,-31 -9,-48 0,-24 3,-47 9,-71 6,-21 14,-41 26,-60 9,-14 20,-28 32,-39 11,-12 25,-22 38,-30 z"
   id="path11832"
   style="fill:#e9800e;fill-opacity:1" />
        </g><g
   id="id650"
   transform="matrix(2.0053476,0,0,2.0053476,-49176.359,-32620.21)"
   style="visibility:hidden;fill:#e9800e;fill-opacity:1"
   clip-path="url(#clipPath27009)">
         
         <path
   fill="#5eb91e"
   stroke="none"
   d="m 26481,18184 v 1 l 1,1 h -1 c -7,14 -17,28 -27,41 -10,12 -23,23 -36,34 -18,14 -38,25 -58,32 -22,8 -45,13 -70,14 -17,1 -33,0 -50,-4 -15,-3 -30,-8 -44,-14 l -1,-1 c 8,-14 16,-27 26,-40 9,-12 21,-24 34,-34 20,-15 42,-26 63,-34 21,-8 43,-13 65,-13 1,-1 1,-1 1,-1 17,0 33,2 49,4 16,3 33,8 47,14 1,0 1,0 1,0 z"
   id="path11839"
   style="fill:#e9800e;fill-opacity:1" />
        </g><g
   id="id651"
   transform="matrix(2.0053476,0,0,2.0053476,-49176.359,-32620.21)"
   style="visibility:hidden;fill:#e9800e;fill-opacity:1"
   clip-path="url(#clipPath27034)">
         
         <path
   fill="#5eb91e"
   stroke="none"
   d="m 26276,17931 h 1 l -1,1 c 8,14 12,31 14,47 4,16 4,32 5,49 l -1,1 c 0,22 -5,44 -13,65 -8,21 -20,42 -33,63 -11,13 -23,24 -35,34 -13,10 -26,18 -40,26 -1,-1 -1,-1 -1,-1 -7,-14 -11,-29 -15,-45 -3,-16 -4,-32 -4,-49 2,-25 7,-48 15,-70 7,-20 17,-40 31,-58 11,-13 23,-26 35,-36 12,-11 26,-20 41,-26 z"
   id="path11846"
   style="fill:#e9800e;fill-opacity:1" />
        </g><g
   id="id652"
   transform="matrix(2.0053476,0,0,2.0053476,-49176.359,-32620.21)"
   style="visibility:hidden;fill:#e9800e;fill-opacity:1"
   clip-path="url(#clipPath27059)">
         
         <path
   fill="#5eb91e"
   stroke="none"
   d="m 26261,18361 c 0,1 0,1 0,1 h -1 c -9,14 -21,25 -33,36 -13,11 -27,20 -42,28 -21,11 -41,18 -62,22 -24,4 -47,4 -72,2 -17,-3 -33,-7 -47,-13 -15,-6 -30,-13 -42,-22 l -1,-1 c 9,-13 20,-25 33,-35 11,-10 25,-20 39,-28 23,-10 45,-18 69,-23 21,-3 42,-4 65,-1 17,3 34,6 49,12 15,5 31,13 44,22 z"
   id="path11853"
   style="fill:#e9800e;fill-opacity:1" />
        </g><g
   id="id653"
   transform="matrix(2.0053476,0,0,2.0053476,-49176.359,-32620.21)"
   style="visibility:hidden;fill:#e9800e;fill-opacity:1"
   clip-path="url(#clipPath27084)">
         
         <path
   fill="#5eb91e"
   stroke="none"
   d="m 26102,18076 c 1,0 1,0 1,0 v 1 c 5,16 6,32 5,48 1,17 -2,34 -4,51 -5,22 -13,42 -24,61 -12,21 -27,39 -44,56 -13,11 -27,21 -40,28 -15,8 -30,15 -45,19 v -1 c -4,-15 -7,-31 -7,-47 0,-16 1,-32 4,-49 7,-24 15,-46 27,-66 11,-20 25,-37 41,-52 13,-11 27,-21 41,-30 13,-8 29,-15 45,-18 z"
   id="path11860"
   style="fill:#e9800e;fill-opacity:1" />
        </g><g
   id="id654"
   transform="matrix(2.0053476,0,0,2.0053476,-49176.359,-32620.21)"
   style="visibility:hidden;fill:#e9800e;fill-opacity:1"
   clip-path="url(#clipPath27109)">
         
         <path
   fill="#5eb91e"
   stroke="none"
   d="m 25159,16452 v -1 l -1,1 c -16,0 -33,5 -48,10 -15,6 -30,14 -45,23 -19,12 -36,27 -49,43 -16,18 -28,38 -38,61 -6,16 -10,32 -13,48 -3,15 -3,31 -2,47 1,0 1,0 1,0 16,-2 31,-5 46,-10 15,-5 30,-12 45,-20 20,-15 38,-30 53,-48 14,-17 26,-36 35,-57 6,-16 11,-31 13,-48 3,-16 5,-32 3,-49 0,0 0,0 0,0 z"
   id="path11867"
   style="fill:#e9800e;fill-opacity:1" />
        </g><g
   id="id655"
   transform="matrix(2.0053476,0,0,2.0053476,-49176.359,-32620.21)"
   style="visibility:hidden;fill:#e9800e;fill-opacity:1"
   clip-path="url(#clipPath27134)">
         
         <path
   fill="#5eb91e"
   stroke="none"
   d="m 24875,16556 h -1 v 1 c -12,11 -22,25 -30,39 -8,14 -14,30 -20,46 -7,22 -10,43 -10,65 0,24 4,47 10,71 6,16 13,31 21,44 8,14 18,27 29,38 1,0 1,0 1,0 11,-11 20,-24 29,-38 8,-13 15,-28 21,-44 6,-24 10,-47 10,-71 0,-22 -3,-43 -10,-65 -6,-16 -12,-32 -21,-46 -8,-14 -17,-28 -29,-39 z"
   id="path11874"
   style="fill:#e9800e;fill-opacity:1" />
        </g><g
   id="id656"
   transform="matrix(2.0053476,0,0,2.0053476,-49176.359,-32620.21)"
   style="visibility:hidden;fill:#e9800e;fill-opacity:1"
   clip-path="url(#clipPath27159)">
         
         <path
   fill="#5eb91e"
   stroke="none"
   d="m 25184,16662 -1,-1 v 1 c -16,-2 -34,-1 -50,2 -15,3 -32,8 -48,14 -21,9 -39,20 -56,34 -18,16 -33,34 -48,54 -8,15 -15,30 -20,44 -5,16 -9,31 -11,47 h 1 c 16,2 31,0 48,-2 15,-2 31,-6 47,-12 22,-11 42,-22 61,-38 17,-14 32,-30 43,-49 9,-15 17,-30 22,-46 6,-15 11,-31 11,-47 z"
   id="path11881"
   style="fill:#e9800e;fill-opacity:1" />
        </g><g
   id="id657"
   transform="matrix(2.0053476,0,0,2.0053476,-49176.359,-32620.21)"
   style="visibility:hidden;fill:#e9800e;fill-opacity:1"
   clip-path="url(#clipPath27184)">
         
         <path
   fill="#5eb91e"
   stroke="none"
   d="m 24727,17192 h -1 l 1,1 c -5,16 -6,32 -7,49 0,16 3,33 6,50 5,22 13,42 24,61 12,21 27,39 44,57 12,11 27,20 41,28 13,7 28,14 43,18 l 1,-1 c 4,-15 6,-31 6,-47 1,-15 -1,-32 -3,-49 -7,-23 -16,-46 -27,-66 -11,-19 -25,-37 -41,-51 -14,-11 -27,-22 -42,-30 -14,-8 -28,-16 -44,-19 z"
   id="path11888"
   style="fill:#e9800e;fill-opacity:1" />
        </g><g
   id="id658"
   transform="matrix(2.0053476,0,0,2.0053476,-49176.359,-32620.21)"
   style="visibility:hidden;fill:#e9800e;fill-opacity:1"
   clip-path="url(#clipPath27209)">
         
         <path
   fill="#5eb91e"
   stroke="none"
   d="m 25048,17130 h -1 l -1,-1 v 1 c -14,7 -29,17 -41,27 -12,10 -24,22 -34,36 -14,18 -25,37 -32,58 -8,22 -13,46 -15,70 0,17 1,34 4,49 4,16 8,30 14,45 h 1 c 15,-6 28,-15 40,-25 13,-10 25,-22 36,-35 13,-19 25,-41 34,-63 7,-20 11,-41 12,-64 0,-18 -1,-35 -4,-51 -2,-16 -7,-32 -13,-46 z"
   id="path11895"
   style="fill:#e9800e;fill-opacity:1" />
        </g><g
   id="id659"
   transform="matrix(2.0053476,0,0,2.0053476,-49176.359,-32620.21)"
   style="visibility:hidden;fill:#e9800e;fill-opacity:1"
   clip-path="url(#clipPath27234)">
         
         <path
   fill="#5eb91e"
   stroke="none"
   d="m 24763,16868 c -1,1 -1,1 -1,1 l 1,1 c -9,13 -14,29 -19,45 -4,16 -6,32 -8,49 -1,23 2,45 8,66 6,22 16,45 28,66 9,14 21,27 32,37 11,11 24,20 37,29 0,0 0,0 0,0 h 1 c 7,-13 14,-29 18,-43 5,-16 8,-32 9,-49 0,-24 -2,-49 -8,-72 -6,-20 -15,-40 -27,-60 -10,-14 -20,-28 -31,-39 -13,-11 -25,-22 -39,-30 z"
   id="path11902"
   style="fill:#e9800e;fill-opacity:1" />
        </g><g
   id="id660"
   transform="matrix(2.0053476,0,0,2.0053476,-49176.359,-32620.21)"
   style="visibility:hidden;fill:#e9800e;fill-opacity:1"
   clip-path="url(#clipPath27259)">
         
         <path
   fill="#5eb91e"
   stroke="none"
   d="m 25089,16891 h -1 v 1 c -16,2 -33,7 -47,14 -15,7 -29,17 -43,26 -18,14 -33,30 -45,48 -14,20 -24,41 -33,64 -4,16 -7,33 -8,48 -1,17 -1,32 2,48 1,0 1,0 1,0 15,-2 30,-8 45,-14 14,-6 29,-15 43,-24 18,-16 35,-33 49,-53 12,-18 22,-37 29,-59 4,-16 8,-33 9,-49 1,-16 2,-33 -1,-49 z"
   id="path11909"
   style="fill:#e9800e;fill-opacity:1" />
        </g><g
   id="id661"
   transform="matrix(2.0053476,0,0,2.0053476,-49176.359,-32620.21)"
   style="visibility:hidden;fill:#e9800e;fill-opacity:1"
   clip-path="url(#clipPath27284)">
         
         <path
   fill="#5eb91e"
   stroke="none"
   d="m 24757,17472 v 0 c -1,1 -1,1 -1,1 v 1 c -1,15 0,33 3,48 3,16 8,33 14,49 9,21 20,39 34,56 16,18 33,33 53,48 15,8 30,15 45,21 16,4 31,9 46,10 l 1,-1 c 1,-15 1,-32 -2,-47 -2,-16 -6,-32 -12,-48 -11,-22 -23,-43 -38,-61 -14,-17 -31,-31 -49,-43 -15,-9 -31,-16 -46,-22 -15,-6 -32,-10 -47,-11 z"
   id="path11916"
   style="fill:#e9800e;fill-opacity:1" />
        </g><g
   id="id662"
   transform="matrix(2.0053476,0,0,2.0053476,-49176.359,-32620.21)"
   style="visibility:hidden;fill:#e9800e;fill-opacity:1"
   clip-path="url(#clipPath27309)">
         
         <path
   fill="#5eb91e"
   stroke="none"
   d="m 25062,17355 c -1,0 -1,0 -1,0 v 1 c -14,9 -26,21 -37,33 -10,13 -20,27 -27,42 -11,21 -18,41 -21,62 -5,24 -5,47 -3,72 3,17 7,33 13,47 6,15 13,30 22,42 l 1,1 c 13,-9 24,-20 35,-33 10,-11 20,-25 28,-39 11,-23 18,-45 23,-69 3,-21 4,-43 1,-65 -3,-17 -7,-34 -12,-49 -6,-15 -12,-31 -22,-44 z"
   id="path11923"
   style="fill:#e9800e;fill-opacity:1" />
        </g><g
   id="id663"
   transform="matrix(2.0053476,0,0,2.0053476,-49176.359,-32620.21)"
   style="visibility:hidden;fill:#e9800e;fill-opacity:1"
   clip-path="url(#clipPath27334)">
         
         <path
   fill="#5eb91e"
   stroke="none"
   d="m 24852,17724 -1,1 h 1 c 1,17 5,33 11,49 5,15 14,30 22,44 12,20 27,36 43,50 19,15 39,27 61,38 16,6 32,10 47,12 16,3 33,4 48,2 1,-1 1,-1 1,-1 -2,-15 -6,-30 -11,-46 -4,-15 -11,-30 -20,-45 -14,-20 -29,-37 -48,-53 -17,-14 -35,-25 -56,-34 -16,-6 -32,-11 -49,-13 -16,-3 -32,-5 -48,-3 z"
   id="path11930"
   style="fill:#e9800e;fill-opacity:1" />
        </g><g
   id="id664"
   transform="matrix(2.0053476,0,0,2.0053476,-49176.359,-32620.21)"
   style="visibility:hidden;fill:#e9800e;fill-opacity:1"
   clip-path="url(#clipPath27359)">
         
         <path
   fill="#5eb91e"
   stroke="none"
   d="m 25132,17556 h -1 v 1 c -12,11 -22,25 -30,39 -8,14 -14,30 -20,46 -7,22 -10,43 -10,65 0,24 4,47 10,71 6,16 13,31 21,44 8,14 18,27 29,38 1,0 1,0 1,0 11,-11 20,-24 29,-38 8,-13 15,-28 21,-44 6,-24 10,-47 10,-71 0,-22 -3,-43 -10,-65 -6,-16 -12,-32 -21,-46 -8,-14 -17,-28 -29,-39 z"
   id="path11937"
   style="fill:#e9800e;fill-opacity:1" />
        </g><g
   id="id665"
   transform="matrix(2.0053476,0,0,2.0053476,-49176.359,-32620.21)"
   style="visibility:hidden;fill:#e9800e;fill-opacity:1"
   clip-path="url(#clipPath27384)">
         
         <path
   fill="#5eb91e"
   stroke="none"
   d="m 24987,17990 c -1,0 -1,0 -1,0 l 1,2 c 5,14 13,29 23,43 9,13 21,26 33,37 17,16 35,27 55,37 21,10 44,16 68,21 17,1 34,1 50,0 15,-3 31,-5 46,-11 0,-1 0,-1 0,-1 -5,-14 -13,-28 -22,-42 -9,-13 -19,-25 -31,-38 -19,-15 -38,-29 -60,-39 -20,-9 -41,-16 -63,-18 -17,-2 -35,-2 -51,-1 -16,2 -33,5 -47,10 z"
   id="path11944"
   style="fill:#e9800e;fill-opacity:1" />
        </g><g
   id="id666"
   transform="matrix(2.0053476,0,0,2.0053476,-49176.359,-32620.21)"
   style="visibility:hidden;fill:#e9800e;fill-opacity:1"
   clip-path="url(#clipPath27409)">
         
         <path
   fill="#5eb91e"
   stroke="none"
   d="m 25213,17755 c -1,0 -1,0 -1,0 l 1,1 c -9,14 -15,29 -19,46 -4,16 -7,32 -8,49 -1,23 2,45 8,66 6,22 15,45 27,66 1,0 1,0 1,0 9,14 20,26 31,37 13,11 24,20 38,29 h 1 c 8,-14 13,-29 18,-44 4,-15 8,-32 9,-49 0,-24 -2,-48 -8,-70 -6,-21 -15,-42 -28,-61 -9,-14 -19,-27 -31,-39 -12,-11 -24,-23 -38,-30 z"
   id="path11951"
   style="fill:#e9800e;fill-opacity:1" />
        </g><g
   id="id667"
   transform="matrix(2.0053476,0,0,2.0053476,-49176.359,-32620.21)"
   style="visibility:hidden;fill:#e9800e;fill-opacity:1"
   clip-path="url(#clipPath27434)">
         
         <path
   fill="#5eb91e"
   stroke="none"
   d="m 25202,18185 c 0,1 0,1 0,1 -1,1 -1,1 -1,1 h 1 c 7,15 17,28 27,41 11,12 23,24 37,34 17,14 36,25 57,32 22,8 46,13 70,15 17,0 34,-2 49,-5 16,-3 31,-8 45,-13 1,-1 1,-1 1,-1 -7,-14 -16,-28 -26,-40 -10,-13 -21,-25 -35,-36 -20,-14 -40,-25 -63,-34 -21,-7 -41,-11 -64,-12 -17,0 -34,0 -50,3 -16,3 -33,7 -47,14 z"
   id="path11958"
   style="fill:#e9800e;fill-opacity:1" />
        </g><g
   id="id668"
   transform="matrix(2.0053476,0,0,2.0053476,-49176.359,-32620.21)"
   style="visibility:hidden;fill:#e9800e;fill-opacity:1"
   clip-path="url(#clipPath27459)">
         
         <path
   fill="#5eb91e"
   stroke="none"
   d="m 25408,17931 c -1,1 -1,1 -1,1 h -1 v 1 c -6,14 -11,31 -14,47 -2,16 -4,32 -3,49 v 1 c 1,22 5,44 13,65 8,21 20,42 33,63 11,13 23,25 35,34 13,10 27,18 40,26 1,-1 1,-1 1,-1 h 1 c 6,-14 11,-29 14,-44 2,-16 4,-33 4,-50 -2,-25 -6,-48 -15,-70 -7,-20 -18,-39 -32,-58 -10,-13 -22,-26 -34,-36 -12,-10 -27,-20 -41,-27 z"
   id="path11965"
   style="fill:#e9800e;fill-opacity:1" />
        </g><g
   id="id669"
   transform="matrix(2.0053476,0,0,2.0053476,-49176.359,-32620.21)"
   style="visibility:hidden;fill:#e9800e;fill-opacity:1"
   clip-path="url(#clipPath27484)">
         
         <path
   fill="#5eb91e"
   stroke="none"
   d="m 25422,18362 v 1 h 1 c 9,14 21,26 33,37 13,10 27,19 42,27 21,11 41,18 62,21 24,5 47,5 72,3 17,-3 33,-7 47,-13 15,-6 30,-13 43,-22 0,-1 0,-1 0,-1 -9,-13 -20,-24 -33,-35 -11,-10 -25,-20 -39,-29 -23,-10 -45,-18 -69,-22 -21,-4 -42,-4 -65,-1 -17,3 -34,6 -49,13 -15,5 -31,11 -44,21 z"
   id="path11972"
   style="fill:#e9800e;fill-opacity:1" />
        </g><g
   class="com.sun.star.drawing.ClosedBezierShape"
   id="g11982"
   transform="matrix(2.0053476,0,0,2.0053476,-49176.359,-32620.21)"
   style="visibility:hidden;fill:#e9800e;fill-opacity:1"
   clip-path="none">
        <g
   id="id670"
   style="fill:#e9800e;fill-opacity:1">
         
         <path
   fill="#5eb91e"
   stroke="none"
   d="m 25581,18077 h -1 v 1 c -5,16 -5,32 -6,49 0,16 3,33 5,50 5,22 13,42 24,61 12,21 27,39 45,56 12,12 26,21 40,29 14,7 29,13 44,17 h 1 c 4,-15 5,-31 5,-47 1,-16 0,-32 -3,-49 -7,-24 -15,-46 -27,-66 -11,-19 -24,-37 -41,-52 -13,-10 -26,-21 -41,-29 -14,-8 -29,-16 -45,-19 z"
   id="path11979"
   style="fill:#e9800e;fill-opacity:1" />
        </g>
       </g></svg>
