<?xml version="1.0" encoding="UTF-8" standalone="no"?>
<svg
   version="1.2"
   width="200"
   height="200"
   viewBox="0 0 5291.6667 5291.6667"
   preserveAspectRatio="xMidYMid"
   fill-rule="evenodd"
   stroke-width="28.222"
   stroke-linejoin="round"
   xml:space="preserve"
   id="svg783"
   sodipodi:docname="pause_menu.svg"
   inkscape:export-filename="pause_menu.png"
   inkscape:export-xdpi="96"
   inkscape:export-ydpi="96"
   inkscape:version="1.2.2 (b0a8486, 2022-12-01)"
   xmlns:inkscape="http://www.inkscape.org/namespaces/inkscape"
   xmlns:sodipodi="http://sodipodi.sourceforge.net/DTD/sodipodi-0.dtd"
   xmlns="http://www.w3.org/2000/svg"
   xmlns:svg="http://www.w3.org/2000/svg"
   xmlns:ooo="http://xml.openoffice.org/svg/export"><sodipodi:namedview
   id="namedview785"
   pagecolor="#ffffff"
   bordercolor="#000000"
   borderopacity="0.25"
   inkscape:showpageshadow="2"
   inkscape:pageopacity="0.0"
   inkscape:pagecheckerboard="0"
   inkscape:deskcolor="#d1d1d1"
   inkscape:document-units="mm"
   showgrid="false"
   inkscape:zoom="1.5610417"
   inkscape:cx="75.590551"
   inkscape:cy="76.551448"
   inkscape:window-width="1440"
   inkscape:window-height="847"
   inkscape:window-x="0"
   inkscape:window-y="25"
   inkscape:window-maximized="0"
   inkscape:current-layer="svg783" />
 <defs
   class="ClipPathGroup"
   id="defs719">
  <clipPath
   id="presentation_clip_path"
   clipPathUnits="userSpaceOnUse">
   <rect
   x="0"
   y="0"
   width="4000"
   height="4000"
   id="rect713" />
  </clipPath>
  <clipPath
   id="presentation_clip_path_shrink"
   clipPathUnits="userSpaceOnUse">
   <rect
   x="4"
   y="4"
   width="3992"
   height="3992"
   id="rect716" />
  </clipPath>
 </defs>
 <defs
   class="TextShapeIndex"
   id="defs723">
  <g
   ooo:slide="id1"
   ooo:id-list="id3"
   id="g721" />
 </defs>
 <defs
   class="EmbeddedBulletChars"
   id="defs755">
  <g
   id="bullet-char-template-57356"
   transform="matrix(4.8828125e-4,0,0,-4.8828125e-4,0,0)">
   <path
   d="M 580,1141 1163,571 580,0 -4,571 Z"
   id="path725" />
  </g>
  <g
   id="bullet-char-template-57354"
   transform="matrix(4.8828125e-4,0,0,-4.8828125e-4,0,0)">
   <path
   d="M 8,1128 H 1137 V 0 H 8 Z"
   id="path728" />
  </g>
  <g
   id="bullet-char-template-10146"
   transform="matrix(4.8828125e-4,0,0,-4.8828125e-4,0,0)">
   <path
   d="M 174,0 602,739 174,1481 1456,739 Z M 1358,739 309,1346 659,739 Z"
   id="path731" />
  </g>
  <g
   id="bullet-char-template-10132"
   transform="matrix(4.8828125e-4,0,0,-4.8828125e-4,0,0)">
   <path
   d="M 2015,739 1276,0 H 717 l 543,543 H 174 v 393 h 1086 l -543,545 h 557 z"
   id="path734" />
  </g>
  <g
   id="bullet-char-template-10007"
   transform="matrix(4.8828125e-4,0,0,-4.8828125e-4,0,0)">
   <path
   d="m 0,-2 c -7,16 -16,29 -25,39 l 381,530 c -94,256 -141,385 -141,387 0,25 13,38 40,38 9,0 21,-2 34,-5 21,4 42,12 65,25 l 27,-13 111,-251 280,301 64,-25 24,25 c 21,-10 41,-24 62,-43 C 886,937 835,863 770,784 769,783 710,716 594,584 L 774,223 c 0,-27 -21,-55 -63,-84 l 16,-20 C 717,90 699,76 672,76 641,76 570,178 457,381 L 164,-76 c -22,-34 -53,-51 -92,-51 -42,0 -63,17 -64,51 -7,9 -10,24 -10,44 0,9 1,19 2,30 z"
   id="path737" />
  </g>
  <g
   id="bullet-char-template-10004"
   transform="matrix(4.8828125e-4,0,0,-4.8828125e-4,0,0)">
   <path
   d="M 285,-33 C 182,-33 111,30 74,156 52,228 41,333 41,471 c 0,78 14,145 41,201 34,71 87,106 158,106 53,0 88,-31 106,-94 l 23,-176 c 8,-64 28,-97 59,-98 l 735,706 c 11,11 33,17 66,17 42,0 63,-15 63,-46 V 965 c 0,-36 -10,-64 -30,-84 L 442,47 C 390,-6 338,-33 285,-33 Z"
   id="path740" />
  </g>
  <g
   id="bullet-char-template-9679"
   transform="matrix(4.8828125e-4,0,0,-4.8828125e-4,0,0)">
   <path
   d="M 813,0 C 632,0 489,54 383,161 276,268 223,411 223,592 c 0,181 53,324 160,431 106,107 249,161 430,161 179,0 323,-54 432,-161 108,-107 162,-251 162,-431 0,-180 -54,-324 -162,-431 C 1136,54 992,0 813,0 Z"
   id="path743" />
  </g>
  <g
   id="bullet-char-template-8226"
   transform="matrix(4.8828125e-4,0,0,-4.8828125e-4,0,0)">
   <path
   d="m 346,457 c -73,0 -137,26 -191,78 -54,51 -81,114 -81,188 0,73 27,136 81,188 54,52 118,78 191,78 73,0 134,-26 185,-79 51,-51 77,-114 77,-187 0,-75 -25,-137 -76,-188 -50,-52 -112,-78 -186,-78 z"
   id="path746" />
  </g>
  <g
   id="bullet-char-template-8211"
   transform="matrix(4.8828125e-4,0,0,-4.8828125e-4,0,0)">
   <path
   d="M -4,459 H 1135 V 606 H -4 Z"
   id="path749" />
  </g>
  <g
   id="bullet-char-template-61548"
   transform="matrix(4.8828125e-4,0,0,-4.8828125e-4,0,0)">
   <path
   d="m 173,740 c 0,163 58,303 173,419 116,115 255,173 419,173 163,0 302,-58 418,-173 116,-116 174,-256 174,-419 0,-163 -58,-303 -174,-418 C 1067,206 928,148 765,148 601,148 462,206 346,322 231,437 173,577 173,740 Z"
   id="path752" />
  </g>
 </defs>
 <g
   id="g760">
  <g
   id="id2"
   class="Master_Slide">
   <g
   id="bg-id2"
   class="Background" />
   <g
   id="bo-id2"
   class="BackgroundObjects" />
  </g>
 </g>
 <g
   class="SlideGroup"
   id="g781"
   transform="matrix(1.3446056,0,0,1.3446056,-44.722456,-44.722456)">
  <g
   id="g779">
   <g
   id="container-id1">
    <g
   id="id1"
   class="Slide"
   clip-path="url(#presentation_clip_path)">
     <g
   class="Page"
   id="g775">
      <g
   class="Group"
   id="g773">
       <g
   class="com.sun.star.drawing.ClosedBezierShape"
   id="g771">
        <g
   id="id3">
         <rect
   class="BoundingBox"
   stroke="none"
   fill="none"
   x="132"
   y="132"
   width="3738"
   height="3738"
   id="rect762" />
         <path
   fill="#395511"
   stroke="none"
   d="m 2586,2339 c 59,-102 91,-220 91,-337 0,-118 -32,-236 -91,-338 -59,-104 -145,-188 -247,-249 -102,-59 -220,-88 -337,-88 -118,0 -236,29 -338,88 -104,61 -188,145 -249,249 -59,102 -88,220 -88,338 0,117 29,235 88,337 61,102 145,188 249,247 102,59 220,91 338,91 117,0 235,-32 337,-91 102,-59 188,-145 247,-247 z m -183,908 -191,569 h -423 l -191,-571 c -65,-20 -131,-47 -192,-79 L 867,3435 566,3134 837,2595 c -31,-61 -59,-127 -81,-192 L 185,2212 v -423 l 573,-191 c 20,-65 48,-129 77,-192 L 566,867 867,566 1406,837 c 61,-31 127,-59 192,-79 l 191,-573 h 423 l 191,571 c 65,22 131,50 192,81 l 539,-271 301,301 -269,539 c 32,61 59,127 79,192 l 571,191 v 423 l -569,191 c -22,68 -49,133 -81,194 l 269,537 -301,301 -537,-269 c -63,32 -129,59 -194,81 z"
   id="path764" />
         <path
   fill="none"
   stroke="#342a06"
   stroke-width="106"
   stroke-linejoin="round"
   d="m 2586,2339 c 59,-102 91,-220 91,-337 0,-118 -32,-236 -91,-338 -59,-104 -145,-188 -247,-249 -102,-59 -220,-88 -337,-88 -118,0 -236,29 -338,88 -104,61 -188,145 -249,249 -59,102 -88,220 -88,338 0,117 29,235 88,337 61,102 145,188 249,247 102,59 220,91 338,91 117,0 235,-32 337,-91 102,-59 188,-145 247,-247 z"
   id="path766" />
         <path
   fill="none"
   stroke="#342a06"
   stroke-width="106"
   stroke-linejoin="round"
   d="m 2403,3247 -191,569 h -423 l -191,-571 c -65,-20 -131,-47 -192,-79 L 867,3435 566,3134 837,2595 c -31,-61 -59,-127 -81,-192 L 185,2212 v -423 l 573,-191 c 20,-65 48,-129 77,-192 L 566,867 867,566 1406,837 c 61,-31 127,-59 192,-79 l 191,-573 h 423 l 191,571 c 65,22 131,50 192,81 l 539,-271 301,301 -269,539 c 32,61 59,127 79,192 l 571,191 v 423 l -569,191 c -22,68 -49,133 -81,194 l 269,537 -301,301 -537,-269 c -63,32 -129,59 -194,81 z"
   id="path768" />
        </g>
       </g>
      </g>
     </g>
    </g>
   </g>
  </g>
 </g>
</svg>
